<svg width="22" height="21" viewBox="0 0 22 21" fill="none" xmlns="http://www.w3.org/2000/svg">
<path d="M7.30268 1.78114C7.22808 1.5964 7.22994 1.3896 7.30782 1.20622C7.38571 1.02285 7.53325 0.877921 7.71799 0.803329C7.90273 0.728737 8.10953 0.730588 8.29291 0.808474C8.47628 0.88636 8.62121 1.0339 8.6958 1.21864L9.4458 3.09364C9.48274 3.18512 9.50129 3.28297 9.50041 3.38161C9.49953 3.48026 9.47922 3.57776 9.44066 3.66856C9.40209 3.75936 9.34602 3.84167 9.27564 3.9108C9.20527 3.97993 9.12196 4.03452 9.03049 4.07145C8.93902 4.10839 8.84116 4.12694 8.74252 4.12606C8.64387 4.12518 8.54637 4.10488 8.45557 4.06631C8.36477 4.02774 8.28246 3.97167 8.21333 3.9013C8.1442 3.83092 8.08961 3.74762 8.05268 3.65614L7.30268 1.78114ZM1.71799 8.19646L3.59299 8.94646C3.68446 8.98339 3.78232 9.00194 3.88096 9.00106C3.97961 9.00018 4.07711 8.97988 4.16791 8.94131C4.25871 8.90275 4.34102 8.84667 4.41015 8.7763C4.47928 8.70592 4.53387 8.62262 4.5708 8.53114C4.60774 8.43967 4.62629 8.34181 4.62541 8.24317C4.62453 8.14453 4.60422 8.04702 4.56566 7.95622C4.52709 7.86542 4.47102 7.78311 4.40064 7.71398C4.33027 7.64485 4.24696 7.59026 4.15549 7.55333L2.28049 6.80333C2.09575 6.72874 1.88894 6.73059 1.70557 6.80847C1.52219 6.88636 1.37727 7.0339 1.30268 7.21864C1.22808 7.40338 1.22993 7.61019 1.30782 7.79356C1.38571 7.97694 1.53325 8.12186 1.71799 8.19646ZM20.2805 12.8033L18.4055 12.0533C18.2207 11.9787 18.0139 11.9806 17.8306 12.0585C17.6472 12.1364 17.5023 12.2839 17.4277 12.4686C17.3531 12.6534 17.3549 12.8602 17.4328 13.0436C17.5107 13.2269 17.6582 13.3719 17.843 13.4465L19.718 14.1965C19.9027 14.271 20.1095 14.2692 20.2929 14.1913C20.4763 14.1134 20.6212 13.9659 20.6958 13.7811C20.7704 13.5964 20.7685 13.3896 20.6907 13.2062C20.6128 13.0228 20.4652 12.8779 20.2805 12.8033ZM13.9458 17.3436C13.8712 17.1589 13.7263 17.0114 13.5429 16.9335C13.3595 16.8556 13.1527 16.8537 12.968 16.9283C12.7832 17.0029 12.6357 17.1478 12.5578 17.3312C12.4799 17.5146 12.4781 17.7214 12.5527 17.9061L13.3027 19.7811C13.3773 19.9659 13.5222 20.1134 13.7056 20.1913C13.8889 20.2692 14.0957 20.271 14.2805 20.1965C14.4652 20.1219 14.6128 19.9769 14.6907 19.7936C14.7685 19.6102 14.7704 19.4034 14.6958 19.2186L13.9458 17.3436ZM21.3033 0.236142C21.2345 0.162738 21.1516 0.103926 21.0596 0.0632061C20.9677 0.0224858 20.8684 0.00068977 20.7678 -0.000884701C20.6672 -0.00245917 20.5673 0.0162202 20.4741 0.0540413C20.3809 0.0918625 20.2962 0.148052 20.2252 0.219267L15.3117 5.1327L14.8074 4.62833C14.5287 4.3494 14.1979 4.12812 13.8337 3.97715C13.4695 3.82618 13.0791 3.74847 12.6849 3.74847C12.2906 3.74847 11.9002 3.82618 11.536 3.97715C11.1718 4.12812 10.841 4.3494 10.5624 4.62833L8.94986 6.23802C8.915 6.27284 8.88734 6.3142 8.86847 6.35973C8.8496 6.40525 8.83988 6.45405 8.83988 6.50333C8.83988 6.55261 8.8496 6.60141 8.86847 6.64693C8.88734 6.69246 8.915 6.73381 8.94986 6.76864L14.7342 12.5493C14.7691 12.5841 14.8104 12.6118 14.8559 12.6307C14.9015 12.6495 14.9503 12.6593 14.9996 12.6593C15.0488 12.6593 15.0976 12.6495 15.1432 12.6307C15.1887 12.6118 15.23 12.5841 15.2649 12.5493L16.8342 10.9799C17.403 10.4221 17.7328 9.66504 17.7539 8.86864C17.7617 8.46603 17.6879 8.06601 17.5369 7.69269C17.3859 7.31938 17.1609 6.98049 16.8755 6.69646L16.3711 6.19302L21.2649 1.30208C21.4075 1.16365 21.4911 0.975469 21.4983 0.776835C21.5055 0.578201 21.4356 0.384481 21.3033 0.236142ZM7.02799 6.96927C6.95694 6.8982 6.87234 6.84213 6.77921 6.8044C6.68607 6.76666 6.5863 6.74803 6.48582 6.7496C6.38534 6.75117 6.28621 6.77292 6.1943 6.81356C6.10239 6.85419 6.01959 6.91288 5.9508 6.98614C5.81851 7.13448 5.74864 7.3282 5.75581 7.52684C5.76297 7.72547 5.8466 7.91365 5.98924 8.05208L6.56205 8.62489L5.12486 10.0602C4.84003 10.3444 4.61563 10.6832 4.46515 11.0563C4.31467 11.4295 4.24123 11.8292 4.24924 12.2315C4.26904 13.0277 4.59746 13.785 5.16518 14.3436L5.63393 14.8068L0.732676 19.6996C0.594386 19.8343 0.511753 20.016 0.50116 20.2087C0.490568 20.4015 0.552789 20.5912 0.675489 20.7402C0.74287 20.8184 0.82566 20.8818 0.918677 20.9265C1.01169 20.9712 1.11294 20.9962 1.21607 21C1.3192 21.0038 1.42201 20.9863 1.51805 20.9485C1.6141 20.9107 1.70131 20.8535 1.77424 20.7805L6.68674 15.8671L7.19018 16.3715C7.75413 16.9328 8.51745 17.2479 9.31314 17.2479C10.1088 17.2479 10.8722 16.9328 11.4361 16.3715L12.8742 14.9352L13.4686 15.5305C13.5383 15.6002 13.621 15.6555 13.7121 15.6932C13.8031 15.7309 13.9007 15.7503 13.9992 15.7503C14.0978 15.7503 14.1954 15.7309 14.2864 15.6932C14.3775 15.6555 14.4602 15.6002 14.5299 15.5305C14.5995 15.4608 14.6548 15.3781 14.6925 15.2871C14.7302 15.196 14.7497 15.0984 14.7497 14.9999C14.7497 14.9013 14.7302 14.8038 14.6925 14.7127C14.6548 14.6217 14.5995 14.5389 14.5299 14.4693L7.02799 6.96927Z" fill="#222222"/>
</svg>
