<svg width="29" height="28" viewBox="0 0 29 28" fill="none" xmlns="http://www.w3.org/2000/svg">
<mask id="mask0_275_177" style="mask-type:luminance" maskUnits="userSpaceOnUse" x="0" y="0" width="29" height="28">
<path d="M0 0H28.435V28H0V0Z" fill="white"/>
</mask>
<g mask="url(#mask0_275_177)">
<path d="M5.49315 1.46805C11.6262 -1.97195 20.3882 0.848047 25.0662 7.77305C29.7452 14.696 28.5681 23.095 22.4382 26.535C27.6502 23.612 28.6502 16.469 24.6732 10.585C20.6962 4.70205 13.2452 2.30305 8.03615 5.22605C2.82315 8.15205 1.82415 15.292 5.79715 21.179C9.77415 27.062 17.2222 29.461 22.4342 26.535C16.3012 29.978 7.53915 27.155 2.86115 20.231C-1.81385 13.311 -0.63685 4.90805 5.49315 1.46805Z" fill="#3D3D3D"/>
<path d="M10.0517 3.69308C15.0757 0.873076 22.2557 3.18608 26.0857 8.85808C29.9197 14.5281 28.9537 21.4121 23.9297 24.2321C28.2007 21.8361 29.0197 15.9831 25.7607 11.1641C22.5057 6.34508 16.4007 4.37708 12.1327 6.77408C7.86071 9.16908 7.04271 15.0221 10.3017 19.8441C13.5597 24.6661 19.6617 26.6311 23.9327 24.2321C18.9087 27.0521 11.7287 24.7421 7.89871 19.0671C4.06571 13.3961 5.03071 6.51008 10.0547 3.69308H10.0517Z" fill="#3D3D3D"/>
<path d="M17.1091 3.46701C22.4351 3.80201 27.3121 8.43001 27.9991 13.803C28.6841 19.177 24.9231 23.26 19.5971 22.928C24.1251 23.212 27.3221 19.741 26.7401 15.172C26.1551 10.603 22.0141 6.67001 17.4861 6.38601C12.9571 6.10201 9.75709 9.57301 10.3431 14.142C10.9281 18.712 15.0731 22.644 19.5971 22.928C14.2721 22.592 9.39809 17.965 8.71009 12.592C8.02209 7.21801 11.7831 3.13501 17.1121 3.46701H17.1091Z" fill="#3D3D3D"/>
<path d="M22.699 5.64009C26.912 8.17009 28.901 13.3141 27.145 17.1261C25.385 20.9391 20.546 21.9801 16.333 19.4501C19.916 21.6001 24.03 20.7171 25.523 17.4761C27.018 14.2341 25.324 9.8641 21.744 7.7111C18.161 5.56109 14.047 6.4451 12.554 9.6861C11.059 12.9271 12.75 17.2981 16.334 19.4471C12.12 16.9171 10.131 11.7741 11.891 7.9611C13.65 4.1481 18.489 3.10809 22.702 5.63709L22.699 5.64009Z" fill="#3D3D3D"/>
</g>
</svg>
