<svg width="24" height="25" viewBox="0 0 24 25" fill="none" xmlns="http://www.w3.org/2000/svg">
<path d="M7.87529 11.75C7.87529 10.9341 8.11722 10.1366 8.57048 9.45824C9.02374 8.77988 9.66798 8.25117 10.4217 7.93896C11.1755 7.62675 12.0049 7.54506 12.805 7.70423C13.6052 7.86339 14.3402 8.25626 14.9171 8.83315C15.494 9.41004 15.8869 10.145 16.046 10.9452C16.2052 11.7454 16.1235 12.5748 15.8113 13.3285C15.4991 14.0823 14.9704 14.7265 14.292 15.1798C13.6137 15.633 12.8161 15.875 12.0003 15.875C10.9063 15.875 9.85706 15.4404 9.08348 14.6668C8.30989 13.8932 7.87529 12.844 7.87529 11.75ZM19.7028 17.1106C19.5357 17.0136 19.3382 16.983 19.1496 17.0248C18.961 17.0667 18.795 17.178 18.6847 17.3365C18.5231 17.5591 18.3503 17.7735 18.1672 17.9787C17.6215 17.1867 16.9282 16.5074 16.1253 15.9781C16.0568 15.9327 15.9753 15.911 15.8934 15.9165C15.8114 15.9219 15.7334 15.9541 15.6715 16.0081C14.6527 16.8897 13.3504 17.3749 12.0031 17.3749C10.6558 17.3749 9.35351 16.8897 8.33467 16.0081C8.27233 15.9527 8.19332 15.9197 8.11012 15.9143C8.02693 15.9089 7.9443 15.9313 7.87529 15.9781C7.07219 16.5064 6.37858 17.1848 5.83248 17.9759C4.66122 16.6607 3.94346 15.004 3.78498 13.25H5.22873C5.35013 13.2519 5.47025 13.225 5.57927 13.1716C5.68828 13.1181 5.78308 13.0396 5.85592 12.9425C5.96159 12.798 6.01212 12.6205 5.99837 12.442C5.98461 12.2636 5.90748 12.0959 5.78092 11.9693L3.53092 9.71934C3.46126 9.64961 3.37855 9.59429 3.2875 9.55654C3.19645 9.5188 3.09885 9.49937 3.00029 9.49937C2.90173 9.49937 2.80414 9.5188 2.71309 9.55654C2.62204 9.59429 2.53932 9.64961 2.46967 9.71934L0.219667 11.9693C0.0931004 12.0959 0.0159731 12.2636 0.00221867 12.442C-0.0115358 12.6205 0.0389896 12.798 0.144667 12.9425C0.217499 13.0396 0.312304 13.1181 0.421319 13.1716C0.530334 13.225 0.650458 13.2519 0.771855 13.25H2.27842C2.43181 15.2439 3.19465 17.1425 4.46352 18.6883C5.73238 20.2341 7.4459 21.3523 9.37175 21.8913C11.2976 22.4303 13.3426 22.3641 15.2296 21.7016C17.1165 21.0391 18.7541 19.8124 19.9203 18.1878C19.9805 18.104 20.0227 18.0087 20.0444 17.9079C20.0661 17.8071 20.0667 17.7029 20.0463 17.6018C20.0259 17.5007 19.9849 17.4049 19.9258 17.3204C19.8667 17.2359 19.7907 17.1644 19.7028 17.1106ZM23.9431 12.2131C23.8864 12.076 23.7903 11.9589 23.6669 11.8764C23.5436 11.794 23.3986 11.75 23.2503 11.75H21.7222C21.5688 9.75599 20.8059 7.85742 19.5371 6.31165C18.2682 4.76587 16.5547 3.64767 14.6288 3.10864C12.703 2.56961 10.658 2.63583 8.77102 3.29832C6.88408 3.96081 5.2465 5.18753 4.08029 6.81215C3.96418 6.97377 3.91702 7.17489 3.94919 7.37128C3.98137 7.56766 4.09024 7.74322 4.25185 7.85934C4.41347 7.97545 4.61459 8.02261 4.81098 7.99044C5.00737 7.95826 5.18293 7.84939 5.29904 7.68778C6.28021 6.32169 7.65547 5.28813 9.24054 4.7256C10.8256 4.16306 12.5447 4.09844 14.1676 4.54038C15.7904 4.98232 17.2394 5.90971 18.3203 7.19827C19.4013 8.48684 20.0626 10.075 20.2156 11.75H18.7503C18.6019 11.7498 18.4568 11.7938 18.3333 11.8762C18.2099 11.9586 18.1136 12.0758 18.0568 12.2129C18 12.35 17.9852 12.5009 18.0141 12.6464C18.0431 12.792 18.1147 12.9257 18.2197 13.0306L20.4697 15.2806C20.5393 15.3503 20.622 15.4056 20.7131 15.4434C20.8041 15.4811 20.9017 15.5006 21.0003 15.5006C21.0989 15.5006 21.1964 15.4811 21.2875 15.4434C21.3785 15.4056 21.4613 15.3503 21.5309 15.2806L23.7809 13.0306C23.8858 12.9256 23.9571 12.792 23.986 12.6464C24.0149 12.5009 24 12.3501 23.9431 12.2131Z" fill="#222222"/>
</svg>
