<svg width="29" height="28" viewBox="0 0 29 28" fill="none" xmlns="http://www.w3.org/2000/svg">
<mask id="mask0_275_188" style="mask-type:luminance" maskUnits="userSpaceOnUse" x="0" y="0" width="29" height="28">
<path d="M0.435547 0H28.4355V28H0.435547V0Z" fill="white"/>
</mask>
<g mask="url(#mask0_275_188)">
<path d="M0.434593 13.9919C0.434593 17.8569 2.04259 21.5809 4.87159 24.2329C5.73159 22.7769 6.00959 20.9449 5.50359 19.0929C4.80559 16.5269 2.78859 14.6229 0.433594 13.9929L0.434593 13.9919Z" fill="#3D3D3D"/>
<path d="M1.15723 9.58603C0.812336 10.6145 0.588493 11.6797 0.490234 12.76C3.75023 13.086 6.51723 16.84 6.83823 21.604C6.93117 22.9229 6.81746 24.2482 6.50123 25.532C7.24835 26.0444 8.04341 26.4831 8.87523 26.842C9.32223 24.622 9.30623 22.165 8.73323 19.686C7.61523 14.84 4.65323 11.124 1.15723 9.58203V9.58603ZM16.2552 7.25902C19.7952 8.05502 23.2632 7.52903 25.9512 6.04303C25.4473 5.3098 24.8729 4.62757 24.2362 4.00602C21.8032 5.96402 17.7152 6.36403 13.8032 4.73602C11.7632 3.88802 10.0792 2.61302 8.88623 1.15002C8.51323 1.31002 8.14524 1.48702 7.78724 1.68302C9.55324 4.32802 12.5592 6.42702 16.2552 7.25902ZM28.2812 16.076C28.3949 15.3162 28.4464 14.5483 28.4352 13.78C25.5112 14.702 22.7412 16.849 20.8772 19.96C19.4612 22.326 18.7822 24.888 18.7872 27.306C19.1162 27.2 19.4372 27.082 19.7592 26.952C20.0492 24.752 21.2152 22.232 23.1532 19.988C24.7112 18.183 26.5202 16.848 28.2822 16.08L28.2812 16.076Z" fill="#3D3D3D"/>
<path d="M27.0676 7.97997C23.1206 9.78597 17.0816 9.60997 11.0976 7.12197C8.81462 6.17197 6.76662 4.97897 5.02062 3.64197C3.8596 4.69251 2.88572 5.93286 2.14062 7.30997C6.66062 9.21297 10.3566 16.205 10.9336 24.767C10.9966 25.72 11.0196 26.658 11.0036 27.577C12.9306 28.067 14.8886 28.126 16.7676 27.804C17.0506 23.864 19.0716 19.214 22.6226 15.106C24.2736 13.196 26.0866 11.599 27.9426 10.347C27.7236 9.5333 27.4308 8.74134 27.0676 7.98097V7.97997ZM14.8726 19.043C9.24563 19.043 9.25363 10.313 14.8726 10.313C20.4916 10.313 20.4916 19.043 14.8726 19.043ZM16.9096 4.58997C19.1456 5.00297 21.4016 4.37097 23.1436 3.04497C22.1279 2.23579 21.0041 1.5727 19.8046 1.07497C17.2402 0.00526607 14.4146 -0.273329 11.6906 0.274972C12.4986 2.44497 14.3906 4.12797 16.9086 4.59097L16.9096 4.58997ZM27.5106 18.983C25.4546 19.309 23.4186 20.683 22.1196 22.844C21.4656 23.9266 21.0595 25.1407 20.9306 26.399C23.8309 24.8844 26.106 22.398 27.3576 19.375C27.4126 19.246 27.4596 19.113 27.5106 18.983Z" fill="#3D3D3D"/>
</g>
</svg>
