<svg width="30" height="30" viewBox="0 0 30 30" fill="none" xmlns="http://www.w3.org/2000/svg">
<g clip-path="url(#clip0_275_252)">
<g clip-path="url(#clip1_275_252)">
<g clip-path="url(#clip2_275_252)">
<mask id="mask0_275_252" style="mask-type:luminance" maskUnits="userSpaceOnUse" x="0" y="0" width="30" height="30">
<path d="M0 0H30V30H0V0Z" fill="white"/>
</mask>
<g mask="url(#mask0_275_252)">
<path fill-rule="evenodd" clip-rule="evenodd" d="M6.45433 14.9999C6.45433 14.0469 6.61233 13.1339 6.89433 12.2769L1.95133 8.50293C0.956846 10.5241 0.441512 12.7473 0.445334 14.9999C0.445334 17.3349 0.987334 19.5379 1.94933 21.4929L6.88933 17.7109C6.60173 16.836 6.45423 15.9209 6.45433 14.9999Z" fill="#FBBC05"/>
<path fill-rule="evenodd" clip-rule="evenodd" d="M15.1332 6.33296C17.2032 6.33296 19.0722 7.06696 20.5402 8.26696L24.8132 3.99996C22.2092 1.73296 18.8712 0.33296 15.1332 0.33296C12.3914 0.324209 9.70231 1.08534 7.37186 2.52971C5.04142 3.97408 3.16326 6.04369 1.95117 8.50296L6.89417 12.277C7.4658 10.5443 8.5703 9.0366 10.0499 7.96912C11.5296 6.90164 13.3087 6.329 15.1332 6.33296Z" fill="#EB4335"/>
<path fill-rule="evenodd" clip-rule="evenodd" d="M15.1332 23.6669C13.3087 23.6709 11.5296 23.0982 10.0499 22.0307C8.5703 20.9633 7.4658 19.4555 6.89417 17.7229L1.95117 21.4969C3.16326 23.9562 5.04142 26.0258 7.37186 27.4702C9.70231 28.9145 12.3914 29.6757 15.1332 29.6669C18.7152 29.6669 22.1352 28.3949 24.7032 26.0109L20.0102 22.3839C18.6862 23.2179 17.0202 23.6669 15.1332 23.6669Z" fill="#34A853"/>
<path fill-rule="evenodd" clip-rule="evenodd" d="M29.1528 15C29.1528 14.133 29.0198 13.2 28.8198 12.333H15.1328V18H23.0108C22.6178 19.932 21.5448 21.417 20.0108 22.384L24.7028 26.011C27.3998 23.509 29.1528 19.781 29.1528 15Z" fill="#4285F4"/>
</g>
</g>
</g>
</g>
<defs>
<clipPath id="clip0_275_252">
<rect width="30" height="30" fill="white"/>
</clipPath>
<clipPath id="clip1_275_252">
<rect width="30" height="30" fill="white"/>
</clipPath>
<clipPath id="clip2_275_252">
<rect width="30" height="30" fill="white"/>
</clipPath>
</defs>
</svg>
