<svg width="19" height="19" viewBox="0 0 19 19" fill="none" xmlns="http://www.w3.org/2000/svg">
<path d="M6.38673 3.49995C6.38644 2.93892 6.22884 2.3892 5.93182 1.91324C5.63481 1.43727 5.21027 1.05413 4.70644 0.807331C4.2026 0.560529 3.63965 0.459955 3.08153 0.517031C2.5234 0.574107 1.99246 0.786546 1.54901 1.13022C1.10556 1.4739 0.767365 1.93504 0.572835 2.46127C0.378305 2.9875 0.335235 3.55774 0.448518 4.10722C0.561801 4.6567 0.826896 5.1634 1.2137 5.56979C1.6005 5.97617 2.0935 6.26594 2.63673 6.4062V12.5937C1.92973 12.7762 1.31358 13.2104 0.903775 13.8147C0.493965 14.419 0.318631 15.1521 0.410637 15.8765C0.502643 16.6008 0.855672 17.2668 1.40355 17.7494C1.95143 18.2321 2.65655 18.4984 3.38673 18.4984C4.11691 18.4984 4.82202 18.2321 5.3699 17.7494C5.91778 17.2668 6.27081 16.6008 6.36281 15.8765C6.45482 15.1521 6.27949 14.419 5.86968 13.8147C5.45987 13.2104 4.84372 12.7762 4.13673 12.5937V6.4062C4.78047 6.239 5.35056 5.86299 5.75772 5.33708C6.16488 4.81116 6.3861 4.16506 6.38673 3.49995ZM4.88673 15.5C4.88673 15.7966 4.79875 16.0866 4.63393 16.3333C4.46911 16.58 4.23484 16.7722 3.96075 16.8858C3.68666 16.9993 3.38506 17.029 3.09409 16.9711C2.80312 16.9133 2.53584 16.7704 2.32607 16.5606C2.11629 16.3508 1.97343 16.0836 1.91555 15.7926C1.85767 15.5016 1.88737 15.2 2.00091 14.9259C2.11444 14.6518 2.3067 14.4176 2.55337 14.2528C2.80004 14.0879 3.09005 14 3.38673 14C3.78455 14 4.16608 14.158 4.44739 14.4393C4.72869 14.7206 4.88673 15.1021 4.88673 15.5ZM18.3867 15.5C18.3864 16.061 18.2288 16.6107 17.9318 17.0867C17.6348 17.5626 17.2103 17.9458 16.7064 18.1926C16.2026 18.4394 15.6397 18.54 15.0815 18.4829C14.5234 18.4258 13.9925 18.2134 13.549 17.8697C13.1056 17.526 12.7674 17.0649 12.5728 16.5386C12.3783 16.0124 12.3352 15.4422 12.4485 14.8927C12.5618 14.3432 12.8269 13.8365 13.2137 13.4301C13.6005 13.0237 14.0935 12.734 14.6367 12.5937V7.87152C14.6368 7.773 14.6175 7.67543 14.5798 7.58438C14.5422 7.49333 14.487 7.41059 14.4174 7.34089L10.8867 3.81027V6.49995C10.8867 6.69887 10.8077 6.88963 10.6671 7.03028C10.5264 7.17094 10.3356 7.24995 10.1367 7.24995C9.93781 7.24995 9.74705 7.17094 9.6064 7.03028C9.46574 6.88963 9.38673 6.69887 9.38673 6.49995V1.99995C9.38673 1.80104 9.46574 1.61028 9.6064 1.46962C9.74705 1.32897 9.93781 1.24995 10.1367 1.24995H14.6367C14.8356 1.24995 15.0264 1.32897 15.1671 1.46962C15.3077 1.61028 15.3867 1.80104 15.3867 1.99995C15.3867 2.19887 15.3077 2.38963 15.1671 2.53028C15.0264 2.67094 14.8356 2.74995 14.6367 2.74995H11.947L15.4805 6.28058C15.6899 6.4896 15.8557 6.7381 15.9683 7.01168C16.081 7.28526 16.1382 7.57847 16.1367 7.87433V12.5937C16.7805 12.7609 17.3506 13.1369 17.7577 13.6628C18.1649 14.1887 18.3861 14.8349 18.3867 15.5Z" fill="#222222"/>
</svg>
