<svg width="20" height="20" viewBox="0 0 20 20" fill="none" xmlns="http://www.w3.org/2000/svg">
<path d="M9.375 4.375V8.125C9.375 8.815 8.815 9.375 8.125 9.375H4.375C3.685 9.375 3.125 8.815 3.125 8.125V4.375C3.125 3.685 3.685 3.125 4.375 3.125H8.125C8.815 3.125 9.375 3.685 9.375 4.375ZM15.625 3.125H11.875C11.185 3.125 10.625 3.685 10.625 4.375V8.125C10.625 8.815 11.185 9.375 11.875 9.375H15.625C16.315 9.375 16.875 8.815 16.875 8.125V4.375C16.875 3.685 16.315 3.125 15.625 3.125ZM8.125 10.625H4.375C3.685 10.625 3.125 11.185 3.125 11.875V15.625C3.125 16.315 3.685 16.875 4.375 16.875H8.125C8.815 16.875 9.375 16.315 9.375 15.625V11.875C9.375 11.185 8.815 10.625 8.125 10.625ZM15.625 10.625H11.875C11.185 10.625 10.625 11.185 10.625 11.875V15.625C10.625 16.315 11.185 16.875 11.875 16.875H15.625C16.315 16.875 16.875 16.315 16.875 15.625V11.875C16.875 11.185 16.315 10.625 15.625 10.625Z" fill="white"/>
</svg>
