<svg width="19" height="19" viewBox="0 0 19 19" fill="none" xmlns="http://www.w3.org/2000/svg">
<path d="M6.04884 3.49995C6.04855 2.93892 5.89095 2.3892 5.59393 1.91324C5.29692 1.43727 4.87238 1.05413 4.36855 0.807331C3.86471 0.560529 3.30176 0.459955 2.74364 0.517031C2.18551 0.574107 1.65457 0.786546 1.21112 1.13022C0.767669 1.4739 0.429474 1.93504 0.234944 2.46127C0.0404143 2.9875 -0.00265514 3.55774 0.110628 4.10722C0.223911 4.6567 0.489006 5.1634 0.875807 5.56979C1.26261 5.97617 1.75561 6.26594 2.29884 6.4062V12.5937C1.59184 12.7762 0.975693 13.2104 0.565884 13.8147C0.156075 14.419 -0.0192595 15.1521 0.0727463 15.8765C0.164752 16.6008 0.517781 17.2668 1.06566 17.7494C1.61354 18.2321 2.31866 18.4984 3.04884 18.4984C3.77902 18.4984 4.48413 18.2321 5.03201 17.7494C5.57989 17.2668 5.93292 16.6008 6.02492 15.8765C6.11693 15.1521 5.9416 14.419 5.53179 13.8147C5.12198 13.2104 4.50583 12.7762 3.79884 12.5937V6.4062C4.44258 6.239 5.01267 5.86299 5.41983 5.33708C5.82699 4.81116 6.04821 4.16506 6.04884 3.49995ZM4.54884 15.5C4.54884 15.7966 4.46086 16.0866 4.29604 16.3333C4.13122 16.58 3.89695 16.7722 3.62286 16.8858C3.34877 16.9993 3.04717 17.029 2.7562 16.9711C2.46523 16.9133 2.19795 16.7704 1.98818 16.5606C1.7784 16.3508 1.63554 16.0836 1.57766 15.7926C1.51978 15.5016 1.54948 15.2 1.66302 14.9259C1.77655 14.6518 1.96881 14.4176 2.21548 14.2528C2.46215 14.0879 2.75216 14 3.04884 14C3.44666 14 3.82819 14.158 4.1095 14.4393C4.3908 14.7206 4.54884 15.1021 4.54884 15.5ZM18.0488 15.5C18.0486 16.061 17.891 16.6107 17.5939 17.0867C17.2969 17.5626 16.8724 17.9458 16.3685 18.1926C15.8647 18.4394 15.3018 18.54 14.7436 18.4829C14.1855 18.4258 13.6546 18.2134 13.2111 17.8697C12.7677 17.526 12.4295 17.0649 12.2349 16.5386C12.0404 16.0124 11.9973 15.4422 12.1106 14.8927C12.2239 14.3432 12.489 13.8365 12.8758 13.4301C13.2626 13.0237 13.7556 12.734 14.2988 12.5937V7.87152C14.2989 7.773 14.2796 7.67543 14.2419 7.58438C14.2043 7.49333 14.1491 7.41059 14.0795 7.34089L10.5488 3.81027V6.49995C10.5488 6.69887 10.4698 6.88963 10.3292 7.03028C10.1885 7.17094 9.99775 7.24995 9.79884 7.24995C9.59992 7.24995 9.40916 7.17094 9.26851 7.03028C9.12785 6.88963 9.04884 6.69887 9.04884 6.49995V1.99995C9.04884 1.80104 9.12785 1.61028 9.26851 1.46962C9.40916 1.32897 9.59992 1.24995 9.79884 1.24995H14.2988C14.4977 1.24995 14.6885 1.32897 14.8292 1.46962C14.9698 1.61028 15.0488 1.80104 15.0488 1.99995C15.0488 2.19887 14.9698 2.38963 14.8292 2.53028C14.6885 2.67094 14.4977 2.74995 14.2988 2.74995H11.6091L15.1426 6.28058C15.352 6.4896 15.5178 6.7381 15.6304 7.01168C15.7431 7.28526 15.8003 7.57847 15.7988 7.87433V12.5937C16.4426 12.7609 17.0127 13.1369 17.4198 13.6628C17.827 14.1887 18.0482 14.8349 18.0488 15.5Z" fill="#222222"/>
</svg>
