<svg width="23" height="23" viewBox="0 0 23 23" fill="none" xmlns="http://www.w3.org/2000/svg">
<path d="M13.3287 8.50007V3.50007C13.3285 3.30217 13.3871 3.10868 13.497 2.94409C13.6068 2.77949 13.7631 2.6512 13.9459 2.57545C14.1287 2.49969 14.3299 2.47989 14.524 2.51854C14.7181 2.55719 14.8963 2.65256 15.0362 2.79257L16.8287 4.58632L20.6212 0.792568C20.8088 0.604927 21.0633 0.499512 21.3287 0.499512C21.594 0.499512 21.8485 0.604927 22.0362 0.792568C22.2238 0.980208 22.3292 1.2347 22.3292 1.50007C22.3292 1.76543 22.2238 2.01993 22.0362 2.20757L18.2424 6.00007L20.0362 7.79257C20.1762 7.93242 20.2716 8.11068 20.3102 8.30476C20.3489 8.49885 20.3291 8.70004 20.2533 8.88286C20.1776 9.06568 20.0493 9.22192 19.8847 9.33179C19.7201 9.44166 19.5266 9.50022 19.3287 9.50007H14.3287C14.0635 9.50007 13.8091 9.39471 13.6216 9.20717C13.434 9.01964 13.3287 8.76528 13.3287 8.50007ZM8.32868 13.5001H3.32868C3.13079 13.4999 2.93729 13.5585 2.7727 13.6683C2.6081 13.7782 2.47981 13.9345 2.40406 14.1173C2.32831 14.3001 2.3085 14.5013 2.34715 14.6954C2.3858 14.8895 2.48117 15.0677 2.62118 15.2076L4.41493 17.0001L0.621181 20.7926C0.43354 20.9802 0.328125 21.2347 0.328125 21.5001C0.328125 21.7654 0.43354 22.0199 0.621181 22.2076C0.808822 22.3952 1.06332 22.5006 1.32868 22.5006C1.59404 22.5006 1.84854 22.3952 2.03618 22.2076L5.82868 18.4138L7.62118 20.2076C7.76104 20.3476 7.93929 20.4429 8.13337 20.4816C8.32746 20.5202 8.52865 20.5004 8.71147 20.4247C8.89429 20.3489 9.05053 20.2206 9.1604 20.056C9.27027 19.8915 9.32884 19.698 9.32868 19.5001V14.5001C9.32868 14.2349 9.22332 13.9805 9.03579 13.793C8.84825 13.6054 8.5939 13.5001 8.32868 13.5001ZM8.71118 2.57632C8.52848 2.50052 8.3274 2.48061 8.13338 2.5191C7.93936 2.55759 7.76111 2.65276 7.62118 2.79257L5.82868 4.58632L2.03618 0.792568C1.84854 0.604927 1.59404 0.499512 1.32868 0.499512C1.06332 0.499512 0.808822 0.604927 0.621181 0.792568C0.43354 0.980208 0.328125 1.2347 0.328125 1.50007C0.328125 1.76543 0.43354 2.01993 0.621181 2.20757L4.41493 6.00007L2.62118 7.79257C2.48117 7.93242 2.3858 8.11068 2.34715 8.30476C2.3085 8.49885 2.32831 8.70004 2.40406 8.88286C2.47981 9.06568 2.6081 9.22192 2.7727 9.33179C2.93729 9.44166 3.13079 9.50022 3.32868 9.50007H8.32868C8.5939 9.50007 8.84825 9.39471 9.03579 9.20717C9.22332 9.01964 9.32868 8.76528 9.32868 8.50007V3.50007C9.32864 3.30229 9.26995 3.10896 9.16004 2.94453C9.05012 2.78011 8.89392 2.65197 8.71118 2.57632ZM18.2424 17.0001L20.0362 15.2076C20.1762 15.0677 20.2716 14.8895 20.3102 14.6954C20.3489 14.5013 20.3291 14.3001 20.2533 14.1173C20.1776 13.9345 20.0493 13.7782 19.8847 13.6683C19.7201 13.5585 19.5266 13.4999 19.3287 13.5001H14.3287C14.0635 13.5001 13.8091 13.6054 13.6216 13.793C13.434 13.9805 13.3287 14.2349 13.3287 14.5001V19.5001C13.3285 19.698 13.3871 19.8915 13.497 20.056C13.6068 20.2206 13.7631 20.3489 13.9459 20.4247C14.1287 20.5004 14.3299 20.5202 14.524 20.4816C14.7181 20.4429 14.8963 20.3476 15.0362 20.2076L16.8287 18.4138L20.6212 22.2076C20.7141 22.3005 20.8244 22.3742 20.9458 22.4245C21.0672 22.4747 21.1973 22.5006 21.3287 22.5006C21.4601 22.5006 21.5902 22.4747 21.7116 22.4245C21.833 22.3742 21.9433 22.3005 22.0362 22.2076C22.1291 22.1147 22.2028 22.0044 22.2531 21.883C22.3034 21.7616 22.3292 21.6315 22.3292 21.5001C22.3292 21.3687 22.3034 21.2386 22.2531 21.1172C22.2028 20.9958 22.1291 20.8855 22.0362 20.7926L18.2424 17.0001Z" fill="#A6CE39"/>
</svg>
