<svg width="30" height="25" viewBox="0 0 30 25" fill="none" xmlns="http://www.w3.org/2000/svg">
<path d="M25.5006 6.5V6C25.4993 4.91656 25.178 3.85764 24.5771 2.95612C23.9761 2.0546 23.1223 1.35065 22.1228 0.932596C21.1233 0.514542 20.0225 0.401012 18.9587 0.606253C17.8949 0.811494 16.9154 1.32636 16.1431 2.08625C16.0974 2.13229 16.0613 2.18693 16.0368 2.247C16.0124 2.30707 16.0001 2.37139 16.0006 2.43625V13.5263C16.0008 13.6164 16.0254 13.7048 16.0718 13.7821C16.1182 13.8594 16.1846 13.9227 16.264 13.9654C16.3434 14.0081 16.4329 14.0285 16.5229 14.0244C16.613 14.0204 16.7003 13.9921 16.7756 13.9425C17.7265 13.3328 18.831 13.0059 19.9606 13C20.2221 12.9951 20.4754 13.0907 20.6687 13.2669C20.8619 13.4431 20.9802 13.6867 20.9993 13.9475C21.0065 14.0832 20.9859 14.2189 20.9388 14.3463C20.8918 14.4738 20.8193 14.5903 20.7257 14.6888C20.6321 14.7873 20.5194 14.8657 20.3945 14.9192C20.2697 14.9727 20.1352 15.0002 19.9993 15C18.9385 15 17.9211 15.4214 17.1709 16.1716C16.4208 16.9217 15.9993 17.9391 15.9993 19V23.235C15.9992 23.3098 16.0159 23.3837 16.0481 23.4512C16.0804 23.5187 16.1273 23.5781 16.1856 23.625C16.8952 24.2123 17.7307 24.628 18.6271 24.8398C19.5235 25.0516 20.4567 25.0539 21.3541 24.8464C22.2516 24.6388 23.089 24.2272 23.8015 23.6433C24.5139 23.0595 25.0821 22.3192 25.4618 21.48C25.5001 21.3956 25.5141 21.3023 25.5024 21.2104C25.4906 21.1185 25.4536 21.0316 25.3954 20.9595C25.3372 20.8875 25.2601 20.833 25.1727 20.8022C25.0854 20.7713 24.9911 20.7654 24.9006 20.785C24.2773 20.9278 23.64 21 23.0006 21H22.0343C21.7763 21.0032 21.5267 20.9087 21.3354 20.7355C21.1442 20.5624 21.0255 20.3233 21.0031 20.0662C20.994 19.9295 21.0131 19.7923 21.0593 19.6632C21.1055 19.5341 21.1777 19.4159 21.2715 19.3159C21.3653 19.2159 21.4786 19.1363 21.6045 19.0819C21.7303 19.0276 21.866 18.9997 22.0031 19H23.0031C24.0479 19.0016 25.0774 18.7494 26.0031 18.265C27.0994 17.694 28.0101 16.8223 28.6285 15.7521C29.247 14.6819 29.5474 13.4576 29.4947 12.2226C29.4419 10.9877 29.0382 9.79343 28.3308 8.77985C27.6233 7.76626 26.6416 6.9754 25.5006 6.5ZM24.0006 11H23.5006C22.3071 11 21.1625 10.5259 20.3186 9.68198C19.4747 8.83807 19.0006 7.69347 19.0006 6.5V6C19.0006 5.73478 19.1059 5.48043 19.2935 5.29289C19.481 5.10536 19.7354 5 20.0006 5C20.2658 5 20.5202 5.10536 20.7077 5.29289C20.8952 5.48043 21.0006 5.73478 21.0006 6V6.5C21.0006 6.82831 21.0653 7.1534 21.1909 7.45671C21.3165 7.76002 21.5007 8.03562 21.7328 8.26777C22.2017 8.73661 22.8375 9 23.5006 9H24.0006C24.2658 9 24.5202 9.10536 24.7077 9.29289C24.8952 9.48043 25.0006 9.73478 25.0006 10C25.0006 10.2652 24.8952 10.5196 24.7077 10.7071C24.5202 10.8946 24.2658 11 24.0006 11ZM10.0006 0.5C8.5424 0.501655 7.14442 1.08165 6.11333 2.11274C5.08224 3.14383 4.50224 4.54182 4.50059 6V6.5C3.35975 6.97565 2.37818 7.76673 1.67099 8.78045C0.963795 9.79418 0.560299 10.9885 0.507817 12.2234C0.455334 13.4583 0.756042 14.6826 1.37467 15.7527C1.99331 16.8228 2.90422 17.6943 4.00059 18.265C4.9263 18.7494 5.95582 19.0016 7.00059 19H7.96684C8.22526 18.9962 8.47553 19.0904 8.66732 19.2636C8.85911 19.4368 8.97818 19.6763 9.00059 19.9338C9.00967 20.0705 8.99053 20.2077 8.94436 20.3368C8.89819 20.4659 8.82597 20.5841 8.73219 20.6841C8.63841 20.7841 8.52507 20.8637 8.39922 20.9181C8.27336 20.9724 8.13767 21.0003 8.00059 21H7.00059C6.36069 21.0003 5.72283 20.9277 5.09934 20.7838C5.00885 20.764 4.91467 20.7698 4.82727 20.8004C4.73988 20.8311 4.66272 20.8854 4.6044 20.9574C4.54607 21.0293 4.50887 21.116 4.49694 21.2079C4.48501 21.2997 4.49882 21.3931 4.53684 21.4775C4.9165 22.3169 5.48463 23.0574 6.19706 23.6415C6.90949 24.2256 7.74703 24.6376 8.64456 24.8453C9.5421 25.0531 10.4755 25.0511 11.3721 24.8394C12.2687 24.6278 13.1045 24.2122 13.8143 23.625C13.8726 23.5781 13.9195 23.5187 13.9518 23.4512C13.984 23.3837 14.0007 23.3098 14.0006 23.235V19C14.0006 17.9391 13.5792 16.9217 12.829 16.1716C12.0789 15.4214 11.0615 15 10.0006 15C9.86473 15.0002 9.73026 14.9727 9.60538 14.9192C9.4805 14.8657 9.36783 14.7873 9.27425 14.6888C9.18067 14.5903 9.10814 14.4738 9.06109 14.3463C9.01404 14.2189 8.99345 14.0832 9.00059 13.9475C9.01973 13.6865 9.13825 13.4427 9.33173 13.2665C9.5252 13.0902 9.77891 12.9948 10.0406 13C11.1701 13.0059 12.2747 13.3328 13.2256 13.9425C13.3009 13.9921 13.3882 14.0204 13.4782 14.0244C13.5683 14.0285 13.6578 14.0081 13.7372 13.9654C13.8166 13.9227 13.883 13.8594 13.9294 13.7821C13.9757 13.7048 14.0003 13.6164 14.0006 13.5263V2.43625C14.001 2.305 13.9498 2.17884 13.8581 2.085C12.8313 1.06903 11.445 0.499421 10.0006 0.5ZM11.0006 6.5C11.0006 7.69347 10.5265 8.83807 9.68257 9.68198C8.83865 10.5259 7.69406 11 6.50059 11H6.00059C5.73537 11 5.48102 10.8946 5.29348 10.7071C5.10594 10.5196 5.00059 10.2652 5.00059 10C5.00059 9.73478 5.10594 9.48043 5.29348 9.29289C5.48102 9.10536 5.73537 9 6.00059 9H6.50059C6.82889 9 7.15398 8.93534 7.4573 8.8097C7.76061 8.68406 8.03621 8.49991 8.26835 8.26777C8.5005 8.03562 8.68465 7.76002 8.81029 7.45671C8.93592 7.1534 9.00059 6.82831 9.00059 6.5V6C9.00059 5.73478 9.10594 5.48043 9.29348 5.29289C9.48102 5.10536 9.73537 5 10.0006 5C10.2658 5 10.5202 5.10536 10.7077 5.29289C10.8952 5.48043 11.0006 5.73478 11.0006 6V6.5Z" fill="#A6CE39"/>
</svg>
