<svg width="27" height="26" viewBox="0 0 27 26" fill="none" xmlns="http://www.w3.org/2000/svg">
<g clip-path="url(#clip0_319_963)">
<path d="M17.2637 13.8838C15.2212 13.8838 13.566 15.5396 13.566 17.5815M13.566 17.5815V18.6383M13.566 17.5815C13.566 15.5396 11.9101 13.8838 9.86763 13.8838M13.566 18.6383C13.566 20.6808 15.2212 22.336 17.2637 22.336C19.3062 22.336 20.9614 20.6808 20.9614 18.6383V16.7365M13.566 18.6383C13.566 20.6808 11.9101 22.336 9.86763 22.336C7.82574 22.336 6.16992 20.6808 6.16992 18.6383V16.7365" stroke="#A6CE39" stroke-width="1.58482" stroke-linecap="round" stroke-linejoin="round"/>
<path d="M19.3757 17.0538C21.4182 17.0538 23.0741 15.3979 23.0741 13.3554C23.0741 11.3135 21.4182 9.65771 19.3757 9.65771H18.8477" stroke="#A6CE39" stroke-width="1.58482" stroke-linecap="round" stroke-linejoin="round"/>
<path d="M20.9616 9.97461V7.01606C20.9616 4.97418 19.3058 3.31836 17.2633 3.31836C15.2214 3.31836 13.5656 4.97418 13.5656 7.01606M7.75435 17.0537C5.71246 17.0537 4.05664 15.3979 4.05664 13.3554C4.05664 11.3135 5.71246 9.65765 7.75435 9.65765H8.28304" stroke="#A6CE39" stroke-width="1.58482" stroke-linecap="round" stroke-linejoin="round"/>
<path d="M6.16992 9.97461V7.01606C6.16992 4.97418 7.82574 3.31836 9.86763 3.31836C11.9101 3.31836 13.566 4.97418 13.566 7.01606V17.5818" stroke="#A6CE39" stroke-width="1.58482" stroke-linecap="round" stroke-linejoin="round"/>
</g>
<defs>
<clipPath id="clip0_319_963">
<rect width="25.3571" height="25.3571" fill="white" transform="translate(0.886719 0.148438)"/>
</clipPath>
</defs>
</svg>
