<svg width="27" height="26" viewBox="0 0 27 26" fill="none" xmlns="http://www.w3.org/2000/svg">
<path d="M13.6697 0C11.8001 0.00142966 9.95274 0.406129 8.25373 1.18649C6.55472 1.96685 5.04402 3.1045 3.82469 4.52185C2.60537 5.93919 1.70611 7.60286 1.18827 9.39937C0.67043 11.1959 0.546192 13.083 0.824031 14.9319C1.10187 16.7807 1.77525 18.548 2.79823 20.1129C3.82121 21.6779 5.16971 23.0038 6.75175 24.0002C8.33379 24.9965 10.1121 25.6399 11.9655 25.8865C13.8188 26.133 15.7035 25.9769 17.491 25.4287C17.6471 25.3808 17.7888 25.2949 17.9035 25.1787L25.8497 17.2325C25.9657 17.1171 26.0515 16.975 26.0997 16.8188C26.6948 14.8743 26.8258 12.8175 26.4823 10.8133C26.1388 8.80908 25.3303 6.91328 24.1218 5.27798C22.9132 3.64268 21.3382 2.31341 19.523 1.39682C17.7079 0.480226 15.7032 0.0018262 13.6697 0ZM9.16975 9C9.46642 9 9.75643 9.08797 10.0031 9.2528C10.2498 9.41762 10.442 9.65189 10.5556 9.92597C10.6691 10.2001 10.6988 10.5017 10.6409 10.7926C10.583 11.0836 10.4402 11.3509 10.2304 11.5607C10.0206 11.7704 9.75336 11.9133 9.46238 11.9712C9.17141 12.0291 8.86981 11.9994 8.59572 11.8858C8.32163 11.7723 8.08737 11.58 7.92254 11.3334C7.75772 11.0867 7.66975 10.7967 7.66975 10.5C7.66975 10.1022 7.82778 9.72064 8.10909 9.43934C8.39039 9.15804 8.77192 9 9.16975 9ZM19.5347 16.5C18.2485 18.7238 16.111 20 13.6697 20C11.2285 20 9.091 18.725 7.80475 16.5C7.73239 16.3862 7.68381 16.2589 7.66192 16.1258C7.64003 15.9927 7.64529 15.8566 7.67738 15.7256C7.70946 15.5946 7.76772 15.4715 7.84863 15.3636C7.92955 15.2557 8.03145 15.1652 8.14822 15.0978C8.26498 15.0303 8.3942 14.9871 8.52808 14.9708C8.66197 14.9546 8.79776 14.9655 8.92728 15.0031C9.05681 15.0407 9.1774 15.1041 9.2818 15.1895C9.38619 15.2749 9.47223 15.3805 9.53475 15.5C10.4685 17.1138 11.936 18 13.6697 18C15.4035 18 16.871 17.1125 17.8047 15.5C17.8673 15.3805 17.9533 15.2749 18.0577 15.1895C18.1621 15.1041 18.2827 15.0407 18.4122 15.0031C18.5417 14.9655 18.6775 14.9546 18.8114 14.9708C18.9453 14.9871 19.0745 15.0303 19.1913 15.0978C19.308 15.1652 19.4099 15.2557 19.4909 15.3636C19.5718 15.4715 19.63 15.5946 19.6621 15.7256C19.6942 15.8566 19.6995 15.9927 19.6776 16.1258C19.6557 16.2589 19.6071 16.3862 19.5347 16.5ZM18.1697 12C17.8731 12 17.5831 11.912 17.3364 11.7472C17.0897 11.5824 16.8975 11.3481 16.7839 11.074C16.6704 10.7999 16.6407 10.4983 16.6986 10.2074C16.7564 9.91639 16.8993 9.64912 17.1091 9.43934C17.3189 9.22956 17.5861 9.0867 17.8771 9.02882C18.1681 8.97094 18.4697 9.00065 18.7438 9.11418C19.0179 9.22771 19.2521 9.41997 19.417 9.66665C19.5818 9.91332 19.6697 10.2033 19.6697 10.5C19.6697 10.8978 19.5117 11.2794 19.2304 11.5607C18.9491 11.842 18.5676 12 18.1697 12Z" fill="#A6CE39"/>
</svg>
