<svg width="40" height="40" viewBox="0 0 40 40" fill="none" xmlns="http://www.w3.org/2000/svg">
<path d="M20 0C31.0457 0 40 8.95431 40 20C40 31.0457 31.0457 40 20 40C8.95431 40 0 31.0457 0 20C0 8.95431 8.95431 0 20 0Z" fill="#007AFF"/>
<path d="M20 0C31.0457 0 40 8.95431 40 20C40 31.0457 31.0457 40 20 40C8.95431 40 0 31.0457 0 20C0 8.95431 8.95431 0 20 0Z" stroke="#E5E7EB"/>
<path d="M21.0881 10.6679C20.8873 10.2597 20.4631 10 19.9973 10C19.5314 10 19.111 10.2597 18.9065 10.6679L16.4711 15.5769L11.0323 16.3635C10.5778 16.4303 10.1991 16.742 10.0589 17.1687C9.91881 17.5954 10.0324 18.0667 10.3582 18.3821L14.3047 22.2076L13.373 27.6138C13.2972 28.0591 13.4866 28.5118 13.8616 28.7752C14.2365 29.0387 14.7327 29.0721 15.1417 28.8606L20.0011 26.3189L24.8604 28.8606C25.2694 29.0721 25.7656 29.0424 26.1406 28.7752C26.5155 28.5081 26.7049 28.0591 26.6291 27.6138L25.6936 22.2076L29.6402 18.3821C29.9659 18.0667 30.0833 17.5954 29.9394 17.1687C29.7955 16.742 29.4205 16.4303 28.966 16.3635L23.5234 15.5769L21.0881 10.6679Z" fill="white"/>
</svg>
