<svg width="47" height="55" viewBox="0 0 47 55" fill="none" xmlns="http://www.w3.org/2000/svg">
<path d="M39.319 29.0644C39.2946 24.558 41.3232 21.1567 45.4295 18.6518C43.132 15.3488 39.6612 13.5315 35.0783 13.1754C30.7398 12.8316 25.9981 15.7171 24.2627 15.7171C22.4295 15.7171 18.2255 13.2982 14.9258 13.2982C8.10645 13.4087 0.859375 18.7623 0.859375 29.6538C0.859375 32.8709 1.44598 36.1945 2.6192 39.6244C4.1835 44.1308 9.82962 55.1819 15.7202 54.9977C18.7999 54.924 20.9752 52.7998 24.9837 52.7998C28.87 52.7998 30.8865 54.9977 34.3206 54.9977C40.26 54.9118 45.3684 44.8675 46.8594 40.3489C38.8913 36.5792 39.319 29.2977 39.319 29.0644ZM32.4019 8.90229C35.7382 4.92389 35.4327 1.30158 35.3349 0C32.3897 0.171906 28.98 2.01376 27.0368 4.28538C24.8982 6.71662 23.6394 9.72498 23.9083 13.114C27.098 13.3596 30.0066 11.7142 32.4019 8.90229Z" fill="#222222"/>
</svg>
