<svg width="24" height="20" viewBox="0 0 24 20" fill="none" xmlns="http://www.w3.org/2000/svg">
<path d="M0 3.9998C0 3.73458 0.105357 3.48023 0.292893 3.29269C0.48043 3.10515 0.734784 2.9998 1 2.9998H5.64625C5.86179 2.27776 6.30461 1.64457 6.90884 1.19437C7.51308 0.744159 8.24648 0.500977 9 0.500977C9.75352 0.500977 10.4869 0.744159 11.0912 1.19437C11.6954 1.64457 12.1382 2.27776 12.3538 2.9998H23C23.2652 2.9998 23.5196 3.10515 23.7071 3.29269C23.8946 3.48023 24 3.73458 24 3.9998C24 4.26501 23.8946 4.51937 23.7071 4.7069C23.5196 4.89444 23.2652 4.9998 23 4.9998H12.3538C12.1382 5.72183 11.6954 6.35502 11.0912 6.80523C10.4869 7.25544 9.75352 7.49862 9 7.49862C8.24648 7.49862 7.51308 7.25544 6.90884 6.80523C6.30461 6.35502 5.86179 5.72183 5.64625 4.9998H1C0.734784 4.9998 0.48043 4.89444 0.292893 4.7069C0.105357 4.51937 0 4.26501 0 3.9998ZM23 14.9998H20.3538C20.1382 14.2778 19.6954 13.6446 19.0912 13.1944C18.4869 12.7442 17.7535 12.501 17 12.501C16.2465 12.501 15.5131 12.7442 14.9088 13.1944C14.3046 13.6446 13.8618 14.2778 13.6462 14.9998H1C0.734784 14.9998 0.48043 15.1052 0.292893 15.2927C0.105357 15.4802 0 15.7346 0 15.9998C0 16.265 0.105357 16.5194 0.292893 16.7069C0.48043 16.8944 0.734784 16.9998 1 16.9998H13.6462C13.8618 17.7218 14.3046 18.355 14.9088 18.8052C15.5131 19.2554 16.2465 19.4986 17 19.4986C17.7535 19.4986 18.4869 19.2554 19.0912 18.8052C19.6954 18.355 20.1382 17.7218 20.3538 16.9998H23C23.2652 16.9998 23.5196 16.8944 23.7071 16.7069C23.8946 16.5194 24 16.265 24 15.9998C24 15.7346 23.8946 15.4802 23.7071 15.2927C23.5196 15.1052 23.2652 14.9998 23 14.9998Z" fill="#A6CE39"/>
</svg>
