<svg width="25" height="24" viewBox="0 0 25 24" fill="none" xmlns="http://www.w3.org/2000/svg">
<path d="M24.3301 1V6C24.3301 6.26522 24.2247 6.51957 24.0372 6.70711C23.8496 6.89464 23.5953 7 23.3301 7C23.0649 7 22.8105 6.89464 22.623 6.70711C22.4354 6.51957 22.3301 6.26522 22.3301 6V2H18.3301C18.0649 2 17.8105 1.89464 17.623 1.70711C17.4354 1.51957 17.3301 1.26522 17.3301 1C17.3301 0.734784 17.4354 0.48043 17.623 0.292893C17.8105 0.105357 18.0649 0 18.3301 0H23.3301C23.5953 0 23.8496 0.105357 24.0372 0.292893C24.2247 0.48043 24.3301 0.734784 24.3301 1ZM6.33008 22H2.33008V18C2.33008 17.7348 2.22472 17.4804 2.03718 17.2929C1.84965 17.1054 1.59529 17 1.33008 17C1.06486 17 0.810508 17.1054 0.622972 17.2929C0.435435 17.4804 0.330078 17.7348 0.330078 18V23C0.330078 23.2652 0.435435 23.5196 0.622972 23.7071C0.810508 23.8946 1.06486 24 1.33008 24H6.33008C6.59529 24 6.84965 23.8946 7.03718 23.7071C7.22472 23.5196 7.33008 23.2652 7.33008 23C7.33008 22.7348 7.22472 22.4804 7.03718 22.2929C6.84965 22.1054 6.59529 22 6.33008 22ZM23.3301 17C23.0649 17 22.8105 17.1054 22.623 17.2929C22.4354 17.4804 22.3301 17.7348 22.3301 18V22H18.3301C18.0649 22 17.8105 22.1054 17.623 22.2929C17.4354 22.4804 17.3301 22.7348 17.3301 23C17.3301 23.2652 17.4354 23.5196 17.623 23.7071C17.8105 23.8946 18.0649 24 18.3301 24H23.3301C23.5953 24 23.8496 23.8946 24.0372 23.7071C24.2247 23.5196 24.3301 23.2652 24.3301 23V18C24.3301 17.7348 24.2247 17.4804 24.0372 17.2929C23.8496 17.1054 23.5953 17 23.3301 17ZM1.33008 7C1.59529 7 1.84965 6.89464 2.03718 6.70711C2.22472 6.51957 2.33008 6.26522 2.33008 6V2H6.33008C6.59529 2 6.84965 1.89464 7.03718 1.70711C7.22472 1.51957 7.33008 1.26522 7.33008 1C7.33008 0.734784 7.22472 0.48043 7.03718 0.292893C6.84965 0.105357 6.59529 0 6.33008 0H1.33008C1.06486 0 0.810508 0.105357 0.622972 0.292893C0.435435 0.48043 0.330078 0.734784 0.330078 1V6C0.330078 6.26522 0.435435 6.51957 0.622972 6.70711C0.810508 6.89464 1.06486 7 1.33008 7ZM5.33008 6V18C5.33008 18.2652 5.43544 18.5196 5.62297 18.7071C5.81051 18.8946 6.06486 19 6.33008 19H18.3301C18.5953 19 18.8496 18.8946 19.0372 18.7071C19.2247 18.5196 19.3301 18.2652 19.3301 18V6C19.3301 5.73478 19.2247 5.48043 19.0372 5.29289C18.8496 5.10536 18.5953 5 18.3301 5H6.33008C6.06486 5 5.81051 5.10536 5.62297 5.29289C5.43544 5.48043 5.33008 5.73478 5.33008 6Z" fill="#A6CE39"/>
</svg>
