<svg width="22" height="23" viewBox="0 0 22 23" fill="none" xmlns="http://www.w3.org/2000/svg">
<path d="M7.16968 7.10989V5.34863C7.16968 4.37608 7.9584 3.58789 8.93095 3.58789H12.4524C13.425 3.58789 14.2137 4.37608 14.2137 5.34863V7.10989M10.6917 11.512V11.521M2.76758 8.87063C2.76758 7.89808 3.55576 7.10989 4.52831 7.10989H16.8551C17.8276 7.10989 18.6158 7.89808 18.6158 8.87063V16.7947C18.6158 17.7673 17.8276 18.5555 16.8551 18.5555H4.52831C3.55576 18.5555 2.76758 17.7673 2.76758 16.7947V8.87063Z" stroke="#535862" stroke-width="1.32068" stroke-linecap="round" stroke-linejoin="round"/>
<path d="M2.76758 12.3926C7.75184 14.904 13.6315 14.904 18.6158 12.3926" stroke="#535862" stroke-width="1.32068" stroke-linecap="round" stroke-linejoin="round"/>
</svg>
