<svg width="112" height="30" viewBox="0 0 112 30" fill="none" xmlns="http://www.w3.org/2000/svg">
<mask id="mask0_319_255" style="mask-type:alpha" maskUnits="userSpaceOnUse" x="0" y="0" width="113" height="30">
<g clip-path="url(#clip0_319_255)">
<g clip-path="url(#clip1_319_255)">
<path d="M10.5355 11.8034C9.32577 9.29015 10.0555 6.2729 12.28 4.59065C14.5038 2.90765 17.6058 3.02615 19.6953 4.8734C21.7848 6.72065 22.2828 9.7844 20.8855 12.1979L16.1575 20.3999L17.575 22.8554L23.017 13.4294C24.655 10.5209 24.394 6.91415 22.3548 4.27115C20.3155 1.62815 16.8933 0.461149 13.6638 1.3079C11.5458 1.8629 9.73227 3.2309 8.61702 5.1149C7.41852 7.16315 7.16352 9.62915 7.91802 11.8784C8.29752 11.8311 8.67927 11.8071 9.06102 11.8064L10.5355 11.8034ZM29.608 16.5734C28.4193 14.4861 26.3755 13.0229 24.016 12.5699C23.8683 12.9239 23.698 13.2681 23.5075 13.6004L22.7665 14.8829C25.1868 15.0314 27.2658 16.6559 27.9955 18.9681C28.7253 21.2804 27.955 23.8034 26.0583 25.3146C24.1615 26.8251 21.5298 27.0111 19.4395 25.7826C18.5658 25.2696 17.8405 24.5384 17.3335 23.6609L12.613 15.4859H9.77952L15.2065 24.8879C15.3933 25.2089 15.6003 25.5179 15.826 25.8119L15.871 25.8704C17.4378 27.8871 19.8528 29.0601 22.4065 29.0444C25.3765 29.0444 28.1208 27.4596 29.6058 24.8871C31.0908 22.3154 31.0915 19.1459 29.6065 16.5734H29.608ZM11.7685 25.9281C9.96552 26.8671 7.80477 26.8049 6.05952 25.7631C3.79677 24.4116 2.71452 21.7154 3.41427 19.1744C4.11477 16.6334 6.42552 14.8724 9.06102 14.8709H18.5215L19.9345 12.4169H9.06102C7.96002 12.4026 6.86652 12.6066 5.84502 13.0176C3.78102 13.8479 2.13627 15.4709 1.27827 17.5229C0.420266 19.5756 0.420266 21.8864 1.27827 23.9384C2.58777 27.0696 5.66802 29.0901 9.06102 29.0444C11.4715 29.0586 13.7665 28.0139 15.3385 26.1854C15.0955 25.8719 14.8743 25.5426 14.6755 25.1999L13.957 23.9489C13.408 24.7844 12.6543 25.4661 11.7678 25.9281H11.7685Z" fill="black"/>
<path d="M51.1586 24.303L50.7266 22.251L50.5106 22.17C50.3269 22.2923 50.1109 22.3583 49.8896 22.359C49.4576 22.359 49.0796 22.116 48.6206 21.603L44.7326 17.04L50.0786 11.289L49.9976 11.1H46.8386L41.2496 17.256V6.34804L41.0336 6.18604L38.3066 6.59104V24.6H41.2496V20.118L42.5726 18.687L46.3796 23.277C47.1896 24.276 48.2156 24.924 49.5116 24.924C50.1866 24.924 50.6996 24.762 51.0506 24.519L51.1586 24.303Z" fill="black"/>
<path d="M89.5999 10.7759C93.7039 10.7759 96.4849 13.9079 96.4849 17.8499C96.4849 21.7919 93.7039 24.9239 89.5999 24.9239C87.6829 24.9239 86.0629 24.1409 84.9019 22.9529V24.5999H82.2559V6.61789L85.0099 6.21289L85.1989 6.34789V12.4769C86.3329 11.4239 87.8449 10.7759 89.5999 10.7759ZM89.2489 22.3589C91.7869 22.3589 93.4609 20.3609 93.4609 17.8499C93.4609 15.3659 91.7869 13.3409 89.2489 13.3409C86.8729 13.3409 84.9829 14.9069 84.9829 17.8499C84.9829 20.7929 86.8729 22.3589 89.2489 22.3589ZM111.197 22.2779L111.629 24.2759L111.521 24.4649C111.143 24.7349 110.576 24.9239 109.901 24.9239C108.686 24.9239 107.795 24.2759 107.444 23.1689C106.283 24.2759 104.609 24.9239 102.827 24.9239C100.046 24.9239 97.4809 23.3849 97.4809 20.4689C97.4809 17.4719 100.181 16.0949 103.502 16.0949C104.96 16.0949 106.094 16.3649 107.066 16.7159V15.9599C107.066 14.0159 105.311 13.0709 103.448 13.0709C101.909 13.0709 100.721 13.7189 99.7759 14.6369H99.5599L98.0749 13.2329V13.0169C99.5329 11.6129 101.396 10.7759 103.718 10.7759C106.634 10.7759 109.955 12.0719 109.955 15.9599V21.1709C109.955 21.8999 110.09 22.3589 110.576 22.3589C110.765 22.3589 110.9 22.2779 111.008 22.1969L111.197 22.2779ZM107.066 19.7129V18.7139C106.364 18.4439 105.203 18.0929 103.88 18.0929C101.747 18.0929 100.424 19.0109 100.424 20.4689C100.424 22.0079 101.882 22.7639 103.421 22.7639C105.284 22.7639 107.066 21.6029 107.066 19.7129Z" fill="black"/>
<path d="M79.6001 16.4729C79.6001 13.0979 77.4131 10.7759 73.9841 10.7759C72.1751 10.7759 70.6361 11.4239 69.5831 12.4769C69.2321 11.3969 68.3951 10.7759 67.1531 10.7759C66.4511 10.7759 65.8571 10.9649 65.4791 11.2349L65.3711 11.4239L65.8031 13.4219L65.9921 13.5029C66.1001 13.4219 66.2351 13.3409 66.4241 13.3409C66.9371 13.3409 67.0451 13.7999 67.0451 14.5289V24.5999H70.0151V16.7159C70.0151 14.6639 71.3921 13.3139 73.4171 13.3139C75.4421 13.3139 76.6571 14.6639 76.6571 16.7159V24.5999H79.6001V16.4729Z" fill="black"/>
<path d="M64.6379 22.2779L65.0699 24.2759L64.9619 24.4649C64.5839 24.7349 64.0169 24.9239 63.3419 24.9239C62.1269 24.9239 61.2359 24.2759 60.8849 23.1689C59.7239 24.2759 58.0499 24.9239 56.2679 24.9239C53.4869 24.9239 50.9219 23.3849 50.9219 20.4689C50.9219 17.4719 53.6219 16.0949 56.9429 16.0949C58.4009 16.0949 59.5349 16.3649 60.5069 16.7159V15.9599C60.5069 14.0159 58.7519 13.0709 56.8889 13.0709C55.3499 13.0709 54.1619 13.7189 53.2169 14.6369H53.0009L51.5159 13.2329V13.0169C52.9739 11.6129 54.8369 10.7759 57.1589 10.7759C60.0749 10.7759 63.3959 12.0719 63.3959 15.9599V21.1709C63.3959 21.8999 63.5309 22.3589 64.0169 22.3589C64.2059 22.3589 64.3409 22.2779 64.4489 22.1969L64.6379 22.2779ZM60.5069 19.7129V18.7139C59.8049 18.4439 58.6439 18.0929 57.3209 18.0929C55.1879 18.0929 53.8649 19.0109 53.8649 20.4689C53.8649 22.0079 55.3229 22.7639 56.8619 22.7639C58.7249 22.7639 60.5069 21.6029 60.5069 19.7129Z" fill="black"/>
</g>
</g>
</mask>
<g mask="url(#mask0_319_255)">
<rect x="0.259766" width="111.75" height="30" fill="#A4A7AE"/>
</g>
<defs>
<clipPath id="clip0_319_255">
<rect width="111.75" height="30" fill="white" transform="translate(0.259766)"/>
</clipPath>
<clipPath id="clip1_319_255">
<rect width="111.75" height="30" fill="white" transform="translate(0.259766)"/>
</clipPath>
</defs>
</svg>
