<svg width="117" height="30" viewBox="0 0 117 30" fill="none" xmlns="http://www.w3.org/2000/svg">
<mask id="mask0_319_279" style="mask-type:alpha" maskUnits="userSpaceOnUse" x="0" y="0" width="118" height="30">
<g clip-path="url(#clip0_319_279)">
<g clip-path="url(#clip1_319_279)">
<path d="M0.00976589 2.66845e-07C0.00901589 3.97725 1.58777 7.79175 4.39952 10.6042C7.21202 13.4167 11.0265 14.9978 15.0038 14.9993V2.66845e-07H0.00976589ZM15.0038 14.9993H30.003V2.66845e-07C26.0243 -0.000749733 22.2083 1.5795 19.395 4.39275C16.5825 7.20525 15.0023 11.0213 15.0038 14.9993ZM15.0038 14.9993V29.9933H30.003C30.003 26.016 28.4228 22.2015 25.6095 19.3898C22.7963 16.578 18.9818 14.9985 15.0038 14.9993ZM15.0038 14.9985H0.00976589V29.9933C3.98702 29.9925 7.80077 28.4122 10.6125 25.6005C13.4243 22.7887 15.0038 18.975 15.0038 14.9985Z" fill="black"/>
<path d="M116.835 4.85084V24.4903H114.594V4.85084H116.835ZM105.137 24.7011C103.757 24.7011 102.602 24.3448 101.671 23.6331C100.748 22.9213 100.287 21.8713 100.287 20.4831C100.287 19.6836 100.44 19.0333 100.748 18.5323C101.064 18.0313 101.482 17.6406 102 17.3593C102.527 17.0691 103.12 16.8493 103.78 16.7001C104.455 16.5493 105.136 16.4308 105.823 16.3446C106.71 16.2216 107.408 16.1293 107.918 16.0678C108.427 16.0063 108.788 15.9051 108.999 15.7648C109.219 15.6238 109.328 15.3778 109.328 15.0261V14.8948C109.328 14.1388 109.056 13.5148 108.511 13.0228C107.975 12.5308 107.219 12.2848 106.244 12.2848C105.277 12.2848 104.482 12.5218 103.858 12.9966C103.243 13.4623 102.91 14.0421 102.856 14.7366H100.576C100.621 13.8838 100.884 13.1286 101.368 12.4693C101.851 11.8018 102.51 11.2746 103.345 10.8876C104.179 10.5013 105.146 10.3078 106.244 10.3078C107.869 10.3078 109.157 10.7293 110.106 11.5731C111.064 12.4078 111.543 13.5148 111.543 14.8948V24.4903H109.328V22.5126H109.276C109.108 22.8471 108.863 23.1853 108.538 23.5281C108.212 23.8618 107.773 24.1431 107.219 24.3711C106.675 24.5908 105.981 24.7011 105.137 24.7011ZM105.454 22.6971C106.367 22.6971 107.11 22.5351 107.68 22.2096C108.252 21.8758 108.669 21.4453 108.933 20.9181C109.197 20.3908 109.328 19.8238 109.328 19.2178V17.4778C109.162 17.6361 108.718 17.7808 107.997 17.9128C107.277 18.0358 106.517 18.1543 105.717 18.2691C105.181 18.3388 104.672 18.4618 104.188 18.6381C103.714 18.8046 103.327 19.0468 103.028 19.3626C102.73 19.6701 102.58 20.0878 102.58 20.6151C102.58 21.2653 102.835 21.7746 103.345 22.1436C103.863 22.5126 104.566 22.6971 105.454 22.6971ZM87.8505 29.9998V28.0221H89.2215C90.0472 28.0221 90.6758 27.4641 91.1062 26.3481L91.8705 24.3711L86.4795 10.5711H88.905L91.9102 18.5848C92.1045 19.1061 92.2935 19.6288 92.4772 20.1538C92.6693 20.6691 92.8538 21.1881 93.0308 21.7093L93.5843 20.1538C93.7777 19.6266 93.9713 19.1038 94.164 18.5848L97.1167 10.5711H99.5025L93.0833 27.0733C92.7233 28.0048 92.2088 28.7256 91.5413 29.2348C90.873 29.7448 90.1005 29.9998 89.2215 29.9998H87.8505ZM82.4528 24.4903V10.5711H84.6937V24.4903H82.4528ZM83.5732 7.85609C83.151 7.85609 82.791 7.70684 82.4925 7.40834C82.1933 7.10909 82.044 6.74909 82.044 6.32759C82.044 5.90534 82.1933 5.54534 82.4925 5.24609C82.791 4.94759 83.151 4.79834 83.5732 4.79834C83.9948 4.79834 84.3555 4.94759 84.654 5.24609C84.9525 5.54534 85.1018 5.90534 85.1018 6.32759C85.1018 6.74909 84.9525 7.10909 84.654 7.40834C84.3555 7.70684 83.9948 7.85609 83.5732 7.85609ZM72.7845 24.7536C71.5807 24.7536 70.5218 24.4506 69.6082 23.8438C68.703 23.2288 68.0002 22.3813 67.4993 21.3006C66.9983 20.2108 66.7478 18.9546 66.7478 17.5303C66.7478 16.0986 66.9983 14.8416 67.4993 13.7608C68.0002 12.6718 68.703 11.8236 69.6082 11.2176C70.5218 10.6108 71.5807 10.3078 72.7845 10.3078C73.6898 10.3078 74.529 10.5013 75.3022 10.8876C76.0755 11.2656 76.686 11.8453 77.1345 12.6276H77.1608V4.85084H79.401V24.4903H77.2132V22.3813H77.187C76.686 23.1808 76.0537 23.7778 75.2887 24.1738C74.5245 24.5601 73.6898 24.7536 72.7845 24.7536ZM73.1273 22.7368C74.4195 22.7368 75.4432 22.2628 76.1985 21.3133C76.9627 20.3646 77.3452 19.1038 77.3452 17.5303C77.3452 15.9576 76.9627 14.6968 76.1985 13.7481C75.4432 12.7903 74.4195 12.3111 73.1273 12.3111C71.9235 12.3111 70.935 12.7551 70.1618 13.6423C69.3975 14.5303 69.015 15.8263 69.015 17.5303C69.015 19.2351 69.3975 20.5311 70.1618 21.4191C70.935 22.2973 71.9235 22.7368 73.1273 22.7368ZM58.0028 24.7011C56.6227 24.7011 55.4678 24.3448 54.5363 23.6331C53.6138 22.9213 53.1517 21.8713 53.1517 20.4831C53.1517 19.6836 53.3055 19.0333 53.6138 18.5323C53.9295 18.0313 54.3472 17.6406 54.8655 17.3593C55.3927 17.0691 55.986 16.8493 56.6453 16.7001C57.3202 16.5493 58.002 16.4308 58.6882 16.3446C59.5755 16.2216 60.2738 16.1293 60.7838 16.0678C61.293 16.0063 61.6537 15.9051 61.8645 15.7648C62.0842 15.6238 62.1937 15.3778 62.1937 15.0261V14.8948C62.1937 14.1388 61.9215 13.5148 61.377 13.0228C60.8407 12.5308 60.0855 12.2848 59.1097 12.2848C58.143 12.2848 57.348 12.5218 56.724 12.9966C56.109 13.4623 55.7752 14.0421 55.722 14.7366H53.442C53.4862 13.8838 53.7495 13.1286 54.2332 12.4693C54.7163 11.8018 55.3755 11.2746 56.2103 10.8876C57.045 10.5013 58.011 10.3078 59.1097 10.3078C60.735 10.3078 62.0228 10.7293 62.9715 11.5731C63.9293 12.4078 64.4085 13.5148 64.4085 14.8948V24.4903H62.1937V22.5126H62.1413C61.974 22.8471 61.728 23.1853 61.4032 23.5281C61.0778 23.8618 60.639 24.1431 60.0855 24.3711C59.5403 24.5908 58.8465 24.7011 58.0028 24.7011ZM58.3185 22.6971C59.2327 22.6971 59.9753 22.5351 60.5467 22.2096C61.1175 21.8758 61.5352 21.4453 61.7985 20.9181C62.0617 20.3908 62.1937 19.8238 62.1937 19.2178V17.4778C62.0273 17.6361 61.5833 17.7808 60.8625 17.9128C60.1418 18.0358 59.382 18.1543 58.5825 18.2691C58.0463 18.3388 57.537 18.4618 57.0532 18.6381C56.5792 18.8046 56.1922 19.0468 55.8937 19.3626C55.5952 19.6701 55.4452 20.0878 55.4452 20.6151C55.4452 21.2653 55.7003 21.7746 56.2103 22.1436C56.7285 22.5126 57.4312 22.6971 58.3185 22.6971ZM37.5 24.4903V4.85084H44.7892C46.836 4.85084 48.4575 5.38709 49.6522 6.45884C50.856 7.52234 51.4583 8.97209 51.4583 10.8088C51.4583 12.2053 51.0802 13.3873 50.325 14.3541C49.578 15.3208 48.5632 16.0018 47.28 16.3971L51.6952 24.4903H48.9278L44.7892 16.7796H39.8723V24.4903H37.5ZM39.8723 14.6706H44.736C46.098 14.6706 47.166 14.3278 47.9392 13.6423C48.7207 12.9478 49.1122 12.0036 49.1122 10.8088C49.1122 9.61334 48.7163 8.67359 47.9257 7.98809C47.1435 7.30259 46.0717 6.95984 44.7098 6.95984H39.8723V14.6706Z" fill="black"/>
</g>
</g>
</mask>
<g mask="url(#mask0_319_279)">
<rect x="0.00976562" width="117" height="30" fill="#A4A7AE"/>
</g>
<defs>
<clipPath id="clip0_319_279">
<rect width="117" height="30" fill="white" transform="translate(0.00976562)"/>
</clipPath>
<clipPath id="clip1_319_279">
<rect width="117" height="30" fill="white" transform="translate(0.00976562)"/>
</clipPath>
</defs>
</svg>
