<svg width="506" height="419" viewBox="0 0 506 419" fill="none" xmlns="http://www.w3.org/2000/svg">
<g clip-path="url(#clip0_319_977)">
<g clip-path="url(#clip1_319_977)">
<g filter="url(#filter0_d_319_977)">
<path d="M127.145 17.1367C127.145 7.80045 134.713 0.231934 144.049 0.231934H504.917V50.9462C504.917 60.2825 497.348 67.851 488.012 67.851H144.049C134.713 67.851 127.145 60.2825 127.145 50.9462V17.1367Z" fill="#D1E9FF"/>
<path d="M150.47 22.7609C149.502 22.7609 148.931 23.512 148.931 24.776C148.931 26.0327 149.509 26.7983 150.455 26.7983C151.445 26.7983 152.08 26.011 152.08 24.776C152.08 23.5409 151.452 22.7609 150.47 22.7609ZM150.722 18.7163C154.081 18.7163 156.515 20.8469 156.515 24.032C156.515 26.3432 155.489 27.8816 153.799 27.8816C152.976 27.8816 152.268 27.3905 152.181 26.6683H152.124C151.813 27.3977 151.141 27.8166 150.289 27.8166C148.787 27.8166 147.776 26.5816 147.776 24.7471C147.776 22.992 148.808 21.7642 150.289 21.7642C151.062 21.7642 151.762 22.1686 152.037 22.7826H152.095V21.9014H153.185V26.141C153.185 26.6105 153.445 26.9427 154.001 26.9427C154.861 26.9427 155.496 25.8882 155.496 24.0176C155.496 21.3958 153.503 19.6263 150.629 19.6263C147.819 19.6263 145.775 21.7642 145.775 24.7832C145.775 28.055 147.956 29.8534 150.86 29.8534C151.827 29.8534 152.81 29.7161 153.279 29.5067V30.4167C152.644 30.6406 151.777 30.7706 150.845 30.7706C147.321 30.7706 144.757 28.6255 144.757 24.7398C144.757 21.1358 147.212 18.7163 150.722 18.7163ZM164.777 29.0806L163.73 26.0977H159.584L158.537 29.0806H157.172L161.014 18.6585H162.3L166.142 29.0806H164.777ZM161.636 20.2402L159.967 24.9926H163.347L161.679 20.2402H161.636ZM170.786 21.4392C172.7 21.4392 174.001 22.9703 174.001 25.3249C174.001 27.6794 172.708 29.2106 170.815 29.2106C169.739 29.2106 168.873 28.6833 168.425 27.86H168.396V31.5868H167.139V21.5692H168.331V22.8403H168.36C168.822 21.9953 169.696 21.4392 170.786 21.4392ZM170.541 28.1055C171.877 28.1055 172.715 27.0294 172.715 25.3249C172.715 23.6276 171.877 22.5442 170.541 22.5442C169.255 22.5442 168.389 23.6565 168.389 25.3249C168.389 27.0005 169.255 28.1055 170.541 28.1055ZM178.919 21.4392C180.833 21.4392 182.133 22.9703 182.133 25.3249C182.133 27.6794 180.84 29.2106 178.948 29.2106C177.872 29.2106 177.005 28.6833 176.557 27.86H176.528V31.5868H175.272V21.5692H176.463V22.8403H176.492C176.955 21.9953 177.828 21.4392 178.919 21.4392ZM178.673 28.1055C180.01 28.1055 180.847 27.0294 180.847 25.3249C180.847 23.6276 180.01 22.5442 178.673 22.5442C177.388 22.5442 176.521 23.6565 176.521 25.3249C176.521 27.0005 177.388 28.1055 178.673 28.1055ZM183.469 29.0806V18.6585H184.726V29.0806H183.469ZM189.435 22.5298C188.258 22.5298 187.434 23.4326 187.355 24.6821H191.436C191.407 23.4254 190.619 22.5298 189.435 22.5298ZM191.407 26.9283H192.642C192.425 28.2428 191.154 29.2106 189.514 29.2106C187.362 29.2106 186.055 27.7155 186.055 25.3538C186.055 23.0209 187.384 21.4392 189.457 21.4392C191.486 21.4392 192.736 22.9126 192.736 25.1876V25.6643H187.348V25.7366C187.348 27.1738 188.193 28.12 189.543 28.12C190.497 28.12 191.197 27.6361 191.407 26.9283ZM204.01 29.0806L202.963 26.0977H198.817L197.77 29.0806H196.405L200.247 18.6585H201.533L205.375 29.0806H204.01ZM200.868 20.2402L199.2 24.9926H202.58L200.912 20.2402H200.868ZM207.867 29.0806H206.567V18.6585H207.867V29.0806ZM218.968 24.032H217.74C217.559 23.2159 216.924 22.5442 215.819 22.5442C214.519 22.5442 213.638 23.6204 213.638 25.3249C213.638 27.0727 214.533 28.1055 215.833 28.1055C216.859 28.1055 217.53 27.5638 217.747 26.661H218.982C218.787 28.1561 217.53 29.2106 215.826 29.2106C213.746 29.2106 212.359 27.7444 212.359 25.3249C212.359 22.9559 213.739 21.4392 215.812 21.4392C217.689 21.4392 218.809 22.6814 218.968 24.032ZM222.615 28.1416C223.8 28.1416 224.71 27.3111 224.71 26.2277V25.6138L222.702 25.7366C221.691 25.8016 221.113 26.2493 221.113 26.9572C221.113 27.6722 221.712 28.1416 222.615 28.1416ZM222.333 29.2106C220.838 29.2106 219.834 28.3078 219.834 26.9572C219.834 25.6715 220.824 24.8626 222.557 24.7615L224.71 24.6387V24.0104C224.71 23.0931 224.103 22.5442 223.063 22.5442C222.095 22.5442 221.488 22.9992 221.33 23.7359H220.116C220.203 22.4359 221.315 21.4392 223.092 21.4392C224.854 21.4392 225.966 22.3925 225.966 23.8876V29.0806H224.775V27.7877H224.746C224.298 28.6472 223.345 29.2106 222.333 29.2106ZM227.563 29.0806V21.5692H228.747V22.7681H228.776C229.195 21.9592 229.997 21.4392 231.159 21.4392C232.806 21.4392 233.759 22.5009 233.759 24.2054V29.0806H232.503V24.4293C232.503 23.2159 231.932 22.5514 230.777 22.5514C229.592 22.5514 228.819 23.3892 228.819 24.6604V29.0806H227.563ZM239.017 31.8901C238.866 31.8901 238.613 31.8757 238.476 31.8468V30.7923C238.613 30.8212 238.808 30.8284 238.967 30.8284C239.667 30.8284 240.057 30.489 240.346 29.615L240.52 29.0878L237.746 21.5692H239.09L241.17 27.8239H241.191L243.271 21.5692H244.593L241.639 29.6078C240.996 31.3629 240.375 31.8901 239.017 31.8901ZM248.486 29.2106C246.406 29.2106 245.005 27.7155 245.005 25.3249C245.005 22.927 246.406 21.4392 248.486 21.4392C250.559 21.4392 251.96 22.927 251.96 25.3249C251.96 27.7155 250.559 29.2106 248.486 29.2106ZM248.486 28.1055C249.815 28.1055 250.682 27.0944 250.682 25.3249C250.682 23.5554 249.815 22.5442 248.486 22.5442C247.157 22.5442 246.283 23.5554 246.283 25.3249C246.283 27.0944 247.157 28.1055 248.486 28.1055ZM259.399 21.5692V29.0806H258.208V27.86H258.179C257.731 28.7267 256.951 29.2106 255.795 29.2106C254.156 29.2106 253.195 28.1489 253.195 26.4444V21.5692H254.452V26.2205C254.452 27.4411 255.022 28.0983 256.185 28.0983C257.406 28.0983 258.143 27.2605 258.143 25.9821V21.5692H259.399ZM263.935 23.642C263.935 22.3564 265.083 21.4392 266.737 21.4392C268.29 21.4392 269.431 22.3636 269.489 23.6348H268.29C268.203 22.9126 267.618 22.4648 266.694 22.4648C265.777 22.4648 265.17 22.9198 265.17 23.577C265.17 24.097 265.567 24.4437 266.42 24.6604L267.582 24.9421C269.099 25.3249 269.648 25.8738 269.648 26.9788C269.648 28.2861 268.413 29.2106 266.658 29.2106C265.011 29.2106 263.863 28.315 263.733 26.986H264.989C265.127 27.7661 265.719 28.185 266.737 28.185C267.756 28.185 268.384 27.7516 268.384 27.0727C268.384 26.5382 268.073 26.2493 267.228 26.0255L265.907 25.686C264.585 25.3465 263.935 24.6676 263.935 23.642ZM277.123 21.5692V29.0806H275.932V27.86H275.903C275.455 28.7267 274.675 29.2106 273.519 29.2106C271.88 29.2106 270.919 28.1489 270.919 26.4444V21.5692H272.176V26.2205C272.176 27.4411 272.746 28.0983 273.909 28.0983C275.13 28.0983 275.867 27.2605 275.867 25.9821V21.5692H277.123ZM278.756 29.0806V21.5692H279.94V22.7681H279.969C280.323 21.9736 281.088 21.4392 282.1 21.4392C283.125 21.4392 283.884 21.9592 284.209 22.8692H284.237C284.656 21.9736 285.537 21.4392 286.592 21.4392C288.08 21.4392 289.04 22.407 289.04 23.8948V29.0806H287.784V24.1837C287.784 23.1581 287.213 22.5514 286.224 22.5514C285.227 22.5514 284.526 23.2881 284.526 24.3065V29.0806H283.27V24.0465C283.27 23.1437 282.663 22.5514 281.731 22.5514C280.735 22.5514 280.012 23.3315 280.012 24.3715V29.0806H278.756ZM290.644 29.0806V21.5692H291.828V22.7681H291.857C292.211 21.9736 292.977 21.4392 293.988 21.4392C295.013 21.4392 295.772 21.9592 296.097 22.8692H296.126C296.545 21.9736 297.426 21.4392 298.48 21.4392C299.968 21.4392 300.929 22.407 300.929 23.8948V29.0806H299.672V24.1837C299.672 23.1581 299.101 22.5514 298.112 22.5514C297.115 22.5514 296.415 23.2881 296.415 24.3065V29.0806H295.158V24.0465C295.158 23.1437 294.551 22.5514 293.619 22.5514C292.623 22.5514 291.9 23.3315 291.9 24.3715V29.0806H290.644ZM305.009 28.1416C306.194 28.1416 307.104 27.3111 307.104 26.2277V25.6138L305.096 25.7366C304.085 25.8016 303.507 26.2493 303.507 26.9572C303.507 27.6722 304.107 28.1416 305.009 28.1416ZM304.728 29.2106C303.233 29.2106 302.229 28.3078 302.229 26.9572C302.229 25.6715 303.218 24.8626 304.952 24.7615L307.104 24.6387V24.0104C307.104 23.0931 306.497 22.5442 305.457 22.5442C304.489 22.5442 303.883 22.9992 303.724 23.7359H302.51C302.597 22.4359 303.709 21.4392 305.486 21.4392C307.248 21.4392 308.361 22.3925 308.361 23.8876V29.0806H307.169V27.7877H307.14C306.692 28.6472 305.739 29.2106 304.728 29.2106ZM309.957 29.0806V21.5692H311.141V22.797H311.17C311.416 21.9664 312.109 21.4392 312.99 21.4392C313.207 21.4392 313.395 21.4753 313.496 21.4897V22.7103C313.395 22.6742 313.127 22.6381 312.824 22.6381C311.849 22.6381 311.213 23.3387 311.213 24.4004V29.0806H309.957ZM314.586 29.0806V21.5692H315.843V29.0806H314.586ZM315.215 20.3052C314.789 20.3052 314.435 19.9513 314.435 19.5252C314.435 19.0919 314.789 18.7452 315.215 18.7452C315.648 18.7452 316.002 19.0919 316.002 19.5252C316.002 19.9513 315.648 20.3052 315.215 20.3052ZM317.381 29.0806V28.185L321.542 22.6237V22.602H317.389V21.5692H322.964V22.4864L318.833 28.0261V28.0477H322.986V29.0806H317.381ZM327.182 22.5298C326.005 22.5298 325.182 23.4326 325.102 24.6821H329.183C329.154 23.4254 328.367 22.5298 327.182 22.5298ZM329.154 26.9283H330.389C330.172 28.2428 328.901 29.2106 327.262 29.2106C325.11 29.2106 323.802 27.7155 323.802 25.3538C323.802 23.0209 325.131 21.4392 327.204 21.4392C329.234 21.4392 330.483 22.9126 330.483 25.1876V25.6643H325.095V25.7366C325.095 27.1738 325.94 28.12 327.291 28.12C328.244 28.12 328.945 27.6361 329.154 26.9283ZM335.192 19.7563H336.449V21.5692H337.908V22.602H336.449V27.0655C336.449 27.7516 336.738 28.0622 337.381 28.0622C337.525 28.0622 337.814 28.0405 337.901 28.0261V29.0806C337.749 29.1167 337.402 29.1383 337.106 29.1383C335.727 29.1383 335.192 28.575 335.192 27.1305V22.602H334.073V21.5692H335.192V19.7563ZM342.147 29.2106C340.067 29.2106 338.666 27.7155 338.666 25.3249C338.666 22.927 340.067 21.4392 342.147 21.4392C344.22 21.4392 345.621 22.927 345.621 25.3249C345.621 27.7155 344.22 29.2106 342.147 29.2106ZM342.147 28.1055C343.476 28.1055 344.343 27.0944 344.343 25.3249C344.343 23.5554 343.476 22.5442 342.147 22.5442C340.818 22.5442 339.945 23.5554 339.945 25.3249C339.945 27.0944 340.818 28.1055 342.147 28.1055ZM349.738 29.2106C347.824 29.2106 346.524 27.6794 346.524 25.3249C346.524 22.9703 347.817 21.4392 349.709 21.4392C350.785 21.4392 351.652 21.9664 352.1 22.7898H352.129V18.6585H353.386V29.0806H352.187V27.8094H352.165C351.681 28.6761 350.822 29.2106 349.738 29.2106ZM349.977 22.5442C348.648 22.5442 347.81 23.6276 347.81 25.3249C347.81 27.0294 348.648 28.1055 349.977 28.1055C351.269 28.1055 352.136 27.0077 352.136 25.3249C352.136 23.6493 351.269 22.5442 349.977 22.5442ZM357.56 28.1416C358.745 28.1416 359.655 27.3111 359.655 26.2277V25.6138L357.647 25.7366C356.636 25.8016 356.058 26.2493 356.058 26.9572C356.058 27.6722 356.657 28.1416 357.56 28.1416ZM357.279 29.2106C355.783 29.2106 354.78 28.3078 354.78 26.9572C354.78 25.6715 355.769 24.8626 357.502 24.7615L359.655 24.6387V24.0104C359.655 23.0931 359.048 22.5442 358.008 22.5442C357.04 22.5442 356.433 22.9992 356.275 23.7359H355.061C355.148 22.4359 356.26 21.4392 358.037 21.4392C359.799 21.4392 360.911 22.3925 360.911 23.8876V29.0806H359.72V27.7877H359.691C359.243 28.6472 358.29 29.2106 357.279 29.2106ZM363.129 31.8901C362.977 31.8901 362.724 31.8757 362.587 31.8468V30.7923C362.724 30.8212 362.919 30.8284 363.078 30.8284C363.779 30.8284 364.169 30.489 364.458 29.615L364.631 29.0878L361.858 21.5692H363.201L365.281 27.8239H365.303L367.383 21.5692H368.704L365.75 29.6078C365.108 31.3629 364.487 31.8901 363.129 31.8901ZM370.857 22.3348H369.81L370.51 18.6585H371.846L370.857 22.3348ZM372.374 23.642C372.374 22.3564 373.522 21.4392 375.176 21.4392C376.729 21.4392 377.87 22.3636 377.928 23.6348H376.729C376.642 22.9126 376.057 22.4648 375.133 22.4648C374.215 22.4648 373.609 22.9198 373.609 23.577C373.609 24.097 374.006 24.4437 374.858 24.6604L376.021 24.9421C377.538 25.3249 378.087 25.8738 378.087 26.9788C378.087 28.2861 376.851 29.2106 375.096 29.2106C373.45 29.2106 372.301 28.315 372.171 26.986H373.428C373.565 27.7661 374.157 28.185 375.176 28.185C376.194 28.185 376.823 27.7516 376.823 27.0727C376.823 26.5382 376.512 26.2493 375.667 26.0255L374.345 25.686C373.024 25.3465 372.374 24.6676 372.374 23.642ZM385.273 29.2106C383.359 29.2106 382.059 27.6794 382.059 25.3249C382.059 22.9703 383.352 21.4392 385.244 21.4392C386.32 21.4392 387.187 21.9664 387.635 22.7898H387.664V18.6585H388.92V29.0806H387.721V27.8094H387.7C387.216 28.6761 386.356 29.2106 385.273 29.2106ZM385.511 22.5442C384.182 22.5442 383.344 23.6276 383.344 25.3249C383.344 27.0294 384.182 28.1055 385.511 28.1055C386.804 28.1055 387.671 27.0077 387.671 25.3249C387.671 23.6493 386.804 22.5442 385.511 22.5442ZM390.683 29.0806V21.5692H391.939V29.0806H390.683ZM391.311 20.3052C390.885 20.3052 390.531 19.9513 390.531 19.5252C390.531 19.0919 390.885 18.7452 391.311 18.7452C391.744 18.7452 392.098 19.0919 392.098 19.5252C392.098 19.9513 391.744 20.3052 391.311 20.3052ZM393.507 23.642C393.507 22.3564 394.655 21.4392 396.309 21.4392C397.862 21.4392 399.003 22.3636 399.061 23.6348H397.862C397.775 22.9126 397.19 22.4648 396.266 22.4648C395.348 22.4648 394.742 22.9198 394.742 23.577C394.742 24.097 395.139 24.4437 395.991 24.6604L397.154 24.9421C398.671 25.3249 399.22 25.8738 399.22 26.9788C399.22 28.2861 397.984 29.2106 396.229 29.2106C394.583 29.2106 393.434 28.315 393.304 26.986H394.561C394.698 27.7661 395.29 28.185 396.309 28.185C397.327 28.185 397.956 27.7516 397.956 27.0727C397.956 26.5382 397.645 26.2493 396.8 26.0255L395.478 25.686C394.157 25.3465 393.507 24.6676 393.507 23.642ZM406.767 24.032H405.539C405.359 23.2159 404.723 22.5442 403.618 22.5442C402.318 22.5442 401.437 23.6204 401.437 25.3249C401.437 27.0727 402.332 28.1055 403.632 28.1055C404.658 28.1055 405.33 27.5638 405.546 26.661H406.781C406.586 28.1561 405.33 29.2106 403.625 29.2106C401.545 29.2106 400.158 27.7444 400.158 25.3249C400.158 22.9559 401.538 21.4392 403.611 21.4392C405.489 21.4392 406.608 22.6814 406.767 24.032ZM411.05 29.2106C408.97 29.2106 407.569 27.7155 407.569 25.3249C407.569 22.927 408.97 21.4392 411.05 21.4392C413.123 21.4392 414.524 22.927 414.524 25.3249C414.524 27.7155 413.123 29.2106 411.05 29.2106ZM411.05 28.1055C412.379 28.1055 413.246 27.0944 413.246 25.3249C413.246 23.5554 412.379 22.5442 411.05 22.5442C409.721 22.5442 408.847 23.5554 408.847 25.3249C408.847 27.0944 409.721 28.1055 411.05 28.1055ZM421.739 21.5692L418.98 29.0806H417.695L414.928 21.5692H416.25L418.323 27.7444H418.352L420.432 21.5692H421.739ZM425.524 22.5298C424.347 22.5298 423.523 23.4326 423.444 24.6821H427.524C427.496 23.4254 426.708 22.5298 425.524 22.5298ZM427.496 26.9283H428.731C428.514 28.2428 427.243 29.2106 425.603 29.2106C423.451 29.2106 422.144 27.7155 422.144 25.3538C422.144 23.0209 423.473 21.4392 425.546 21.4392C427.575 21.4392 428.825 22.9126 428.825 25.1876V25.6643H423.437V25.7366C423.437 27.1738 424.282 28.12 425.632 28.12C426.586 28.12 427.286 27.6361 427.496 26.9283ZM430.096 29.0806V21.5692H431.28V22.797H431.309C431.555 21.9664 432.248 21.4392 433.129 21.4392C433.346 21.4392 433.534 21.4753 433.635 21.4897V22.7103C433.534 22.6742 433.266 22.6381 432.963 22.6381C431.988 22.6381 431.352 23.3387 431.352 24.4004V29.0806H430.096ZM435.281 31.8901C435.13 31.8901 434.877 31.8757 434.74 31.8468V30.7923C434.877 30.8212 435.072 30.8284 435.231 30.8284C435.931 30.8284 436.321 30.489 436.61 29.615L436.784 29.0878L434.01 21.5692H435.354L437.434 27.8239H437.455L439.536 21.5692H440.857L437.903 29.6078C437.26 31.3629 436.639 31.8901 435.281 31.8901ZM451.128 24.032H449.9C449.719 23.2159 449.084 22.5442 447.979 22.5442C446.679 22.5442 445.797 23.6204 445.797 25.3249C445.797 27.0727 446.693 28.1055 447.993 28.1055C449.019 28.1055 449.69 27.5638 449.907 26.661H451.142C450.947 28.1561 449.69 29.2106 447.986 29.2106C445.906 29.2106 444.519 27.7444 444.519 25.3249C444.519 22.9559 445.899 21.4392 447.971 21.4392C449.849 21.4392 450.969 22.6814 451.128 24.032ZM454.775 28.1416C455.959 28.1416 456.869 27.3111 456.869 26.2277V25.6138L454.862 25.7366C453.85 25.8016 453.273 26.2493 453.273 26.9572C453.273 27.6722 453.872 28.1416 454.775 28.1416ZM454.493 29.2106C452.998 29.2106 451.994 28.3078 451.994 26.9572C451.994 25.6715 452.984 24.8626 454.717 24.7615L456.869 24.6387V24.0104C456.869 23.0931 456.263 22.5442 455.223 22.5442C454.255 22.5442 453.648 22.9992 453.489 23.7359H452.276C452.363 22.4359 453.475 21.4392 455.252 21.4392C457.014 21.4392 458.126 22.3925 458.126 23.8876V29.0806H456.934V27.7877H456.906C456.458 28.6472 455.504 29.2106 454.493 29.2106ZM459.787 29.0806V18.6585H461.044V29.0806H459.787ZM462.806 29.0806V18.6585H464.063V29.0806H462.806ZM154.42 42.5692L152.326 50.0806H151.047L149.35 44.2665H149.321L147.631 50.0806H146.353L144.251 42.5692H145.501L147.003 48.6794H147.032L148.729 42.5692H149.942L151.647 48.6794H151.676L153.178 42.5692H154.42ZM155.518 50.0806V42.5692H156.775V50.0806H155.518ZM156.147 41.3052C155.72 41.3052 155.366 40.9513 155.366 40.5252C155.366 40.0919 155.72 39.7452 156.147 39.7452C156.58 39.7452 156.934 40.0919 156.934 40.5252C156.934 40.9513 156.58 41.3052 156.147 41.3052ZM158.877 40.7563H160.133V42.5692H161.592V43.602H160.133V48.0655C160.133 48.7516 160.422 49.0622 161.065 49.0622C161.209 49.0622 161.498 49.0405 161.585 49.0261V50.0806C161.433 50.1167 161.087 50.1383 160.791 50.1383C159.411 50.1383 158.877 49.575 158.877 48.1305V43.602H157.757V42.5692H158.877V40.7563ZM163.001 50.0806V39.6585H164.257V43.7681H164.286C164.705 42.9303 165.529 42.4392 166.67 42.4392C168.316 42.4392 169.313 43.5514 169.313 45.2271V50.0806H168.056V45.4582C168.056 44.2665 167.457 43.5514 166.28 43.5514C165.03 43.5514 164.257 44.4037 164.257 45.7037V50.0806H163.001ZM174.614 39.6585H177.749V40.6408H175.828V51.3228H177.749V52.2979H174.614V39.6585ZM183.195 50.2539C180.32 50.2539 178.5 48.1666 178.5 44.8659C178.5 41.5941 180.342 39.4852 183.195 39.4852C185.463 39.4852 187.189 40.8647 187.521 42.9447H186.207C185.874 41.5797 184.683 40.6841 183.195 40.6841C181.158 40.6841 179.836 42.3308 179.836 44.8659C179.836 47.4227 181.144 49.055 183.202 49.055C184.733 49.055 185.831 48.3183 186.207 47.0471H187.521C187.044 49.1055 185.499 50.2539 183.195 50.2539ZM191.977 50.2106C189.897 50.2106 188.496 48.7155 188.496 46.3249C188.496 43.927 189.897 42.4392 191.977 42.4392C194.05 42.4392 195.451 43.927 195.451 46.3249C195.451 48.7155 194.05 50.2106 191.977 50.2106ZM191.977 49.1055C193.306 49.1055 194.173 48.0944 194.173 46.3249C194.173 44.5554 193.306 43.5442 191.977 43.5442C190.648 43.5442 189.774 44.5554 189.774 46.3249C189.774 48.0944 190.648 49.1055 191.977 49.1055ZM196.722 50.0806V42.5692H197.907V43.7681H197.936C198.29 42.9736 199.055 42.4392 200.066 42.4392C201.092 42.4392 201.85 42.9592 202.175 43.8692H202.204C202.623 42.9736 203.504 42.4392 204.559 42.4392C206.047 42.4392 207.007 43.407 207.007 44.8948V50.0806H205.751V45.1837C205.751 44.1581 205.18 43.5514 204.191 43.5514C203.194 43.5514 202.493 44.2881 202.493 45.3065V50.0806H201.237V45.0465C201.237 44.1437 200.63 43.5514 199.698 43.5514C198.701 43.5514 197.979 44.3315 197.979 45.3715V50.0806H196.722ZM212.258 42.4392C214.172 42.4392 215.472 43.9703 215.472 46.3249C215.472 48.6794 214.179 50.2106 212.287 50.2106C211.211 50.2106 210.344 49.6833 209.896 48.86H209.867V52.5868H208.611V42.5692H209.802V43.8403H209.831C210.294 42.9953 211.167 42.4392 212.258 42.4392ZM212.012 49.1055C213.349 49.1055 214.186 48.0294 214.186 46.3249C214.186 44.6276 213.349 43.5442 212.012 43.5442C210.727 43.5442 209.86 44.6565 209.86 46.3249C209.86 48.0005 210.727 49.1055 212.012 49.1055ZM219.221 49.1416C220.405 49.1416 221.315 48.3111 221.315 47.2277V46.6138L219.307 46.7366C218.296 46.8016 217.718 47.2493 217.718 47.9572C217.718 48.6722 218.318 49.1416 219.221 49.1416ZM218.939 50.2106C217.444 50.2106 216.44 49.3078 216.44 47.9572C216.44 46.6715 217.429 45.8626 219.163 45.7615L221.315 45.6387V45.0104C221.315 44.0931 220.708 43.5442 219.668 43.5442C218.701 43.5442 218.094 43.9992 217.935 44.7359H216.722C216.808 43.4359 217.92 42.4392 219.697 42.4392C221.46 42.4392 222.572 43.3925 222.572 44.8876V50.0806H221.38V48.7877H221.351C220.903 49.6472 219.95 50.2106 218.939 50.2106ZM224.168 50.0806V42.5692H225.352V43.7681H225.381C225.8 42.9592 226.602 42.4392 227.765 42.4392C229.411 42.4392 230.365 43.5009 230.365 45.2054V50.0806H229.108V45.4293C229.108 44.2159 228.538 43.5514 227.382 43.5514C226.197 43.5514 225.425 44.3892 225.425 45.6604V50.0806H224.168ZM232.589 52.8901C232.438 52.8901 232.185 52.8757 232.048 52.8468V51.7923C232.185 51.8212 232.38 51.8284 232.539 51.8284C233.239 51.8284 233.629 51.489 233.918 50.615L234.092 50.0878L231.318 42.5692H232.662L234.742 48.8239H234.763L236.843 42.5692H238.165L235.211 50.6078C234.568 52.3629 233.947 52.8901 232.589 52.8901ZM242.195 50.0806V42.5692H243.38V43.7681H243.409C243.828 42.9592 244.629 42.4392 245.792 42.4392C247.439 42.4392 248.392 43.5009 248.392 45.2054V50.0806H247.135V45.4293C247.135 44.2159 246.565 43.5514 245.409 43.5514C244.225 43.5514 243.452 44.3892 243.452 45.6604V50.0806H242.195ZM252.473 49.1416C253.657 49.1416 254.567 48.3111 254.567 47.2277V46.6138L252.56 46.7366C251.548 46.8016 250.971 47.2493 250.971 47.9572C250.971 48.6722 251.57 49.1416 252.473 49.1416ZM252.191 50.2106C250.696 50.2106 249.692 49.3078 249.692 47.9572C249.692 46.6715 250.682 45.8626 252.415 45.7615L254.567 45.6387V45.0104C254.567 44.0931 253.961 43.5442 252.921 43.5442C251.953 43.5442 251.346 43.9992 251.187 44.7359H249.974C250.061 43.4359 251.173 42.4392 252.95 42.4392C254.712 42.4392 255.824 43.3925 255.824 44.8876V50.0806H254.632V48.7877H254.604C254.156 49.6472 253.202 50.2106 252.191 50.2106ZM257.42 50.0806V42.5692H258.605V43.7681H258.634C258.988 42.9736 259.753 42.4392 260.764 42.4392C261.79 42.4392 262.548 42.9592 262.873 43.8692H262.902C263.321 42.9736 264.202 42.4392 265.257 42.4392C266.745 42.4392 267.705 43.407 267.705 44.8948V50.0806H266.448V45.1837C266.448 44.1581 265.878 43.5514 264.888 43.5514C263.892 43.5514 263.191 44.2881 263.191 45.3065V50.0806H261.934V45.0465C261.934 44.1437 261.328 43.5514 260.396 43.5514C259.399 43.5514 258.677 44.3315 258.677 45.3715V50.0806H257.42ZM272.32 43.5298C271.143 43.5298 270.32 44.4326 270.24 45.6821H274.321C274.292 44.4254 273.505 43.5298 272.32 43.5298ZM274.292 47.9283H275.527C275.31 49.2428 274.039 50.2106 272.4 50.2106C270.247 50.2106 268.94 48.7155 268.94 46.3538C268.94 44.0209 270.269 42.4392 272.342 42.4392C274.372 42.4392 275.621 43.9126 275.621 46.1876V46.6643H270.233V46.7366C270.233 48.1738 271.078 49.12 272.429 49.12C273.382 49.12 274.083 48.6361 274.292 47.9283ZM279.355 39.6585V52.2979H276.22V51.3228H278.142V40.6408H276.22V39.6585H279.355ZM281.247 42.3814C281.327 40.8213 282.367 39.5791 284.396 39.5791C286.216 39.5791 287.459 40.7058 287.459 42.1936C287.459 43.3275 286.874 44.1292 285.949 44.6854C285.032 45.2271 284.772 45.6315 284.772 46.3899V46.8593H283.508V46.1949C283.501 45.2415 283.963 44.5915 284.952 43.9992C285.79 43.4864 286.115 43.0314 286.115 42.2586C286.115 41.363 285.422 40.7058 284.346 40.7058C283.255 40.7058 282.562 41.3486 282.482 42.3814H281.247ZM284.144 50.1528C283.681 50.1528 283.32 49.7917 283.32 49.3294C283.32 48.86 283.681 48.5061 284.144 48.5061C284.613 48.5061 284.967 48.86 284.967 49.3294C284.967 49.7917 284.613 50.1528 284.144 50.1528Z" fill="#1D1D1F"/>
</g>
</g>
</g>
<defs>
<filter id="filter0_d_319_977" x="125.031" y="-1.88116" width="381.998" height="71.8453" filterUnits="userSpaceOnUse" color-interpolation-filters="sRGB">
<feFlood flood-opacity="0" result="BackgroundImageFix"/>
<feColorMatrix in="SourceAlpha" type="matrix" values="0 0 0 0 0 0 0 0 0 0 0 0 0 0 0 0 0 0 127 0" result="hardAlpha"/>
<feMorphology radius="1.05655" operator="dilate" in="SourceAlpha" result="effect1_dropShadow_319_977"/>
<feOffset/>
<feGaussianBlur stdDeviation="0.528274"/>
<feComposite in2="hardAlpha" operator="out"/>
<feColorMatrix type="matrix" values="0 0 0 0 0 0 0 0 0 0 0 0 0 0 0 0 0 0 0.05 0"/>
<feBlend mode="normal" in2="BackgroundImageFix" result="effect1_dropShadow_319_977"/>
<feBlend mode="normal" in="SourceGraphic" in2="effect1_dropShadow_319_977" result="shape"/>
</filter>
<clipPath id="clip0_319_977">
<rect width="504.174" height="418.393" fill="white" transform="translate(0.886719 0.231934)"/>
</clipPath>
<clipPath id="clip1_319_977">
<rect width="504.03" height="67.619" fill="white" transform="translate(0.886719 0.231934)"/>
</clipPath>
</defs>
</svg>
