<svg width="26" height="26" viewBox="0 0 26 26" fill="none" xmlns="http://www.w3.org/2000/svg">
<g clip-path="url(#clip0_319_356)">
<path d="M13.8783 22.4464C12.9217 23.1101 11.3845 22.7551 11.0517 21.3795C10.9147 20.814 10.516 20.3481 9.97905 20.1256C9.44148 19.9031 8.82974 19.9506 8.33337 20.253C6.70291 21.2463 4.83599 19.3807 5.82936 17.749C6.13174 17.2526 6.17928 16.6421 5.95677 16.1046C5.73427 15.5676 5.26896 15.1689 4.70413 15.0319C2.84862 14.5819 2.84862 11.9422 4.70413 11.4921C5.2696 11.3552 5.73553 10.9564 5.95804 10.4195C6.18055 9.88191 6.13301 9.27017 5.83062 8.7738C4.83726 7.14334 6.70291 5.27642 8.33464 6.26978C9.39077 6.91195 10.7601 6.34395 11.0517 5.14456C11.5017 3.28905 14.1414 3.28905 14.5915 5.14456C14.7284 5.71003 15.1272 6.17596 15.6641 6.39847C16.2017 6.62098 16.8134 6.57344 17.3098 6.27105C18.9403 5.27769 20.8072 7.14334 19.8138 8.77507C19.5114 9.27144 19.4639 9.88191 19.6864 10.4195C19.9089 10.9564 20.3742 11.3552 20.939 11.4921C22.5156 11.875 22.7521 13.837 21.6509 14.6934" stroke="#A6CE39" stroke-width="1.58482" stroke-linecap="round" stroke-linejoin="round"/>
<path d="M9.65234 13.2619C9.65234 15.0122 11.0717 16.4316 12.822 16.4316C14.5723 16.4316 15.9916 15.0122 15.9916 13.2619C15.9916 11.5117 14.5723 10.0923 12.822 10.0923C11.0717 10.0923 9.65234 11.5117 9.65234 13.2619ZM18.1045 23.8276L23.3877 20.658L18.1045 17.4883V23.8276Z" stroke="#A6CE39" stroke-width="1.58482" stroke-linecap="round" stroke-linejoin="round"/>
</g>
<defs>
<clipPath id="clip0_319_356">
<rect width="25.3571" height="25.3571" fill="white" transform="translate(0.142578 0.583008)"/>
</clipPath>
</defs>
</svg>
