<svg width="138" height="30" viewBox="0 0 138 30" fill="none" xmlns="http://www.w3.org/2000/svg">
<mask id="mask0_319_267" style="mask-type:alpha" maskUnits="userSpaceOnUse" x="0" y="0" width="139" height="30">
<g clip-path="url(#clip0_319_267)">
<g clip-path="url(#clip1_319_267)">
<path d="M2.51327 26.9908C5.16002 31.3851 11.5298 31.4923 14.1728 27.0891C15.0098 25.6948 15.48 24.1116 15.54 22.4863L15.6248 20.2348C15.6248 20.2348 11.6085 23.8993 9.95327 23.6743C9.39377 23.5986 9.81977 22.5621 10.0215 22.0491C10.7895 20.1156 15.456 15.3598 15.456 15.3598C15.456 15.3598 15.8265 8.62258 16.4858 6.77533C16.827 5.81983 17.2223 5.38183 17.5845 5.20783C17.946 5.38333 18.342 5.81983 18.6825 6.77533C19.3418 8.62258 19.713 15.3598 19.713 15.3598C19.713 15.3598 24.3788 20.1051 25.1468 22.0491C25.3493 22.5621 25.7745 23.5986 25.2158 23.6743C23.5583 23.8993 19.5443 20.2348 19.5443 20.2348L19.6283 22.4863C19.692 24.2031 20.2133 25.8718 21.138 27.3193C23.7923 31.4713 29.952 31.3618 32.5448 27.1738C34.2353 24.4423 35.1398 21.2976 35.16 18.0853C35.232 8.54533 27.546 0.602832 18.006 0.380082C11.601 0.226332 5.61977 3.57058 2.39627 9.10783C-0.827232 14.6443 -0.782232 21.4971 2.51327 26.9908Z" fill="black"/>
<path d="M2.51327 26.9908C5.16002 31.3851 11.5298 31.4923 14.1728 27.0891C15.0098 25.6948 15.48 24.1116 15.54 22.4863L15.6248 20.2348C15.6248 20.2348 11.6085 23.8993 9.95327 23.6743C9.39377 23.5986 9.81977 22.5621 10.0215 22.0491C10.7895 20.1156 15.456 15.3598 15.456 15.3598C15.456 15.3598 15.8265 8.62258 16.4858 6.77533C16.827 5.81983 17.2223 5.38183 17.5845 5.20783C17.946 5.38333 18.342 5.81983 18.6825 6.77533C19.3418 8.62258 19.713 15.3598 19.713 15.3598C19.713 15.3598 24.3788 20.1051 25.1468 22.0491C25.3493 22.5621 25.7745 23.5986 25.2158 23.6743C23.5583 23.8993 19.5443 20.2348 19.5443 20.2348L19.6283 22.4863C19.692 24.2031 20.2133 25.8718 21.138 27.3193C23.7923 31.4713 29.952 31.3618 32.5448 27.1738C34.2353 24.4423 35.1398 21.2976 35.16 18.0853C35.232 8.54533 27.546 0.602832 18.006 0.380082C11.601 0.226332 5.61977 3.57058 2.39627 9.10783C-0.827232 14.6443 -0.782232 21.4971 2.51327 26.9908Z" fill="black"/>
<path d="M50.895 13.1316H55.2645V8.33684H50.895V2.92334L45.9067 4.43159V8.33684H42.543V13.1316H45.9067V21.1738C45.9067 26.3938 48.2655 28.4428 55.2645 27.6696V23.1456C52.4032 23.3001 50.895 23.2618 50.895 21.1738V13.1316Z" fill="black"/>
<path d="M83.8206 21.8025L87.8421 24.123C86.0249 26.7517 83.1246 28.26 79.4129 28.26C72.9171 28.26 68.8184 23.8132 68.8184 18.0525C68.8184 12.291 72.9554 7.84424 79.0266 7.84424C84.7491 7.84424 88.8089 12.3682 88.8089 18.0525C88.8089 18.7867 88.7316 19.4437 88.6154 20.1015H74.0384C74.7344 22.6537 76.8606 23.736 79.4901 23.736C81.4236 23.736 82.9701 22.9237 83.8206 21.8025ZM79.0259 12.3292C76.3581 12.3292 74.5409 13.7602 73.9611 16.2345H83.8206C83.2019 13.4505 81.1139 12.3292 79.0259 12.3292ZM128.758 27.7185H123.771V25.437C122.379 27.177 120.291 28.26 117.468 28.26C112.326 28.26 108.073 23.8132 108.073 18.0525C108.073 12.291 112.326 7.84424 117.468 7.84424C120.291 7.84424 122.379 8.92724 123.771 10.6672V8.38574H128.758V27.7185ZM118.396 12.6C115.342 12.6 113.06 14.8042 113.06 18.0525C113.06 21.3 115.342 23.5042 118.396 23.5042C121.489 23.5042 123.771 21.3 123.771 18.0525C123.771 14.8042 121.489 12.6 118.396 12.6Z" fill="black"/>
<path d="M131.738 24.9563C131.738 26.7735 133.208 28.2428 135.025 28.2428C136.842 28.2428 138.311 26.7735 138.311 24.9563C138.311 23.139 136.842 21.6698 135.025 21.6698C133.208 21.6698 131.738 23.139 131.738 24.9563ZM103.1 8.40751H108.59L101.244 27.7403H95.5599L88.2136 8.40751H93.7044L98.3829 21.9405L103.1 8.40751ZM62.9101 11.7323C63.9151 9.10351 66.3511 8.02051 68.7871 8.02051V13.5885C66.1966 13.2788 62.9101 14.439 62.9101 18.4988V27.7403H57.9219V8.40751H62.9101V11.7323Z" fill="black"/>
</g>
</g>
</mask>
<g mask="url(#mask0_319_267)">
<rect x="0.00976562" width="138" height="30" fill="#A4A7AE"/>
</g>
<defs>
<clipPath id="clip0_319_267">
<rect width="138" height="30" fill="white" transform="translate(0.00976562)"/>
</clipPath>
<clipPath id="clip1_319_267">
<rect width="138" height="30" fill="white" transform="translate(0.00976562)"/>
</clipPath>
</defs>
</svg>
