<svg width="23" height="22" viewBox="0 0 23 22" fill="none" xmlns="http://www.w3.org/2000/svg">
<path d="M13.3306 8.00007V3.00007C13.3305 2.80217 13.389 2.60868 13.4989 2.44409C13.6088 2.27949 13.765 2.1512 13.9478 2.07545C14.1307 1.99969 14.3319 1.97989 14.5259 2.01854C14.72 2.05719 14.8983 2.15256 15.0381 2.29257L16.8306 4.08632L20.6231 0.292568C20.8108 0.104927 21.0653 -0.000488286 21.3306 -0.000488281C21.596 -0.000488276 21.8505 0.104927 22.0381 0.292568C22.2258 0.480208 22.3312 0.734704 22.3312 1.00007C22.3312 1.26543 22.2258 1.51993 22.0381 1.70757L18.2444 5.50007L20.0381 7.29257C20.1781 7.43242 20.2735 7.61068 20.3122 7.80476C20.3508 7.99885 20.331 8.20004 20.2553 8.38286C20.1795 8.56568 20.0512 8.72192 19.8866 8.83179C19.722 8.94166 19.5285 9.00022 19.3306 9.00007H14.3306C14.0654 9.00007 13.8111 8.89471 13.6235 8.70717C13.436 8.51964 13.3306 8.26528 13.3306 8.00007ZM8.33063 13.0001H3.33063C3.13274 12.9999 2.93925 13.0585 2.77465 13.1683C2.61006 13.2782 2.48176 13.4345 2.40601 13.6173C2.33026 13.8001 2.31045 14.0013 2.3491 14.1954C2.38776 14.3895 2.48312 14.5677 2.62313 14.7076L4.41688 16.5001L0.623134 20.2926C0.435493 20.4802 0.330078 20.7347 0.330078 21.0001C0.330078 21.2654 0.435493 21.5199 0.623134 21.7076C0.810775 21.8952 1.06527 22.0006 1.33063 22.0006C1.596 22.0006 1.85049 21.8952 2.03813 21.7076L5.83063 17.9138L7.62313 19.7076C7.76299 19.8476 7.94124 19.9429 8.13533 19.9816C8.32941 20.0202 8.5306 20.0004 8.71342 19.9247C8.89625 19.8489 9.05248 19.7206 9.16235 19.556C9.27223 19.3915 9.33079 19.198 9.33063 19.0001V14.0001C9.33063 13.7349 9.22528 13.4805 9.03774 13.293C8.8502 13.1054 8.59585 13.0001 8.33063 13.0001ZM8.71313 2.07632C8.53043 2.00052 8.32935 1.98061 8.13533 2.0191C7.94131 2.05759 7.76306 2.15276 7.62313 2.29257L5.83063 4.08632L2.03813 0.292568C1.85049 0.104927 1.596 -0.000488283 1.33063 -0.000488281C1.06527 -0.000488279 0.810775 0.104927 0.623134 0.292568C0.435493 0.480208 0.330078 0.734704 0.330078 1.00007C0.330078 1.26543 0.435493 1.51993 0.623134 1.70757L4.41688 5.50007L2.62313 7.29257C2.48312 7.43242 2.38776 7.61068 2.3491 7.80476C2.31045 7.99885 2.33026 8.20004 2.40601 8.38286C2.48176 8.56568 2.61006 8.72192 2.77465 8.83179C2.93925 8.94166 3.13274 9.00022 3.33063 9.00007H8.33063C8.59585 9.00007 8.8502 8.89471 9.03774 8.70717C9.22528 8.51964 9.33063 8.26528 9.33063 8.00007V3.00007C9.33059 2.80229 9.2719 2.60896 9.16199 2.44453C9.05208 2.28011 8.89587 2.15197 8.71313 2.07632ZM18.2444 16.5001L20.0381 14.7076C20.1781 14.5677 20.2735 14.3895 20.3122 14.1954C20.3508 14.0013 20.331 13.8001 20.2553 13.6173C20.1795 13.4345 20.0512 13.2782 19.8866 13.1683C19.722 13.0585 19.5285 12.9999 19.3306 13.0001H14.3306C14.0654 13.0001 13.8111 13.1054 13.6235 13.293C13.436 13.4805 13.3306 13.7349 13.3306 14.0001V19.0001C13.3305 19.198 13.389 19.3915 13.4989 19.556C13.6088 19.7206 13.765 19.8489 13.9478 19.9247C14.1307 20.0004 14.3319 20.0202 14.5259 19.9816C14.72 19.9429 14.8983 19.8476 15.0381 19.7076L16.8306 17.9138L20.6231 21.7076C20.716 21.8005 20.8263 21.8742 20.9477 21.9245C21.0691 21.9747 21.1992 22.0006 21.3306 22.0006C21.462 22.0006 21.5921 21.9747 21.7135 21.9245C21.8349 21.8742 21.9452 21.8005 22.0381 21.7076C22.131 21.6147 22.2047 21.5044 22.255 21.383C22.3053 21.2616 22.3312 21.1315 22.3312 21.0001C22.3312 20.8687 22.3053 20.7386 22.255 20.6172C22.2047 20.4958 22.131 20.3855 22.0381 20.2926L18.2444 16.5001Z" fill="#A6CE39"/>
</svg>
