<svg width="41" height="40" viewBox="0 0 41 40" fill="none" xmlns="http://www.w3.org/2000/svg">
<path d="M20.5 0C31.5457 0 40.5 8.95431 40.5 20C40.5 31.0457 31.5457 40 20.5 40C9.45431 40 0.5 31.0457 0.5 20C0.5 8.95431 9.45431 0 20.5 0Z" fill="#EAB308"/>
<path d="M20.5 0C31.5457 0 40.5 8.95431 40.5 20C40.5 31.0457 31.5457 40 20.5 40C9.45431 40 0.5 31.0457 0.5 20C0.5 8.95431 9.45431 0 20.5 0Z" stroke="#E5E7EB"/>
<path d="M34.5 37H7.5V5H34.5V37Z" stroke="#E5E7EB"/>
<g clip-path="url(#clip0_224_4416)">
<path d="M21.9844 12.9688C22.5188 12.6406 22.875 12.0453 22.875 11.375C22.875 10.3391 22.0359 9.5 21 9.5C19.9641 9.5 19.125 10.3391 19.125 11.375C19.125 12.05 19.4812 12.6406 20.0156 12.9688L17.3297 18.3406C16.9031 19.1938 15.7969 19.4375 15.0516 18.8422L10.875 15.5C11.1094 15.1859 11.25 14.7969 11.25 14.375C11.25 13.3391 10.4109 12.5 9.375 12.5C8.33906 12.5 7.5 13.3391 7.5 14.375C7.5 15.4109 8.33906 16.25 9.375 16.25C9.38437 16.25 9.39844 16.25 9.40781 16.25L11.55 28.0344C11.8078 29.4594 13.05 30.5 14.5031 30.5H27.4969C28.9453 30.5 30.1875 29.4641 30.45 28.0344L32.5922 16.25C32.6016 16.25 32.6156 16.25 32.625 16.25C33.6609 16.25 34.5 15.4109 34.5 14.375C34.5 13.3391 33.6609 12.5 32.625 12.5C31.5891 12.5 30.75 13.3391 30.75 14.375C30.75 14.7969 30.8906 15.1859 31.125 15.5L26.9484 18.8422C26.2031 19.4375 25.0969 19.1938 24.6703 18.3406L21.9844 12.9688Z" fill="white"/>
</g>
<defs>
<clipPath id="clip0_224_4416">
<path d="M7.5 8H34.5V32H7.5V8Z" fill="white"/>
</clipPath>
</defs>
</svg>
