<svg width="26" height="25" viewBox="0 0 26 25" fill="none" xmlns="http://www.w3.org/2000/svg">
<path d="M10.4019 19.8925C9.83814 21.125 7.95689 24 2.67064 24C2.40543 24 2.15107 23.8946 1.96354 23.7071C1.776 23.5195 1.67064 23.2652 1.67064 23C1.67064 17.7137 4.54564 15.8325 5.77814 15.2687C5.89765 15.2142 6.02671 15.1838 6.15798 15.1792C6.28924 15.1745 6.42012 15.1958 6.54316 15.2418C6.6662 15.2878 6.77898 15.3575 6.87506 15.4471C6.97114 15.5366 7.04864 15.6442 7.10314 15.7637C7.15764 15.8832 7.18807 16.0123 7.19269 16.1435C7.19731 16.2748 7.17602 16.4057 7.13006 16.5287C7.08409 16.6518 7.01435 16.7645 6.9248 16.8606C6.83524 16.9567 6.72765 17.0342 6.60814 17.0887C5.80439 17.455 4.03064 18.6337 3.71814 21.9525C7.03689 21.64 8.21814 19.8662 8.58189 19.0625C8.63639 18.943 8.71389 18.8354 8.80998 18.7458C8.90606 18.6563 9.01884 18.5865 9.14188 18.5405C9.26491 18.4946 9.3958 18.4733 9.52706 18.4779C9.65832 18.4825 9.78739 18.513 9.90689 18.5675C10.0264 18.622 10.134 18.6995 10.2235 18.7955C10.3131 18.8916 10.3828 19.0044 10.4288 19.1274C10.4748 19.2505 10.4961 19.3814 10.4914 19.5126C10.4868 19.6439 10.4564 19.773 10.4019 19.8925ZM25.6519 1.89245C25.6223 1.40486 25.4152 0.944973 25.0698 0.599558C24.7244 0.254142 24.2645 0.0470852 23.7769 0.017454C22.2044 -0.076296 18.1856 0.0674539 14.8519 3.4012L8.67064 9.58745C8.57781 9.68045 8.46758 9.75424 8.34623 9.80463C8.22488 9.85502 8.0948 9.88102 7.9634 9.88113C7.69804 9.88137 7.44345 9.77618 7.25564 9.5887C7.06784 9.40123 6.9622 9.14683 6.96196 8.88146C6.96173 8.6161 7.06692 8.36151 7.25439 8.1737L10.5744 4.85245C10.6439 4.78254 10.6912 4.69363 10.7103 4.59692C10.7294 4.50021 10.7195 4.4 10.6819 4.30889C10.6442 4.21779 10.5804 4.13985 10.4986 4.08489C10.4167 4.02992 10.3205 4.00037 10.2219 3.99995H6.96439C6.70094 3.99857 6.43984 4.04957 6.19628 4.15C5.95272 4.25043 5.73155 4.39828 5.54564 4.58495L1.25814 8.87495C0.995203 9.13772 0.810696 9.46856 0.725329 9.83035C0.639961 10.1921 0.657113 10.5706 0.774858 10.9232C0.892603 11.2757 1.10628 11.5885 1.39191 11.8264C1.67755 12.0643 2.02383 12.2179 2.39189 12.27L7.20064 12.9412L12.7269 18.4675L13.3981 23.2787C13.4498 23.6468 13.6033 23.9931 13.8414 24.2785C14.0796 24.5639 14.3928 24.777 14.7456 24.8937C14.9512 24.9624 15.1664 24.9974 15.3831 24.9975C15.6455 24.9979 15.9054 24.9465 16.1479 24.8461C16.3903 24.7457 16.6104 24.5983 16.7956 24.4125L21.0856 20.125C21.2718 19.9386 21.4192 19.7174 21.5196 19.4739C21.62 19.2305 21.6713 18.9696 21.6706 18.7062V15.4487C21.6705 15.3499 21.641 15.2533 21.586 15.1712C21.531 15.0891 21.4528 15.0251 21.3615 14.9874C21.2701 14.9497 21.1696 14.9399 21.0727 14.9592C20.9758 14.9786 20.8867 15.0263 20.8169 15.0962L17.4956 18.4162C17.3985 18.5134 17.2824 18.5896 17.1545 18.64C17.0266 18.6903 16.8897 18.7137 16.7523 18.7088C16.615 18.7039 16.4801 18.6707 16.3562 18.6113C16.2322 18.5519 16.1218 18.4677 16.0319 18.3637C15.8679 18.1653 15.7845 17.9124 15.7984 17.6553C15.8123 17.3982 15.9224 17.1558 16.1069 16.9762L22.2656 10.8175C25.6019 7.48245 25.7456 3.4637 25.6519 1.88995V1.89245Z" fill="#A6CE39"/>
</svg>
