<svg width="72" height="70" viewBox="0 0 72 70" fill="none" xmlns="http://www.w3.org/2000/svg">
<rect width="72" height="70" rx="8" fill="#A6CE39"/>
<path d="M48.5 22.5H23.5C22.5054 22.5 21.5516 22.8951 20.8483 23.5983C20.1451 24.3016 19.75 25.2554 19.75 26.25V43.75C19.75 44.7446 20.1451 45.6984 20.8483 46.4017C21.5516 47.1049 22.5054 47.5 23.5 47.5H48.5C49.4946 47.5 50.4484 47.1049 51.1517 46.4017C51.8549 45.6984 52.25 44.7446 52.25 43.75V26.25C52.25 25.2554 51.8549 24.3016 51.1517 23.5983C50.4484 22.8951 49.4946 22.5 48.5 22.5ZM39.75 33.75C39.75 34.7446 39.3549 35.6984 38.6517 36.4017C37.9484 37.1049 36.9946 37.5 36 37.5C35.0054 37.5 34.0516 37.1049 33.3483 36.4017C32.6451 35.6984 32.25 34.7446 32.25 33.75C32.25 33.4185 32.1183 33.1005 31.8839 32.8661C31.6495 32.6317 31.3315 32.5 31 32.5H22.25V30H49.75V32.5H41C40.6685 32.5 40.3505 32.6317 40.1161 32.8661C39.8817 33.1005 39.75 33.4185 39.75 33.75ZM23.5 25H48.5C48.8315 25 49.1495 25.1317 49.3839 25.3661C49.6183 25.6005 49.75 25.9185 49.75 26.25V27.5H22.25V26.25C22.25 25.9185 22.3817 25.6005 22.6161 25.3661C22.8505 25.1317 23.1685 25 23.5 25Z" fill="white"/>
</svg>
