<svg width="61" height="60" viewBox="0 0 61 60" fill="none" xmlns="http://www.w3.org/2000/svg">
<g clip-path="url(#clip0_162_118)">
<g clip-path="url(#clip1_162_118)">
<mask id="mask0_162_118" style="mask-type:luminance" maskUnits="userSpaceOnUse" x="0" y="0" width="61" height="60">
<path fill-rule="evenodd" clip-rule="evenodd" d="M0.65625 0H60.6562V60H0.65625V0Z" fill="white"/>
</mask>
<g mask="url(#mask0_162_118)">
<path fill-rule="evenodd" clip-rule="evenodd" d="M42.6535 4.24542C46.3637 4.24542 49.3714 7.25313 49.3714 10.9633V49.0367C49.3714 52.7469 46.3637 55.7546 42.6535 55.7546H18.6593C14.9491 55.7546 11.9414 52.7469 11.9414 49.0367V10.9633C11.9414 7.25313 14.9491 4.24542 18.6593 4.24542H42.6535ZM40.7842 47.5112H31.5135C30.9039 47.5112 30.4098 48.0054 30.4098 48.6149C30.4098 49.2244 30.9039 49.7186 31.5135 49.7186H40.7842C41.3937 49.7186 41.8878 49.2244 41.8878 48.6149C41.8878 48.0054 41.3937 47.5112 40.7842 47.5112ZM33.2793 41.3308H18.7111C18.1015 41.3308 17.6074 41.8249 17.6074 42.4344C17.6074 43.044 18.1015 43.5381 18.7111 43.5381H33.2793C33.8889 43.5381 34.383 43.044 34.383 42.4344C34.383 41.8249 33.8889 41.3308 33.2793 41.3308ZM40.7842 41.3308H37.6939C37.0844 41.3308 36.5903 41.8249 36.5903 42.4344C36.5903 43.044 37.0844 43.5381 37.6939 43.5381H40.7842C41.3937 43.5381 41.8878 43.044 41.8878 42.4344C41.8878 41.8249 41.3937 41.3308 40.7842 41.3308ZM33.2793 35.1503H18.7111C18.1015 35.1503 17.6074 35.6444 17.6074 36.254C17.6074 36.8635 18.1015 37.3576 18.7111 37.3576H33.2793C33.8889 37.3576 34.383 36.8635 34.383 36.254C34.383 35.6444 33.8889 35.1503 33.2793 35.1503ZM40.7842 35.1503H37.6939C37.0844 35.1503 36.5903 35.6444 36.5903 36.254C36.5903 36.8635 37.0844 37.3576 37.6939 37.3576H40.7842C41.3937 37.3576 41.8878 36.8635 41.8878 36.254C41.8878 35.6444 41.3937 35.1503 40.7842 35.1503ZM33.2793 28.9698H18.7111C18.1015 28.9698 17.6074 29.4639 17.6074 30.0735C17.6074 30.683 18.1015 31.1771 18.7111 31.1771H33.2793C33.8889 31.1771 34.383 30.683 34.383 30.0735C34.383 29.4639 33.8889 28.9698 33.2793 28.9698ZM40.7842 28.9698H37.6939C37.0844 28.9698 36.5903 29.4639 36.5903 30.0735C36.5903 30.683 37.0844 31.1771 37.6939 31.1771H40.7842C41.3937 31.1771 41.8878 30.683 41.8878 30.0735C41.8878 29.4639 41.3937 28.9698 40.7842 28.9698ZM32.8782 13.1141C31.7978 13.1141 30.8432 13.709 30.3326 13.709C29.7998 13.709 29.0228 13.0847 28.1496 13.1141C27.01 13.1361 25.9666 13.8045 25.382 14.7888C24.9676 15.494 24.8048 16.324 24.8196 17.1687C24.8418 18.7627 25.4708 20.4228 26.2108 21.4805C26.7806 22.2885 27.4244 23.1553 28.3346 23.1553C29.156 23.1553 29.4594 22.6117 30.5324 22.6117C31.5314 22.6117 31.8422 23.1553 32.708 23.1553C33.6182 23.1553 34.2176 22.3326 34.7578 21.5173C35.4386 20.5697 35.668 19.6662 35.6976 19.6295C35.668 19.6295 33.9512 18.939 33.8846 16.9704C33.8846 15.2442 35.298 14.4656 35.3572 14.4289C34.5876 13.2536 33.3444 13.1141 32.8782 13.1141ZM32.9448 9.91143C32.2492 9.91143 31.4426 10.3154 30.932 10.9104C30.5324 11.4026 30.1032 12.1738 30.2586 12.9451C30.9764 13.0333 31.7534 12.5852 32.1974 11.9902C32.708 11.4393 32.9892 10.6827 32.9448 9.91143Z" fill="#77C5F5"/>
</g>
</g>
</g>
<defs>
<clipPath id="clip0_162_118">
<rect width="60" height="60" fill="white" transform="translate(0.65625)"/>
</clipPath>
<clipPath id="clip1_162_118">
<rect width="60" height="60" fill="white" transform="translate(0.65625)"/>
</clipPath>
</defs>
</svg>
