<svg width="24" height="32" viewBox="0 0 24 32" fill="none" xmlns="http://www.w3.org/2000/svg">
<path d="M24 32H0V0H24V32Z" stroke="#E5E7EB"/>
<g clip-path="url(#clip0_224_4398)">
<path d="M12 3C15.1826 3 18.2348 4.26428 20.4853 6.51472C22.7357 8.76516 24 11.8174 24 15C24 18.1826 22.7357 21.2348 20.4853 23.4853C18.2348 25.7357 15.1826 27 12 27C8.8174 27 5.76516 25.7357 3.51472 23.4853C1.26428 21.2348 0 18.1826 0 15C0 11.8174 1.26428 8.76516 3.51472 6.51472C5.76516 4.26428 8.8174 3 12 3ZM10.875 8.625V15C10.875 15.375 11.0625 15.7266 11.3766 15.9375L15.8766 18.9375C16.3922 19.2844 17.0906 19.1437 17.4375 18.6234C17.7844 18.1031 17.6437 17.4094 17.1234 17.0625L13.125 14.4V8.625C13.125 8.00156 12.6234 7.5 12 7.5C11.3766 7.5 10.875 8.00156 10.875 8.625Z" fill="#4B5563"/>
</g>
<defs>
<clipPath id="clip0_224_4398">
<path d="M0 3H24V27H0V3Z" fill="white"/>
</clipPath>
</defs>
</svg>
