<svg width="22" height="22" viewBox="0 0 22 22" fill="none" xmlns="http://www.w3.org/2000/svg">
<path d="M2.97266 18.7457V16.9849C2.97266 15.0398 4.54955 13.4629 6.49466 13.4629H10.0161C10.8614 13.4629 11.6363 13.7604 12.2439 14.2564M14.4188 3.0121C15.9772 3.41094 17.067 4.81509 17.067 6.42369C17.067 8.03228 15.9772 9.43643 14.4188 9.83528M14.4188 16.9849H19.7015M17.0601 14.3436V19.6263M4.73339 6.41946C4.73339 8.36457 6.31029 9.94094 8.25539 9.94094C10.2005 9.94094 11.7774 8.36457 11.7774 6.41946C11.7774 4.47436 10.2005 2.89746 8.25539 2.89746C6.31029 2.89746 4.73339 4.47436 4.73339 6.41946Z" stroke="#535862" stroke-width="1.32068" stroke-linecap="round" stroke-linejoin="round"/>
</svg>
