<svg width="506" height="430" viewBox="0 0 506 430" fill="none" xmlns="http://www.w3.org/2000/svg">
<rect x="81.4961" y="21.3633" width="342.321" height="139.464" rx="12.6786" fill="#FDFDFD"/>
<rect x="82.0244" y="21.8916" width="341.265" height="138.408" rx="12.1503" stroke="#E9EAEB" stroke-width="1.05655" stroke-dasharray="3.17 2.11"/>
<rect x="231.24" y="50.9463" width="42.2619" height="42.2619" rx="21.131" fill="#1D1D1F" fill-opacity="0.05"/>
<g clip-path="url(#clip0_319_369)">
<path d="M244.977 72.077L250.259 77.3601L260.825 66.7944" stroke="#717680" stroke-width="1.58482" stroke-linecap="round" stroke-linejoin="round"/>
</g>
<path d="M174.807 123.997C171.111 123.997 168.771 121.313 168.771 117.069C168.771 112.863 171.139 110.151 174.807 110.151C177.723 110.151 179.942 111.925 180.369 114.599H178.679C178.252 112.844 176.72 111.693 174.807 111.693C172.188 111.693 170.489 113.81 170.489 117.069C170.489 120.357 172.17 122.455 174.816 122.455C176.785 122.455 178.196 121.508 178.679 119.874H180.369C179.757 122.52 177.769 123.997 174.807 123.997ZM189.71 114.116V123.774H188.178V122.205H188.141C187.565 123.319 186.562 123.941 185.076 123.941C182.968 123.941 181.733 122.576 181.733 120.385V114.116H183.349V120.097C183.349 121.666 184.083 122.511 185.578 122.511C187.147 122.511 188.094 121.434 188.094 119.79V114.116H189.71ZM191.324 116.782C191.324 115.129 192.801 113.949 194.927 113.949C196.924 113.949 198.391 115.138 198.465 116.772H196.924C196.813 115.844 196.06 115.268 194.872 115.268C193.692 115.268 192.912 115.853 192.912 116.698C192.912 117.367 193.423 117.812 194.519 118.091L196.014 118.453C197.964 118.945 198.67 119.651 198.67 121.072C198.67 122.752 197.082 123.941 194.825 123.941C192.708 123.941 191.232 122.79 191.064 121.081H192.68C192.857 122.084 193.618 122.622 194.927 122.622C196.237 122.622 197.045 122.065 197.045 121.192C197.045 120.505 196.645 120.134 195.559 119.846L193.86 119.409C192.16 118.973 191.324 118.1 191.324 116.782ZM200.554 111.786H202.169V114.116H204.045V115.444H202.169V121.183C202.169 122.065 202.541 122.465 203.367 122.465C203.553 122.465 203.924 122.437 204.036 122.418V123.774C203.841 123.82 203.395 123.848 203.014 123.848C201.241 123.848 200.554 123.124 200.554 121.267V115.444H199.114V114.116H200.554V111.786ZM209.179 123.941C206.505 123.941 204.703 122.019 204.703 118.945C204.703 115.862 206.505 113.949 209.179 113.949C211.844 113.949 213.646 115.862 213.646 118.945C213.646 122.019 211.844 123.941 209.179 123.941ZM209.179 122.52C210.888 122.52 212.002 121.22 212.002 118.945C212.002 116.67 210.888 115.37 209.179 115.37C207.47 115.37 206.347 116.67 206.347 118.945C206.347 121.22 207.47 122.52 209.179 122.52ZM214.963 123.774V114.116H216.486V115.658H216.523C216.978 114.636 217.962 113.949 219.263 113.949C220.581 113.949 221.556 114.618 221.974 115.788H222.011C222.55 114.636 223.683 113.949 225.038 113.949C226.951 113.949 228.186 115.194 228.186 117.107V123.774H226.571V117.478C226.571 116.159 225.837 115.379 224.565 115.379C223.283 115.379 222.383 116.327 222.383 117.636V123.774H220.767V117.302C220.767 116.141 219.987 115.379 218.789 115.379C217.507 115.379 216.579 116.382 216.579 117.719V123.774H214.963ZM239.281 123.997C235.585 123.997 233.245 121.313 233.245 117.069C233.245 112.863 235.613 110.151 239.281 110.151C242.197 110.151 244.416 111.925 244.843 114.599H243.153C242.726 112.844 241.194 111.693 239.281 111.693C236.662 111.693 234.963 113.81 234.963 117.069C234.963 120.357 236.644 122.455 239.29 122.455C241.259 122.455 242.67 121.508 243.153 119.874H244.843C244.23 122.52 242.243 123.997 239.281 123.997ZM250.256 123.941C247.581 123.941 245.78 122.019 245.78 118.945C245.78 115.862 247.581 113.949 250.256 113.949C252.921 113.949 254.722 115.862 254.722 118.945C254.722 122.019 252.921 123.941 250.256 123.941ZM250.256 122.52C251.964 122.52 253.079 121.22 253.079 118.945C253.079 116.67 251.964 115.37 250.256 115.37C248.547 115.37 247.423 116.67 247.423 118.945C247.423 121.22 248.547 122.52 250.256 122.52ZM256.04 123.774V114.116H257.563V115.658H257.6C258.138 114.618 259.169 113.949 260.664 113.949C262.781 113.949 264.007 115.314 264.007 117.506V123.774H262.391V117.794C262.391 116.234 261.658 115.379 260.172 115.379C258.649 115.379 257.655 116.457 257.655 118.091V123.774H256.04ZM266.272 123.774V115.444H264.925V114.116H266.272V113.039C266.272 111.182 267.135 110.3 268.918 110.3C269.28 110.3 269.67 110.337 269.903 110.374V111.683C269.708 111.656 269.438 111.628 269.169 111.628C268.296 111.628 267.878 112.092 267.878 113.049V114.116H269.856V115.444H267.887V123.774H266.272ZM271.294 123.774V114.116H272.91V123.774H271.294ZM272.102 112.491C271.554 112.491 271.099 112.036 271.099 111.488C271.099 110.931 271.554 110.486 272.102 110.486C272.659 110.486 273.114 110.931 273.114 111.488C273.114 112.036 272.659 112.491 272.102 112.491ZM278.703 122.427C280.384 122.427 281.508 121.035 281.508 118.908C281.508 116.782 280.384 115.37 278.703 115.37C277.041 115.37 275.955 116.744 275.955 118.908C275.955 121.072 277.041 122.427 278.703 122.427ZM278.759 127.414C276.632 127.414 274.952 126.216 274.682 124.573H276.345C276.66 125.455 277.617 126.04 278.824 126.04C280.495 126.04 281.508 125.074 281.508 123.635V122.112H281.47C280.876 123.161 279.734 123.848 278.378 123.848C275.917 123.848 274.302 121.907 274.302 118.908C274.302 115.881 275.917 113.949 278.415 113.949C279.78 113.949 280.913 114.618 281.554 115.741H281.582V114.116H283.123V123.579C283.123 125.882 281.424 127.414 278.759 127.414ZM292.845 114.116V123.774H291.312V122.205H291.275C290.7 123.319 289.697 123.941 288.211 123.941C286.103 123.941 284.868 122.576 284.868 120.385V114.116H286.484V120.097C286.484 121.666 287.217 122.511 288.712 122.511C290.282 122.511 291.229 121.434 291.229 119.79V114.116H292.845ZM294.626 123.774V114.116H296.149V115.695H296.186C296.502 114.627 297.394 113.949 298.526 113.949C298.805 113.949 299.047 113.996 299.177 114.014V115.584C299.047 115.537 298.703 115.491 298.313 115.491C297.059 115.491 296.242 116.392 296.242 117.757V123.774H294.626ZM303.178 122.567C304.7 122.567 305.871 121.499 305.871 120.106V119.317L303.289 119.474C301.989 119.558 301.246 120.134 301.246 121.044C301.246 121.963 302.017 122.567 303.178 122.567ZM302.815 123.941C300.893 123.941 299.602 122.78 299.602 121.044C299.602 119.391 300.875 118.351 303.103 118.221L305.871 118.063V117.255C305.871 116.076 305.09 115.37 303.753 115.37C302.509 115.37 301.729 115.955 301.525 116.902H299.965C300.076 115.231 301.506 113.949 303.79 113.949C306.056 113.949 307.486 115.175 307.486 117.097V123.774H305.954V122.112H305.917C305.341 123.217 304.115 123.941 302.815 123.941ZM309.742 111.786H311.357V114.116H313.233V115.444H311.357V121.183C311.357 122.065 311.729 122.465 312.555 122.465C312.741 122.465 313.112 122.437 313.224 122.418V123.774C313.029 123.82 312.583 123.848 312.202 123.848C310.429 123.848 309.742 123.124 309.742 121.267V115.444H308.302V114.116H309.742V111.786ZM314.727 123.774V114.116H316.343V123.774H314.727ZM315.535 112.491C314.987 112.491 314.532 112.036 314.532 111.488C314.532 110.931 314.987 110.486 315.535 110.486C316.092 110.486 316.547 110.931 316.547 111.488C316.547 112.036 316.092 112.491 315.535 112.491ZM322.21 123.941C319.536 123.941 317.734 122.019 317.734 118.945C317.734 115.862 319.536 113.949 322.21 113.949C324.875 113.949 326.677 115.862 326.677 118.945C326.677 122.019 324.875 123.941 322.21 123.941ZM322.21 122.52C323.919 122.52 325.033 121.22 325.033 118.945C325.033 116.67 323.919 115.37 322.21 115.37C320.502 115.37 319.378 116.67 319.378 118.945C319.378 121.22 320.502 122.52 322.21 122.52ZM327.994 123.774V114.116H329.517V115.658H329.554C330.093 114.618 331.124 113.949 332.619 113.949C334.736 113.949 335.962 115.314 335.962 117.506V123.774H334.346V117.794C334.346 116.234 333.612 115.379 332.127 115.379C330.604 115.379 329.61 116.457 329.61 118.091V123.774H327.994Z" fill="#1D1D1F"/>
<g clip-path="url(#clip1_319_369)">
<rect x="0.142578" y="213.655" width="505.03" height="200.744" rx="12.6786" fill="#FDFDFD"/>
<g clip-path="url(#clip2_319_369)">
<path d="M30.783 243.238H28.6695C27.5025 243.238 26.5566 244.184 26.5566 245.351V258.03C26.5566 259.197 27.5025 260.143 28.6695 260.143H39.2352C40.4023 260.143 41.3481 259.197 41.3481 258.03V245.351C41.3481 244.184 40.4023 243.238 39.2352 243.238H37.1223" stroke="#1D1D1F" stroke-width="1.58482" stroke-linecap="round" stroke-linejoin="round"/>
<path d="M30.7832 250.634H37.1225M30.7832 254.86H37.1225M30.7832 243.238C30.7832 242.071 31.729 241.125 32.8961 241.125H35.0096C36.1767 241.125 37.1225 242.071 37.1225 243.238C37.1225 244.405 36.1767 245.351 35.0096 245.351H32.8961C31.729 245.351 30.7832 244.405 30.7832 243.238Z" stroke="#1D1D1F" stroke-width="1.58482" stroke-linecap="round" stroke-linejoin="round"/>
</g>
<path d="M58.0965 241.677C61.4725 241.677 63.5856 244.054 63.5856 247.834C63.5856 251.615 61.4725 253.984 58.0965 253.984C54.7205 253.984 52.6074 251.615 52.6074 247.834C52.6074 244.054 54.7205 241.677 58.0965 241.677ZM58.0965 243.047C55.6615 243.047 54.1345 244.896 54.1345 247.834C54.1345 250.765 55.6615 252.614 58.0965 252.614C60.5315 252.614 62.0586 250.765 62.0586 247.834C62.0586 244.896 60.5315 243.047 58.0965 243.047ZM65.0004 253.786V245.201H66.3541V246.604H66.3871C66.6678 245.655 67.4602 245.053 68.4672 245.053C68.7148 245.053 68.9294 245.094 69.045 245.11V246.505C68.9294 246.464 68.624 246.423 68.2773 246.423C67.163 246.423 66.4366 247.223 66.4366 248.437V253.786H65.0004ZM73.0846 252.589C74.5787 252.589 75.5774 251.351 75.5774 249.46C75.5774 247.57 74.5787 246.316 73.0846 246.316C71.6071 246.316 70.6414 247.537 70.6414 249.46C70.6414 251.384 71.6071 252.589 73.0846 252.589ZM73.1342 257.021C71.2439 257.021 69.7499 255.957 69.5105 254.496H70.988C71.2687 255.28 72.1189 255.8 73.1919 255.8C74.6777 255.8 75.5774 254.941 75.5774 253.662V252.308H75.5444C75.0161 253.241 74.0009 253.852 72.7957 253.852C70.6084 253.852 69.1721 252.127 69.1721 249.46C69.1721 246.77 70.6084 245.053 72.8288 245.053C74.0421 245.053 75.0492 245.647 75.6187 246.646H75.6435V245.201H77.0137V253.612C77.0137 255.659 75.5031 257.021 73.1342 257.021ZM81.5073 252.713C82.861 252.713 83.901 251.763 83.901 250.525V249.824L81.6064 249.964C80.4508 250.038 79.7904 250.55 79.7904 251.359C79.7904 252.176 80.4755 252.713 81.5073 252.713ZM81.1854 253.934C79.4767 253.934 78.3294 252.902 78.3294 251.359C78.3294 249.89 79.4602 248.965 81.4413 248.85L83.901 248.709V247.991C83.901 246.943 83.2077 246.316 82.0191 246.316C80.913 246.316 80.2196 246.836 80.038 247.677H78.6513C78.7504 246.192 80.0215 245.053 82.0521 245.053C84.0661 245.053 85.3373 246.142 85.3373 247.851V253.786H83.9753V252.308H83.9423C83.4305 253.29 82.341 253.934 81.1854 253.934ZM86.9502 253.786V245.201H88.3039V246.571H88.3369C88.8156 245.647 89.7319 245.053 91.0608 245.053C92.9428 245.053 94.0323 246.266 94.0323 248.214V253.786H92.5961V248.47C92.5961 247.083 91.944 246.324 90.6233 246.324C89.2696 246.324 88.3864 247.281 88.3864 248.734V253.786H86.9502ZM95.7278 253.786V245.201H97.164V253.786H95.7278ZM96.4459 243.757C95.9589 243.757 95.5544 243.352 95.5544 242.865C95.5544 242.37 95.9589 241.974 96.4459 241.974C96.9411 241.974 97.3456 242.37 97.3456 242.865C97.3456 243.352 96.9411 243.757 96.4459 243.757ZM98.7109 253.786V252.762L103.465 246.406V246.382H98.7191V245.201H105.091V246.249L100.37 252.581V252.605H105.116V253.786H98.7109ZM109.42 252.713C110.774 252.713 111.814 251.763 111.814 250.525V249.824L109.519 249.964C108.363 250.038 107.703 250.55 107.703 251.359C107.703 252.176 108.388 252.713 109.42 252.713ZM109.098 253.934C107.389 253.934 106.242 252.902 106.242 251.359C106.242 249.89 107.373 248.965 109.354 248.85L111.814 248.709V247.991C111.814 246.943 111.12 246.316 109.932 246.316C108.826 246.316 108.132 246.836 107.951 247.677H106.564C106.663 246.192 107.934 245.053 109.965 245.053C111.979 245.053 113.25 246.142 113.25 247.851V253.786H111.888V252.308H111.855C111.343 253.29 110.254 253.934 109.098 253.934ZM115.325 243.129H116.761V245.201H118.429V246.382H116.761V251.483C116.761 252.267 117.091 252.622 117.826 252.622C117.991 252.622 118.321 252.597 118.42 252.581V253.786C118.247 253.827 117.851 253.852 117.512 253.852C115.936 253.852 115.325 253.208 115.325 251.557V246.382H114.046V245.201H115.325V243.129ZM119.827 253.786V245.201H121.263V253.786H119.827ZM120.545 243.757C120.058 243.757 119.654 243.352 119.654 242.865C119.654 242.37 120.058 241.974 120.545 241.974C121.04 241.974 121.445 242.37 121.445 242.865C121.445 243.352 121.04 243.757 120.545 243.757ZM126.549 253.934C124.172 253.934 122.571 252.226 122.571 249.493C122.571 246.753 124.172 245.053 126.549 245.053C128.918 245.053 130.52 246.753 130.52 249.493C130.52 252.226 128.918 253.934 126.549 253.934ZM126.549 252.671C128.068 252.671 129.059 251.516 129.059 249.493C129.059 247.471 128.068 246.316 126.549 246.316C125.03 246.316 124.032 247.471 124.032 249.493C124.032 251.516 125.03 252.671 126.549 252.671ZM131.761 253.786V245.201H133.115V246.571H133.148C133.626 245.647 134.543 245.053 135.872 245.053C137.754 245.053 138.843 246.266 138.843 248.214V253.786H137.407V248.47C137.407 247.083 136.755 246.324 135.434 246.324C134.08 246.324 133.197 247.281 133.197 248.734V253.786H131.761ZM140.316 247.57C140.316 246.101 141.628 245.053 143.518 245.053C145.293 245.053 146.597 246.109 146.663 247.562H145.293C145.194 246.736 144.525 246.225 143.469 246.225C142.421 246.225 141.727 246.745 141.727 247.496C141.727 248.09 142.181 248.486 143.155 248.734L144.484 249.056C146.218 249.493 146.845 250.121 146.845 251.384C146.845 252.878 145.433 253.934 143.428 253.934C141.546 253.934 140.233 252.911 140.085 251.392H141.521C141.678 252.283 142.355 252.762 143.518 252.762C144.682 252.762 145.4 252.267 145.4 251.491C145.4 250.88 145.045 250.55 144.08 250.294L142.569 249.906C141.059 249.518 140.316 248.742 140.316 247.57Z" fill="#1D1D1F"/>
<g filter="url(#filter0_d_319_369)">
<rect x="51.9141" y="273.878" width="180.67" height="52.8274" rx="12.6786" fill="white"/>
<rect x="60.3672" y="282.331" width="163.416" height="35.9226" rx="8.45238" fill="#F5F5F5"/>
<path d="M82.4224 294.348H79.1207V293.688C79.1207 293.163 78.912 292.659 78.5405 292.287C78.169 291.916 77.6651 291.707 77.1397 291.707H73.1776C72.6522 291.707 72.1484 291.916 71.7768 292.287C71.4053 292.659 71.1966 293.163 71.1966 293.688V294.348H67.8949C67.5446 294.348 67.2087 294.488 66.961 294.735C66.7134 294.983 66.5742 295.319 66.5742 295.669V306.235C66.5742 306.585 66.7134 306.921 66.961 307.168C67.2087 307.416 67.5446 307.555 67.8949 307.555H82.4224C82.7727 307.555 83.1086 307.416 83.3563 307.168C83.604 306.921 83.7431 306.585 83.7431 306.235V295.669C83.7431 295.319 83.604 294.983 83.3563 294.735C83.1086 294.488 82.7727 294.348 82.4224 294.348ZM72.5173 293.688C72.5173 293.513 72.5869 293.345 72.7107 293.221C72.8345 293.097 73.0025 293.028 73.1776 293.028H77.1397C77.3148 293.028 77.4828 293.097 77.6066 293.221C77.7305 293.345 77.8 293.513 77.8 293.688V294.348H72.5173V293.688ZM82.4224 295.669V299.104C80.1936 300.317 77.6963 300.952 75.1587 300.952C72.6211 300.952 70.1239 300.317 67.8949 299.105V295.669H82.4224ZM82.4224 306.235H67.8949V300.592C70.1565 301.698 72.641 302.273 75.1587 302.273C77.6764 302.273 80.1608 301.697 82.4224 300.591V306.235ZM73.1776 298.971C73.1776 298.796 73.2472 298.628 73.3711 298.504C73.4949 298.38 73.6628 298.31 73.838 298.31H76.4794C76.6545 298.31 76.8224 298.38 76.9463 298.504C77.0701 298.628 77.1397 298.796 77.1397 298.971C77.1397 299.146 77.0701 299.314 76.9463 299.438C76.8224 299.562 76.6545 299.631 76.4794 299.631H73.838C73.6628 299.631 73.4949 299.562 73.3711 299.438C73.2472 299.314 73.1776 299.146 73.1776 298.971Z" fill="#717680"/>
<g filter="url(#filter1_d_319_369)">
<rect x="91.0078" y="286.557" width="127.842" height="27.4702" rx="5.28274" fill="white" shape-rendering="crispEdges"/>
<path d="M101.912 295.843C104.404 295.843 105.965 297.598 105.965 300.389C105.965 303.18 104.404 304.929 101.912 304.929C99.4196 304.929 97.8596 303.18 97.8596 300.389C97.8596 297.598 99.4196 295.843 101.912 295.843ZM101.912 296.854C100.114 296.854 98.9869 298.219 98.9869 300.389C98.9869 302.552 100.114 303.917 101.912 303.917C103.71 303.917 104.837 302.552 104.837 300.389C104.837 298.219 103.71 296.854 101.912 296.854ZM106.996 304.783V298.445H107.995V299.481H108.02C108.227 298.78 108.812 298.335 109.555 298.335C109.738 298.335 109.897 298.366 109.982 298.378V299.408C109.897 299.377 109.671 299.347 109.415 299.347C108.593 299.347 108.056 299.938 108.056 300.834V304.783H106.996ZM112.951 303.899C114.054 303.899 114.792 302.985 114.792 301.589C114.792 300.194 114.054 299.268 112.951 299.268C111.861 299.268 111.148 300.17 111.148 301.589C111.148 303.009 111.861 303.899 112.951 303.899ZM112.988 307.172C111.592 307.172 110.489 306.385 110.313 305.307H111.404C111.611 305.886 112.238 306.27 113.031 306.27C114.128 306.27 114.792 305.636 114.792 304.691V303.692H114.767C114.377 304.381 113.628 304.831 112.738 304.831C111.123 304.831 110.063 303.558 110.063 301.589C110.063 299.603 111.123 298.335 112.762 298.335C113.658 298.335 114.402 298.774 114.822 299.511H114.841V298.445H115.852V304.655C115.852 306.166 114.737 307.172 112.988 307.172ZM119.157 303.99C120.156 303.99 120.924 303.29 120.924 302.376V301.858L119.23 301.961C118.377 302.016 117.889 302.394 117.889 302.991C117.889 303.594 118.395 303.99 119.157 303.99ZM118.919 304.892C117.658 304.892 116.81 304.131 116.81 302.991C116.81 301.906 117.645 301.224 119.108 301.139L120.924 301.035V300.505C120.924 299.731 120.412 299.268 119.534 299.268C118.718 299.268 118.206 299.652 118.072 300.273H117.048C117.121 299.176 118.06 298.335 119.559 298.335C121.046 298.335 121.984 299.14 121.984 300.401V304.783H120.979V303.692H120.954C120.577 304.417 119.772 304.892 118.919 304.892ZM123.162 304.783V298.445H124.161V299.457H124.186C124.539 298.774 125.216 298.335 126.197 298.335C127.586 298.335 128.391 299.231 128.391 300.669V304.783H127.33V300.858C127.33 299.834 126.849 299.274 125.874 299.274C124.874 299.274 124.222 299.981 124.222 301.053V304.783H123.162ZM129.629 304.783V298.445H130.69V304.783H129.629ZM130.159 297.379C129.8 297.379 129.501 297.08 129.501 296.72C129.501 296.355 129.8 296.062 130.159 296.062C130.525 296.062 130.824 296.355 130.824 296.72C130.824 297.08 130.525 297.379 130.159 297.379ZM131.819 304.783V304.027L135.329 299.335V299.316H131.825V298.445H136.529V299.219L133.043 303.893V303.911H136.548V304.783H131.819ZM139.712 303.99C140.711 303.99 141.479 303.29 141.479 302.376V301.858L139.785 301.961C138.932 302.016 138.444 302.394 138.444 302.991C138.444 303.594 138.95 303.99 139.712 303.99ZM139.474 304.892C138.213 304.892 137.366 304.131 137.366 302.991C137.366 301.906 138.201 301.224 139.663 301.139L141.479 301.035V300.505C141.479 299.731 140.967 299.268 140.09 299.268C139.273 299.268 138.761 299.652 138.627 300.273H137.603C137.677 299.176 138.615 298.335 140.114 298.335C141.601 298.335 142.54 299.14 142.54 300.401V304.783H141.534V303.692H141.51C141.132 304.417 140.327 304.892 139.474 304.892ZM144.058 296.915H145.119V298.445H146.35V299.316H145.119V303.082C145.119 303.661 145.363 303.923 145.905 303.923C146.027 303.923 146.271 303.905 146.344 303.893V304.783C146.216 304.813 145.923 304.831 145.673 304.831C144.509 304.831 144.058 304.356 144.058 303.137V299.316H143.114V298.445H144.058V296.915ZM147.369 304.783V298.445H148.429V304.783H147.369ZM147.899 297.379C147.54 297.379 147.241 297.08 147.241 296.72C147.241 296.355 147.54 296.062 147.899 296.062C148.265 296.062 148.564 296.355 148.564 296.72C148.564 297.08 148.265 297.379 147.899 297.379ZM152.319 304.892C150.564 304.892 149.382 303.631 149.382 301.614C149.382 299.591 150.564 298.335 152.319 298.335C154.068 298.335 155.25 299.591 155.25 301.614C155.25 303.631 154.068 304.892 152.319 304.892ZM152.319 303.96C153.44 303.96 154.172 303.107 154.172 301.614C154.172 300.121 153.44 299.268 152.319 299.268C151.198 299.268 150.46 300.121 150.46 301.614C150.46 303.107 151.198 303.96 152.319 303.96ZM156.154 304.783V298.445H157.153V299.457H157.177C157.531 298.774 158.207 298.335 159.188 298.335C160.578 298.335 161.382 299.231 161.382 300.669V304.783H160.322V300.858C160.322 299.834 159.841 299.274 158.866 299.274C157.866 299.274 157.214 299.981 157.214 301.053V304.783H156.154ZM167.224 304.783V297.153H167.199L164.871 298.829V297.671L167.211 295.989H168.284V304.783H167.224ZM173.961 304.783H172.876V295.989H173.942L178.756 302.894H178.811V295.989H179.896V304.783H178.83L174.015 297.903H173.961V304.783ZM183.176 303.99C184.176 303.99 184.943 303.29 184.943 302.376V301.858L183.249 301.961C182.396 302.016 181.909 302.394 181.909 302.991C181.909 303.594 182.414 303.99 183.176 303.99ZM182.939 304.892C181.677 304.892 180.83 304.131 180.83 302.991C180.83 301.906 181.665 301.224 183.127 301.139L184.943 301.035V300.505C184.943 299.731 184.432 299.268 183.554 299.268C182.737 299.268 182.226 299.652 182.091 300.273H181.068C181.141 299.176 182.079 298.335 183.578 298.335C185.065 298.335 186.004 299.14 186.004 300.401V304.783H184.998V303.692H184.974C184.596 304.417 183.792 304.892 182.939 304.892ZM187.182 304.783V298.445H188.181V299.457H188.205C188.504 298.786 189.15 298.335 190.003 298.335C190.868 298.335 191.508 298.774 191.783 299.542H191.807C192.16 298.786 192.904 298.335 193.794 298.335C195.049 298.335 195.859 299.152 195.859 300.407V304.783H194.799V300.651C194.799 299.786 194.318 299.274 193.483 299.274C192.642 299.274 192.051 299.895 192.051 300.755V304.783H190.99V300.535C190.99 299.773 190.478 299.274 189.692 299.274C188.851 299.274 188.242 299.932 188.242 300.809V304.783H187.182ZM199.584 299.255C198.591 299.255 197.896 300.017 197.829 301.071H201.272C201.248 300.011 200.584 299.255 199.584 299.255ZM201.248 302.967H202.29C202.107 304.076 201.035 304.892 199.651 304.892C197.835 304.892 196.732 303.631 196.732 301.638C196.732 299.67 197.854 298.335 199.603 298.335C201.315 298.335 202.369 299.578 202.369 301.498V301.9H197.823V301.961C197.823 303.174 198.536 303.972 199.676 303.972C200.48 303.972 201.071 303.564 201.248 302.967Z" fill="#1D1D1F"/>
</g>
</g>
<g filter="url(#filter2_d_319_369)">
<rect x="272.732" y="273.878" width="180.67" height="52.8274" rx="12.6786" fill="white"/>
<rect x="281.186" y="282.331" width="163.416" height="35.9226" rx="8.45238" fill="#F5F5F5"/>
<path d="M303.241 294.348H299.939V293.688C299.939 293.163 299.73 292.659 299.359 292.287C298.987 291.916 298.483 291.707 297.958 291.707H293.996C293.471 291.707 292.967 291.916 292.595 292.287C292.224 292.659 292.015 293.163 292.015 293.688V294.348H288.713C288.363 294.348 288.027 294.488 287.779 294.735C287.532 294.983 287.393 295.319 287.393 295.669V306.235C287.393 306.585 287.532 306.921 287.779 307.168C288.027 307.416 288.363 307.555 288.713 307.555H303.241C303.591 307.555 303.927 307.416 304.175 307.168C304.422 306.921 304.561 306.585 304.561 306.235V295.669C304.561 295.319 304.422 294.983 304.175 294.735C303.927 294.488 303.591 294.348 303.241 294.348ZM293.336 293.688C293.336 293.513 293.405 293.345 293.529 293.221C293.653 293.097 293.821 293.028 293.996 293.028H297.958C298.133 293.028 298.301 293.097 298.425 293.221C298.549 293.345 298.618 293.513 298.618 293.688V294.348H293.336V293.688ZM303.241 295.669V299.104C301.012 300.317 298.515 300.952 295.977 300.952C293.44 300.952 290.942 300.317 288.713 299.105V295.669H303.241ZM303.241 306.235H288.713V300.592C290.975 301.698 293.459 302.273 295.977 302.273C298.495 302.273 300.979 301.697 303.241 300.591V306.235ZM293.996 298.971C293.996 298.796 294.066 298.628 294.189 298.504C294.313 298.38 294.481 298.31 294.656 298.31H297.298C297.473 298.31 297.641 298.38 297.765 298.504C297.888 298.628 297.958 298.796 297.958 298.971C297.958 299.146 297.888 299.314 297.765 299.438C297.641 299.562 297.473 299.631 297.298 299.631H294.656C294.481 299.631 294.313 299.562 294.189 299.438C294.066 299.314 293.996 299.146 293.996 298.971Z" fill="#717680"/>
<g filter="url(#filter3_d_319_369)">
<rect x="311.826" y="286.557" width="127.842" height="27.4702" rx="5.28274" fill="white" shape-rendering="crispEdges"/>
<path d="M322.73 295.843C325.223 295.843 326.783 297.598 326.783 300.389C326.783 303.18 325.223 304.929 322.73 304.929C320.238 304.929 318.678 303.18 318.678 300.389C318.678 297.598 320.238 295.843 322.73 295.843ZM322.73 296.854C320.933 296.854 319.805 298.219 319.805 300.389C319.805 302.552 320.933 303.917 322.73 303.917C324.528 303.917 325.656 302.552 325.656 300.389C325.656 298.219 324.528 296.854 322.73 296.854ZM327.814 304.783V298.445H328.814V299.481H328.838C329.045 298.78 329.63 298.335 330.374 298.335C330.557 298.335 330.715 298.366 330.8 298.378V299.408C330.715 299.377 330.49 299.347 330.234 299.347C329.411 299.347 328.875 299.938 328.875 300.834V304.783H327.814ZM333.77 303.899C334.873 303.899 335.61 302.985 335.61 301.589C335.61 300.194 334.873 299.268 333.77 299.268C332.679 299.268 331.966 300.17 331.966 301.589C331.966 303.009 332.679 303.899 333.77 303.899ZM333.806 307.172C332.411 307.172 331.308 306.385 331.131 305.307H332.222C332.429 305.886 333.057 306.27 333.849 306.27C334.946 306.27 335.61 305.636 335.61 304.691V303.692H335.586C335.196 304.381 334.446 304.831 333.556 304.831C331.942 304.831 330.881 303.558 330.881 301.589C330.881 299.603 331.942 298.335 333.581 298.335C334.477 298.335 335.22 298.774 335.641 299.511H335.659V298.445H336.671V304.655C336.671 306.166 335.555 307.172 333.806 307.172ZM339.975 303.99C340.974 303.99 341.742 303.29 341.742 302.376V301.858L340.048 301.961C339.195 302.016 338.707 302.394 338.707 302.991C338.707 303.594 339.213 303.99 339.975 303.99ZM339.737 304.892C338.476 304.892 337.629 304.131 337.629 302.991C337.629 301.906 338.464 301.224 339.926 301.139L341.742 301.035V300.505C341.742 299.731 341.23 299.268 340.353 299.268C339.536 299.268 339.024 299.652 338.89 300.273H337.867C337.94 299.176 338.878 298.335 340.377 298.335C341.864 298.335 342.803 299.14 342.803 300.401V304.783H341.797V303.692H341.773C341.395 304.417 340.591 304.892 339.737 304.892ZM343.98 304.783V298.445H344.98V299.457H345.004C345.358 298.774 346.034 298.335 347.015 298.335C348.405 298.335 349.209 299.231 349.209 300.669V304.783H348.149V300.858C348.149 299.834 347.667 299.274 346.692 299.274C345.693 299.274 345.041 299.981 345.041 301.053V304.783H343.98ZM350.448 304.783V298.445H351.508V304.783H350.448ZM350.978 297.379C350.618 297.379 350.32 297.08 350.32 296.72C350.32 296.355 350.618 296.062 350.978 296.062C351.343 296.062 351.642 296.355 351.642 296.72C351.642 297.08 351.343 297.379 350.978 297.379ZM352.637 304.783V304.027L356.147 299.335V299.316H352.643V298.445H357.348V299.219L353.862 303.893V303.911H357.366V304.783H352.637ZM360.53 303.99C361.53 303.99 362.298 303.29 362.298 302.376V301.858L360.603 301.961C359.75 302.016 359.263 302.394 359.263 302.991C359.263 303.594 359.769 303.99 360.53 303.99ZM360.293 304.892C359.031 304.892 358.184 304.131 358.184 302.991C358.184 301.906 359.019 301.224 360.482 301.139L362.298 301.035V300.505C362.298 299.731 361.786 299.268 360.908 299.268C360.091 299.268 359.58 299.652 359.446 300.273H358.422C358.495 299.176 359.433 298.335 360.932 298.335C362.419 298.335 363.358 299.14 363.358 300.401V304.783H362.352V303.692H362.328C361.95 304.417 361.146 304.892 360.293 304.892ZM364.877 296.915H365.937V298.445H367.168V299.316H365.937V303.082C365.937 303.661 366.181 303.923 366.723 303.923C366.845 303.923 367.089 303.905 367.162 303.893V304.783C367.034 304.813 366.742 304.831 366.492 304.831C365.328 304.831 364.877 304.356 364.877 303.137V299.316H363.932V298.445H364.877V296.915ZM368.187 304.783V298.445H369.248V304.783H368.187ZM368.718 297.379C368.358 297.379 368.059 297.08 368.059 296.72C368.059 296.355 368.358 296.062 368.718 296.062C369.083 296.062 369.382 296.355 369.382 296.72C369.382 297.08 369.083 297.379 368.718 297.379ZM373.137 304.892C371.382 304.892 370.2 303.631 370.2 301.614C370.2 299.591 371.382 298.335 373.137 298.335C374.886 298.335 376.069 299.591 376.069 301.614C376.069 303.631 374.886 304.892 373.137 304.892ZM373.137 303.96C374.259 303.96 374.99 303.107 374.99 301.614C374.99 300.121 374.259 299.268 373.137 299.268C372.016 299.268 371.279 300.121 371.279 301.614C371.279 303.107 372.016 303.96 373.137 303.96ZM376.972 304.783V298.445H377.971V299.457H377.996C378.349 298.774 379.026 298.335 380.007 298.335C381.396 298.335 382.201 299.231 382.201 300.669V304.783H381.14V300.858C381.14 299.834 380.659 299.274 379.684 299.274C378.684 299.274 378.032 299.981 378.032 301.053V304.783H376.972ZM385.744 298.524C385.744 296.989 386.988 295.843 388.645 295.843C390.217 295.843 391.455 296.909 391.455 298.256C391.455 299.237 391.01 299.968 389.541 301.486L387.317 303.783V303.808H391.601V304.783H385.799V304.027L388.895 300.767C390.077 299.524 390.358 299.054 390.358 298.323C390.358 297.476 389.584 296.8 388.615 296.8C387.585 296.8 386.805 297.543 386.805 298.524V298.53H385.744V298.524ZM396.315 304.783H395.23V295.989H396.296L401.111 302.894H401.165V295.989H402.25V304.783H401.184L396.369 297.903H396.315V304.783ZM405.53 303.99C406.53 303.99 407.298 303.29 407.298 302.376V301.858L405.603 301.961C404.75 302.016 404.263 302.394 404.263 302.991C404.263 303.594 404.769 303.99 405.53 303.99ZM405.293 304.892C404.031 304.892 403.184 304.131 403.184 302.991C403.184 301.906 404.019 301.224 405.482 301.139L407.298 301.035V300.505C407.298 299.731 406.786 299.268 405.908 299.268C405.091 299.268 404.58 299.652 404.446 300.273H403.422C403.495 299.176 404.433 298.335 405.932 298.335C407.419 298.335 408.358 299.14 408.358 300.401V304.783H407.352V303.692H407.328C406.95 304.417 406.146 304.892 405.293 304.892ZM409.536 304.783V298.445H410.535V299.457H410.559C410.858 298.786 411.504 298.335 412.357 298.335C413.222 298.335 413.862 298.774 414.137 299.542H414.161C414.514 298.786 415.258 298.335 416.148 298.335C417.403 298.335 418.213 299.152 418.213 300.407V304.783H417.153V300.651C417.153 299.786 416.672 299.274 415.837 299.274C414.996 299.274 414.405 299.895 414.405 300.755V304.783H413.344V300.535C413.344 299.773 412.832 299.274 412.046 299.274C411.205 299.274 410.596 299.932 410.596 300.809V304.783H409.536ZM421.938 299.255C420.945 299.255 420.25 300.017 420.183 301.071H423.626C423.602 300.011 422.938 299.255 421.938 299.255ZM423.602 302.967H424.644C424.461 304.076 423.389 304.892 422.005 304.892C420.189 304.892 419.086 303.631 419.086 301.638C419.086 299.67 420.208 298.335 421.957 298.335C423.669 298.335 424.723 299.578 424.723 301.498V301.9H420.177V301.961C420.177 303.174 420.89 303.972 422.03 303.972C422.834 303.972 423.425 303.564 423.602 302.967Z" fill="#1D1D1F"/>
</g>
</g>
<g filter="url(#filter4_d_319_369)">
<rect x="51.9141" y="340.44" width="180.67" height="52.8274" rx="12.6786" fill="white"/>
<rect x="60.3672" y="348.893" width="163.416" height="35.9226" rx="8.45238" fill="#F5F5F5"/>
<path d="M82.4224 360.911H79.1207V360.251C79.1207 359.725 78.912 359.221 78.5405 358.85C78.169 358.478 77.6651 358.27 77.1397 358.27H73.1776C72.6522 358.27 72.1484 358.478 71.7768 358.85C71.4053 359.221 71.1966 359.725 71.1966 360.251V360.911H67.8949C67.5446 360.911 67.2087 361.05 66.961 361.298C66.7134 361.545 66.5742 361.881 66.5742 362.232V372.797C66.5742 373.147 66.7134 373.483 66.961 373.731C67.2087 373.979 67.5446 374.118 67.8949 374.118H82.4224C82.7727 374.118 83.1086 373.979 83.3563 373.731C83.604 373.483 83.7431 373.147 83.7431 372.797V362.232C83.7431 361.881 83.604 361.545 83.3563 361.298C83.1086 361.05 82.7727 360.911 82.4224 360.911ZM72.5173 360.251C72.5173 360.075 72.5869 359.907 72.7107 359.784C72.8345 359.66 73.0025 359.59 73.1776 359.59H77.1397C77.3148 359.59 77.4828 359.66 77.6066 359.784C77.7305 359.907 77.8 360.075 77.8 360.251V360.911H72.5173V360.251ZM82.4224 362.232V365.666C80.1936 366.879 77.6963 367.515 75.1587 367.514C72.6211 367.515 70.1239 366.88 67.8949 365.667V362.232H82.4224ZM82.4224 372.797H67.8949V367.154C70.1565 368.261 72.641 368.835 75.1587 368.835C77.6764 368.835 80.1608 368.26 82.4224 367.154V372.797ZM73.1776 365.533C73.1776 365.358 73.2472 365.19 73.3711 365.066C73.4949 364.943 73.6628 364.873 73.838 364.873H76.4794C76.6545 364.873 76.8224 364.943 76.9463 365.066C77.0701 365.19 77.1397 365.358 77.1397 365.533C77.1397 365.708 77.0701 365.876 76.9463 366C76.8224 366.124 76.6545 366.194 76.4794 366.194H73.838C73.6628 366.194 73.4949 366.124 73.3711 366C73.2472 365.876 73.1776 365.708 73.1776 365.533Z" fill="#717680"/>
<g filter="url(#filter5_d_319_369)">
<rect x="91.0078" y="353.119" width="127.842" height="27.4702" rx="5.28274" fill="white" shape-rendering="crispEdges"/>
<path d="M101.912 362.405C104.404 362.405 105.965 364.16 105.965 366.951C105.965 369.742 104.404 371.491 101.912 371.491C99.4196 371.491 97.8596 369.742 97.8596 366.951C97.8596 364.16 99.4196 362.405 101.912 362.405ZM101.912 363.417C100.114 363.417 98.9869 364.782 98.9869 366.951C98.9869 369.115 100.114 370.48 101.912 370.48C103.71 370.48 104.837 369.115 104.837 366.951C104.837 364.782 103.71 363.417 101.912 363.417ZM106.996 371.345V365.007H107.995V366.043H108.02C108.227 365.343 108.812 364.898 109.555 364.898C109.738 364.898 109.897 364.928 109.982 364.94V365.97C109.897 365.94 109.671 365.909 109.415 365.909C108.593 365.909 108.056 366.501 108.056 367.396V371.345H106.996ZM112.951 370.462C114.054 370.462 114.792 369.547 114.792 368.152C114.792 366.756 114.054 365.83 112.951 365.83C111.861 365.83 111.148 366.732 111.148 368.152C111.148 369.572 111.861 370.462 112.951 370.462ZM112.988 373.734C111.592 373.734 110.489 372.948 110.313 371.869H111.404C111.611 372.448 112.238 372.832 113.031 372.832C114.128 372.832 114.792 372.198 114.792 371.254V370.254H114.767C114.377 370.943 113.628 371.394 112.738 371.394C111.123 371.394 110.063 370.12 110.063 368.152C110.063 366.165 111.123 364.898 112.762 364.898C113.658 364.898 114.402 365.337 114.822 366.074H114.841V365.007H115.852V371.217C115.852 372.729 114.737 373.734 112.988 373.734ZM119.157 370.553C120.156 370.553 120.924 369.852 120.924 368.938V368.42L119.23 368.524C118.377 368.579 117.889 368.956 117.889 369.554C117.889 370.157 118.395 370.553 119.157 370.553ZM118.919 371.455C117.658 371.455 116.81 370.693 116.81 369.554C116.81 368.469 117.645 367.786 119.108 367.701L120.924 367.597V367.067C120.924 366.293 120.412 365.83 119.534 365.83C118.718 365.83 118.206 366.214 118.072 366.836H117.048C117.121 365.739 118.06 364.898 119.559 364.898C121.046 364.898 121.984 365.702 121.984 366.964V371.345H120.979V370.254H120.954C120.577 370.98 119.772 371.455 118.919 371.455ZM123.162 371.345V365.007H124.161V366.019H124.186C124.539 365.337 125.216 364.898 126.197 364.898C127.586 364.898 128.391 365.794 128.391 367.232V371.345H127.33V367.421C127.33 366.397 126.849 365.836 125.874 365.836C124.874 365.836 124.222 366.543 124.222 367.616V371.345H123.162ZM129.629 371.345V365.007H130.69V371.345H129.629ZM130.159 363.941C129.8 363.941 129.501 363.642 129.501 363.283C129.501 362.917 129.8 362.625 130.159 362.625C130.525 362.625 130.824 362.917 130.824 363.283C130.824 363.642 130.525 363.941 130.159 363.941ZM131.819 371.345V370.59L135.329 365.897V365.879H131.825V365.007H136.529V365.781L133.043 370.455V370.474H136.548V371.345H131.819ZM139.712 370.553C140.711 370.553 141.479 369.852 141.479 368.938V368.42L139.785 368.524C138.932 368.579 138.444 368.956 138.444 369.554C138.444 370.157 138.95 370.553 139.712 370.553ZM139.474 371.455C138.213 371.455 137.366 370.693 137.366 369.554C137.366 368.469 138.201 367.786 139.663 367.701L141.479 367.597V367.067C141.479 366.293 140.967 365.83 140.09 365.83C139.273 365.83 138.761 366.214 138.627 366.836H137.603C137.677 365.739 138.615 364.898 140.114 364.898C141.601 364.898 142.54 365.702 142.54 366.964V371.345H141.534V370.254H141.51C141.132 370.98 140.327 371.455 139.474 371.455ZM144.058 363.478H145.119V365.007H146.35V365.879H145.119V369.645C145.119 370.224 145.363 370.486 145.905 370.486C146.027 370.486 146.271 370.468 146.344 370.455V371.345C146.216 371.376 145.923 371.394 145.673 371.394C144.509 371.394 144.058 370.919 144.058 369.7V365.879H143.114V365.007H144.058V363.478ZM147.369 371.345V365.007H148.429V371.345H147.369ZM147.899 363.941C147.54 363.941 147.241 363.642 147.241 363.283C147.241 362.917 147.54 362.625 147.899 362.625C148.265 362.625 148.564 362.917 148.564 363.283C148.564 363.642 148.265 363.941 147.899 363.941ZM152.319 371.455C150.564 371.455 149.382 370.193 149.382 368.176C149.382 366.153 150.564 364.898 152.319 364.898C154.068 364.898 155.25 366.153 155.25 368.176C155.25 370.193 154.068 371.455 152.319 371.455ZM152.319 370.523C153.44 370.523 154.172 369.669 154.172 368.176C154.172 366.683 153.44 365.83 152.319 365.83C151.198 365.83 150.46 366.683 150.46 368.176C150.46 369.669 151.198 370.523 152.319 370.523ZM156.154 371.345V365.007H157.153V366.019H157.177C157.531 365.337 158.207 364.898 159.188 364.898C160.578 364.898 161.382 365.794 161.382 367.232V371.345H160.322V367.421C160.322 366.397 159.841 365.836 158.866 365.836C157.866 365.836 157.214 366.543 157.214 367.616V371.345H156.154ZM166.773 367.287V366.36H167.827C168.838 366.36 169.545 365.708 169.545 364.819C169.545 363.947 168.954 363.356 167.839 363.356C166.827 363.356 166.157 363.935 166.06 364.855H165.005C165.127 363.362 166.236 362.405 167.888 362.405C169.46 362.405 170.648 363.35 170.648 364.672C170.648 365.775 169.941 366.568 168.845 366.763V366.787C170.173 366.866 171.026 367.689 171.026 368.926C171.026 370.437 169.649 371.491 167.924 371.491C166.084 371.491 164.908 370.474 164.829 369.017H165.883C165.98 369.919 166.73 370.541 167.912 370.541C169.076 370.541 169.911 369.883 169.911 368.962C169.911 367.926 169.131 367.287 167.876 367.287H166.773ZM175.813 371.345H174.728V362.552H175.795L180.609 369.456H180.664V362.552H181.749V371.345H180.682L175.868 364.465H175.813V371.345ZM185.029 370.553C186.028 370.553 186.796 369.852 186.796 368.938V368.42L185.102 368.524C184.249 368.579 183.761 368.956 183.761 369.554C183.761 370.157 184.267 370.553 185.029 370.553ZM184.791 371.455C183.53 371.455 182.683 370.693 182.683 369.554C182.683 368.469 183.517 367.786 184.98 367.701L186.796 367.597V367.067C186.796 366.293 186.284 365.83 185.407 365.83C184.59 365.83 184.078 366.214 183.944 366.836H182.92C182.993 365.739 183.932 364.898 185.431 364.898C186.918 364.898 187.856 365.702 187.856 366.964V371.345H186.851V370.254H186.827C186.449 370.98 185.644 371.455 184.791 371.455ZM189.034 371.345V365.007H190.034V366.019H190.058C190.357 365.349 191.002 364.898 191.856 364.898C192.721 364.898 193.361 365.337 193.635 366.104H193.659C194.013 365.349 194.756 364.898 195.646 364.898C196.901 364.898 197.712 365.714 197.712 366.97V371.345H196.652V367.213C196.652 366.348 196.17 365.836 195.335 365.836C194.494 365.836 193.903 366.458 193.903 367.317V371.345H192.843V367.098C192.843 366.336 192.331 365.836 191.545 365.836C190.704 365.836 190.094 366.494 190.094 367.372V371.345H189.034ZM201.437 365.818C200.444 365.818 199.749 366.58 199.682 367.634H203.125C203.101 366.574 202.436 365.818 201.437 365.818ZM203.101 369.529H204.143C203.96 370.638 202.887 371.455 201.504 371.455C199.688 371.455 198.585 370.193 198.585 368.201C198.585 366.232 199.706 364.898 201.455 364.898C203.168 364.898 204.222 366.141 204.222 368.061V368.463H199.676V368.524C199.676 369.736 200.389 370.535 201.528 370.535C202.333 370.535 202.924 370.126 203.101 369.529Z" fill="#1D1D1F"/>
</g>
</g>
<g filter="url(#filter6_d_319_369)">
<rect x="272.732" y="340.44" width="180.67" height="52.8274" rx="12.6786" fill="white"/>
<rect x="281.186" y="348.893" width="163.416" height="35.9226" rx="8.45238" fill="#F5F5F5"/>
<path d="M303.241 360.911H299.939V360.251C299.939 359.725 299.73 359.221 299.359 358.85C298.987 358.478 298.483 358.27 297.958 358.27H293.996C293.471 358.27 292.967 358.478 292.595 358.85C292.224 359.221 292.015 359.725 292.015 360.251V360.911H288.713C288.363 360.911 288.027 361.05 287.779 361.298C287.532 361.545 287.393 361.881 287.393 362.232V372.797C287.393 373.147 287.532 373.483 287.779 373.731C288.027 373.979 288.363 374.118 288.713 374.118H303.241C303.591 374.118 303.927 373.979 304.175 373.731C304.422 373.483 304.561 373.147 304.561 372.797V362.232C304.561 361.881 304.422 361.545 304.175 361.298C303.927 361.05 303.591 360.911 303.241 360.911ZM293.336 360.251C293.336 360.075 293.405 359.907 293.529 359.784C293.653 359.66 293.821 359.59 293.996 359.59H297.958C298.133 359.59 298.301 359.66 298.425 359.784C298.549 359.907 298.618 360.075 298.618 360.251V360.911H293.336V360.251ZM303.241 362.232V365.666C301.012 366.879 298.515 367.515 295.977 367.514C293.44 367.515 290.942 366.88 288.713 365.667V362.232H303.241ZM303.241 372.797H288.713V367.154C290.975 368.261 293.459 368.835 295.977 368.835C298.495 368.835 300.979 368.26 303.241 367.154V372.797ZM293.996 365.533C293.996 365.358 294.066 365.19 294.189 365.066C294.313 364.943 294.481 364.873 294.656 364.873H297.298C297.473 364.873 297.641 364.943 297.765 365.066C297.888 365.19 297.958 365.358 297.958 365.533C297.958 365.708 297.888 365.876 297.765 366C297.641 366.124 297.473 366.194 297.298 366.194H294.656C294.481 366.194 294.313 366.124 294.189 366C294.066 365.876 293.996 365.708 293.996 365.533Z" fill="#717680"/>
<g filter="url(#filter7_d_319_369)">
<rect x="311.826" y="353.119" width="127.842" height="27.4702" rx="5.28274" fill="white" shape-rendering="crispEdges"/>
<path d="M322.73 362.405C325.223 362.405 326.783 364.16 326.783 366.951C326.783 369.742 325.223 371.491 322.73 371.491C320.238 371.491 318.678 369.742 318.678 366.951C318.678 364.16 320.238 362.405 322.73 362.405ZM322.73 363.417C320.933 363.417 319.805 364.782 319.805 366.951C319.805 369.115 320.933 370.48 322.73 370.48C324.528 370.48 325.656 369.115 325.656 366.951C325.656 364.782 324.528 363.417 322.73 363.417ZM327.814 371.345V365.007H328.814V366.043H328.838C329.045 365.343 329.63 364.898 330.374 364.898C330.557 364.898 330.715 364.928 330.8 364.94V365.97C330.715 365.94 330.49 365.909 330.234 365.909C329.411 365.909 328.875 366.501 328.875 367.396V371.345H327.814ZM333.77 370.462C334.873 370.462 335.61 369.547 335.61 368.152C335.61 366.756 334.873 365.83 333.77 365.83C332.679 365.83 331.966 366.732 331.966 368.152C331.966 369.572 332.679 370.462 333.77 370.462ZM333.806 373.734C332.411 373.734 331.308 372.948 331.131 371.869H332.222C332.429 372.448 333.057 372.832 333.849 372.832C334.946 372.832 335.61 372.198 335.61 371.254V370.254H335.586C335.196 370.943 334.446 371.394 333.556 371.394C331.942 371.394 330.881 370.12 330.881 368.152C330.881 366.165 331.942 364.898 333.581 364.898C334.477 364.898 335.22 365.337 335.641 366.074H335.659V365.007H336.671V371.217C336.671 372.729 335.555 373.734 333.806 373.734ZM339.975 370.553C340.974 370.553 341.742 369.852 341.742 368.938V368.42L340.048 368.524C339.195 368.579 338.707 368.956 338.707 369.554C338.707 370.157 339.213 370.553 339.975 370.553ZM339.737 371.455C338.476 371.455 337.629 370.693 337.629 369.554C337.629 368.469 338.464 367.786 339.926 367.701L341.742 367.597V367.067C341.742 366.293 341.23 365.83 340.353 365.83C339.536 365.83 339.024 366.214 338.89 366.836H337.867C337.94 365.739 338.878 364.898 340.377 364.898C341.864 364.898 342.803 365.702 342.803 366.964V371.345H341.797V370.254H341.773C341.395 370.98 340.591 371.455 339.737 371.455ZM343.98 371.345V365.007H344.98V366.019H345.004C345.358 365.337 346.034 364.898 347.015 364.898C348.405 364.898 349.209 365.794 349.209 367.232V371.345H348.149V367.421C348.149 366.397 347.667 365.836 346.692 365.836C345.693 365.836 345.041 366.543 345.041 367.616V371.345H343.98ZM350.448 371.345V365.007H351.508V371.345H350.448ZM350.978 363.941C350.618 363.941 350.32 363.642 350.32 363.283C350.32 362.917 350.618 362.625 350.978 362.625C351.343 362.625 351.642 362.917 351.642 363.283C351.642 363.642 351.343 363.941 350.978 363.941ZM352.637 371.345V370.59L356.147 365.897V365.879H352.643V365.007H357.348V365.781L353.862 370.455V370.474H357.366V371.345H352.637ZM360.53 370.553C361.53 370.553 362.298 369.852 362.298 368.938V368.42L360.603 368.524C359.75 368.579 359.263 368.956 359.263 369.554C359.263 370.157 359.769 370.553 360.53 370.553ZM360.293 371.455C359.031 371.455 358.184 370.693 358.184 369.554C358.184 368.469 359.019 367.786 360.482 367.701L362.298 367.597V367.067C362.298 366.293 361.786 365.83 360.908 365.83C360.091 365.83 359.58 366.214 359.446 366.836H358.422C358.495 365.739 359.433 364.898 360.932 364.898C362.419 364.898 363.358 365.702 363.358 366.964V371.345H362.352V370.254H362.328C361.95 370.98 361.146 371.455 360.293 371.455ZM364.877 363.478H365.937V365.007H367.168V365.879H365.937V369.645C365.937 370.224 366.181 370.486 366.723 370.486C366.845 370.486 367.089 370.468 367.162 370.455V371.345C367.034 371.376 366.742 371.394 366.492 371.394C365.328 371.394 364.877 370.919 364.877 369.7V365.879H363.932V365.007H364.877V363.478ZM368.187 371.345V365.007H369.248V371.345H368.187ZM368.718 363.941C368.358 363.941 368.059 363.642 368.059 363.283C368.059 362.917 368.358 362.625 368.718 362.625C369.083 362.625 369.382 362.917 369.382 363.283C369.382 363.642 369.083 363.941 368.718 363.941ZM373.137 371.455C371.382 371.455 370.2 370.193 370.2 368.176C370.2 366.153 371.382 364.898 373.137 364.898C374.886 364.898 376.069 366.153 376.069 368.176C376.069 370.193 374.886 371.455 373.137 371.455ZM373.137 370.523C374.259 370.523 374.99 369.669 374.99 368.176C374.99 366.683 374.259 365.83 373.137 365.83C372.016 365.83 371.279 366.683 371.279 368.176C371.279 369.669 372.016 370.523 373.137 370.523ZM376.972 371.345V365.007H377.971V366.019H377.996C378.349 365.337 379.026 364.898 380.007 364.898C381.396 364.898 382.201 365.794 382.201 367.232V371.345H381.14V367.421C381.14 366.397 380.659 365.836 379.684 365.836C378.684 365.836 378.032 366.543 378.032 367.616V371.345H376.972ZM389.98 371.345V369.517H385.562V368.524C386.311 367.134 387.341 365.532 389.419 362.552H391.04V368.554H392.283V369.517H391.04V371.345H389.98ZM386.646 368.53V368.554H389.98V363.466H389.961C388.298 365.842 387.341 367.311 386.646 368.53ZM396.802 371.345H395.717V362.552H396.784L401.598 369.456H401.653V362.552H402.738V371.345H401.671L396.857 364.465H396.802V371.345ZM406.018 370.553C407.017 370.553 407.785 369.852 407.785 368.938V368.42L406.091 368.524C405.238 368.579 404.75 368.956 404.75 369.554C404.75 370.157 405.256 370.553 406.018 370.553ZM405.78 371.455C404.519 371.455 403.672 370.693 403.672 369.554C403.672 368.469 404.506 367.786 405.969 367.701L407.785 367.597V367.067C407.785 366.293 407.273 365.83 406.396 365.83C405.579 365.83 405.067 366.214 404.933 366.836H403.909C403.982 365.739 404.921 364.898 406.42 364.898C407.907 364.898 408.845 365.702 408.845 366.964V371.345H407.84V370.254H407.816C407.438 370.98 406.633 371.455 405.78 371.455ZM410.023 371.345V365.007H411.023V366.019H411.047C411.346 365.349 411.991 364.898 412.845 364.898C413.71 364.898 414.35 365.337 414.624 366.104H414.648C415.002 365.349 415.745 364.898 416.635 364.898C417.89 364.898 418.701 365.714 418.701 366.97V371.345H417.641V367.213C417.641 366.348 417.159 365.836 416.324 365.836C415.483 365.836 414.892 366.458 414.892 367.317V371.345H413.832V367.098C413.832 366.336 413.32 365.836 412.534 365.836C411.693 365.836 411.083 366.494 411.083 367.372V371.345H410.023ZM422.426 365.818C421.433 365.818 420.738 366.58 420.671 367.634H424.114C424.09 366.574 423.425 365.818 422.426 365.818ZM424.09 369.529H425.132C424.949 370.638 423.876 371.455 422.493 371.455C420.677 371.455 419.574 370.193 419.574 368.201C419.574 366.232 420.695 364.898 422.444 364.898C424.157 364.898 425.211 366.141 425.211 368.061V368.463H420.665V368.524C420.665 369.736 421.378 370.535 422.517 370.535C423.322 370.535 423.913 370.126 424.09 369.529Z" fill="#1D1D1F"/>
</g>
</g>
<rect x="0.670852" y="214.183" width="503.973" height="199.688" rx="12.1503" stroke="#E9EAEB" stroke-width="1.05655" stroke-dasharray="3.17 2.11"/>
</g>
<defs>
<filter id="filter0_d_319_369" x="50.8575" y="272.821" width="182.783" height="54.9402" filterUnits="userSpaceOnUse" color-interpolation-filters="sRGB">
<feFlood flood-opacity="0" result="BackgroundImageFix"/>
<feColorMatrix in="SourceAlpha" type="matrix" values="0 0 0 0 0 0 0 0 0 0 0 0 0 0 0 0 0 0 127 0" result="hardAlpha"/>
<feOffset/>
<feGaussianBlur stdDeviation="0.528274"/>
<feComposite in2="hardAlpha" operator="out"/>
<feColorMatrix type="matrix" values="0 0 0 0 0 0 0 0 0 0 0 0 0 0 0 0 0 0 0.25 0"/>
<feBlend mode="normal" in2="BackgroundImageFix" result="effect1_dropShadow_319_369"/>
<feBlend mode="normal" in="SourceGraphic" in2="effect1_dropShadow_319_369" result="shape"/>
</filter>
<filter id="filter1_d_319_369" x="89.9513" y="285.5" width="129.955" height="29.5833" filterUnits="userSpaceOnUse" color-interpolation-filters="sRGB">
<feFlood flood-opacity="0" result="BackgroundImageFix"/>
<feColorMatrix in="SourceAlpha" type="matrix" values="0 0 0 0 0 0 0 0 0 0 0 0 0 0 0 0 0 0 127 0" result="hardAlpha"/>
<feOffset/>
<feGaussianBlur stdDeviation="0.528274"/>
<feComposite in2="hardAlpha" operator="out"/>
<feColorMatrix type="matrix" values="0 0 0 0 0 0 0 0 0 0 0 0 0 0 0 0 0 0 0.25 0"/>
<feBlend mode="normal" in2="BackgroundImageFix" result="effect1_dropShadow_319_369"/>
<feBlend mode="normal" in="SourceGraphic" in2="effect1_dropShadow_319_369" result="shape"/>
</filter>
<filter id="filter2_d_319_369" x="271.676" y="272.821" width="182.783" height="54.9402" filterUnits="userSpaceOnUse" color-interpolation-filters="sRGB">
<feFlood flood-opacity="0" result="BackgroundImageFix"/>
<feColorMatrix in="SourceAlpha" type="matrix" values="0 0 0 0 0 0 0 0 0 0 0 0 0 0 0 0 0 0 127 0" result="hardAlpha"/>
<feOffset/>
<feGaussianBlur stdDeviation="0.528274"/>
<feComposite in2="hardAlpha" operator="out"/>
<feColorMatrix type="matrix" values="0 0 0 0 0 0 0 0 0 0 0 0 0 0 0 0 0 0 0.25 0"/>
<feBlend mode="normal" in2="BackgroundImageFix" result="effect1_dropShadow_319_369"/>
<feBlend mode="normal" in="SourceGraphic" in2="effect1_dropShadow_319_369" result="shape"/>
</filter>
<filter id="filter3_d_319_369" x="310.77" y="285.5" width="129.955" height="29.5833" filterUnits="userSpaceOnUse" color-interpolation-filters="sRGB">
<feFlood flood-opacity="0" result="BackgroundImageFix"/>
<feColorMatrix in="SourceAlpha" type="matrix" values="0 0 0 0 0 0 0 0 0 0 0 0 0 0 0 0 0 0 127 0" result="hardAlpha"/>
<feOffset/>
<feGaussianBlur stdDeviation="0.528274"/>
<feComposite in2="hardAlpha" operator="out"/>
<feColorMatrix type="matrix" values="0 0 0 0 0 0 0 0 0 0 0 0 0 0 0 0 0 0 0.25 0"/>
<feBlend mode="normal" in2="BackgroundImageFix" result="effect1_dropShadow_319_369"/>
<feBlend mode="normal" in="SourceGraphic" in2="effect1_dropShadow_319_369" result="shape"/>
</filter>
<filter id="filter4_d_319_369" x="50.8575" y="339.384" width="182.783" height="54.9402" filterUnits="userSpaceOnUse" color-interpolation-filters="sRGB">
<feFlood flood-opacity="0" result="BackgroundImageFix"/>
<feColorMatrix in="SourceAlpha" type="matrix" values="0 0 0 0 0 0 0 0 0 0 0 0 0 0 0 0 0 0 127 0" result="hardAlpha"/>
<feOffset/>
<feGaussianBlur stdDeviation="0.528274"/>
<feComposite in2="hardAlpha" operator="out"/>
<feColorMatrix type="matrix" values="0 0 0 0 0 0 0 0 0 0 0 0 0 0 0 0 0 0 0.25 0"/>
<feBlend mode="normal" in2="BackgroundImageFix" result="effect1_dropShadow_319_369"/>
<feBlend mode="normal" in="SourceGraphic" in2="effect1_dropShadow_319_369" result="shape"/>
</filter>
<filter id="filter5_d_319_369" x="89.9513" y="352.063" width="129.955" height="29.5833" filterUnits="userSpaceOnUse" color-interpolation-filters="sRGB">
<feFlood flood-opacity="0" result="BackgroundImageFix"/>
<feColorMatrix in="SourceAlpha" type="matrix" values="0 0 0 0 0 0 0 0 0 0 0 0 0 0 0 0 0 0 127 0" result="hardAlpha"/>
<feOffset/>
<feGaussianBlur stdDeviation="0.528274"/>
<feComposite in2="hardAlpha" operator="out"/>
<feColorMatrix type="matrix" values="0 0 0 0 0 0 0 0 0 0 0 0 0 0 0 0 0 0 0.25 0"/>
<feBlend mode="normal" in2="BackgroundImageFix" result="effect1_dropShadow_319_369"/>
<feBlend mode="normal" in="SourceGraphic" in2="effect1_dropShadow_319_369" result="shape"/>
</filter>
<filter id="filter6_d_319_369" x="271.676" y="339.384" width="182.783" height="54.9402" filterUnits="userSpaceOnUse" color-interpolation-filters="sRGB">
<feFlood flood-opacity="0" result="BackgroundImageFix"/>
<feColorMatrix in="SourceAlpha" type="matrix" values="0 0 0 0 0 0 0 0 0 0 0 0 0 0 0 0 0 0 127 0" result="hardAlpha"/>
<feOffset/>
<feGaussianBlur stdDeviation="0.528274"/>
<feComposite in2="hardAlpha" operator="out"/>
<feColorMatrix type="matrix" values="0 0 0 0 0 0 0 0 0 0 0 0 0 0 0 0 0 0 0.25 0"/>
<feBlend mode="normal" in2="BackgroundImageFix" result="effect1_dropShadow_319_369"/>
<feBlend mode="normal" in="SourceGraphic" in2="effect1_dropShadow_319_369" result="shape"/>
</filter>
<filter id="filter7_d_319_369" x="310.77" y="352.063" width="129.955" height="29.5833" filterUnits="userSpaceOnUse" color-interpolation-filters="sRGB">
<feFlood flood-opacity="0" result="BackgroundImageFix"/>
<feColorMatrix in="SourceAlpha" type="matrix" values="0 0 0 0 0 0 0 0 0 0 0 0 0 0 0 0 0 0 127 0" result="hardAlpha"/>
<feOffset/>
<feGaussianBlur stdDeviation="0.528274"/>
<feComposite in2="hardAlpha" operator="out"/>
<feColorMatrix type="matrix" values="0 0 0 0 0 0 0 0 0 0 0 0 0 0 0 0 0 0 0.25 0"/>
<feBlend mode="normal" in2="BackgroundImageFix" result="effect1_dropShadow_319_369"/>
<feBlend mode="normal" in="SourceGraphic" in2="effect1_dropShadow_319_369" result="shape"/>
</filter>
<clipPath id="clip0_319_369">
<rect width="25.3571" height="25.3571" fill="white" transform="translate(239.693 59.3989)"/>
</clipPath>
<clipPath id="clip1_319_369">
<rect x="0.142578" y="213.655" width="505.03" height="200.744" rx="12.6786" fill="white"/>
</clipPath>
<clipPath id="clip2_319_369">
<rect width="25.3571" height="25.3571" fill="white" transform="translate(21.2734 237.956)"/>
</clipPath>
</defs>
</svg>
