<svg width="47" height="46" viewBox="0 0 47 46" fill="none" xmlns="http://www.w3.org/2000/svg">
<path d="M46.9805 46H0.980469V0H46.9805V46Z" stroke="#E5E7EB"/>
<path d="M23.9805 0C24.3938 0 24.8071 0.0898438 25.1844 0.260547L42.102 7.43906C44.0786 8.27461 45.552 10.2242 45.543 12.5781C45.4981 21.4906 41.8325 37.7973 26.3524 45.2094C24.852 45.9281 23.109 45.9281 21.6086 45.2094C6.12856 37.7973 2.46293 21.4906 2.41801 12.5781C2.40903 10.2242 3.88246 8.27461 5.85903 7.43906L22.7856 0.260547C23.1539 0.0898438 23.5672 0 23.9805 0ZM23.9805 6.00156V39.9625C36.3789 33.9609 39.7122 20.673 39.793 12.7039L23.9805 6.00156Z" fill="#22C55E"/>
</svg>
