<svg width="72" height="70" viewBox="0 0 72 70" fill="none" xmlns="http://www.w3.org/2000/svg">
<rect width="72" height="70" rx="8" fill="#A6CE39"/>
<path d="M34.75 26.875V44.375C34.75 44.5408 34.6842 44.6997 34.5669 44.8169C34.4497 44.9342 34.2908 45 34.125 45H31V47.5H33.4578C33.7803 47.496 34.0924 47.6141 34.3314 47.8306C34.5705 48.047 34.7189 48.3459 34.7469 48.6672C34.7582 48.8382 34.7343 49.0097 34.6766 49.171C34.6189 49.3324 34.5286 49.4801 34.4114 49.6051C34.2942 49.7301 34.1525 49.8297 33.9952 49.8976C33.8378 49.9655 33.6682 50.0004 33.4969 50H26.0422C25.7192 50.0048 25.4063 49.887 25.1666 49.6705C24.9268 49.454 24.778 49.1547 24.75 48.8328C24.7386 48.6618 24.7626 48.4903 24.8203 48.329C24.878 48.1676 24.9683 48.0199 25.0855 47.8949C25.2027 47.7699 25.3444 47.6703 25.5017 47.6024C25.659 47.5345 25.8286 47.4996 26 47.5H28.5V45H21C20.0054 45 19.0516 44.6049 18.3483 43.9017C17.6451 43.1984 17.25 42.2446 17.25 41.25V30C17.25 29.0054 17.6451 28.0516 18.3483 27.3483C19.0516 26.6451 20.0054 26.25 21 26.25H34.125C34.2908 26.25 34.4497 26.3158 34.5669 26.4331C34.6842 26.5503 34.75 26.7092 34.75 26.875ZM54.75 22.5V47.5C54.75 48.163 54.4866 48.7989 54.0178 49.2678C53.5489 49.7366 52.913 50 52.25 50H39.75C39.087 50 38.4511 49.7366 37.9822 49.2678C37.5134 48.7989 37.25 48.163 37.25 47.5V22.5C37.25 21.837 37.5134 21.2011 37.9822 20.7322C38.4511 20.2634 39.087 20 39.75 20H52.25C52.913 20 53.5489 20.2634 54.0178 20.7322C54.4866 21.2011 54.75 21.837 54.75 22.5ZM47.8594 43.3703C47.9106 42.982 47.8389 42.5873 47.6543 42.2418C47.4697 41.8963 47.1816 41.6172 46.8303 41.4439C46.4791 41.2705 46.0823 41.2115 45.6958 41.2751C45.3093 41.3388 44.9524 41.5219 44.6753 41.7988C44.3982 42.0756 44.2147 42.4323 44.1507 42.8188C44.0867 43.2052 44.1453 43.602 44.3183 43.9535C44.4913 44.3049 44.7701 44.5933 45.1154 44.7782C45.4608 44.9631 45.8553 45.0352 46.2437 44.9844C46.6532 44.9308 47.0335 44.7435 47.3256 44.4517C47.6178 44.1598 47.8054 43.7797 47.8594 43.3703ZM51 31.1672C50.972 30.8453 50.8232 30.5461 50.5834 30.3295C50.3437 30.113 50.0308 29.9952 49.7078 30H42.2922C41.9697 29.996 41.6576 30.1141 41.4186 30.3306C41.1795 30.547 41.0311 30.8459 41.0031 31.1672C40.9918 31.3382 41.0157 31.5097 41.0734 31.671C41.1311 31.8324 41.2214 31.9801 41.3386 32.1051C41.4558 32.2301 41.5975 32.3297 41.7548 32.3976C41.9122 32.4655 42.0818 32.5004 42.2531 32.5H49.7531C49.9242 32.4999 50.0935 32.4648 50.2504 32.3966C50.4074 32.3285 50.5487 32.2289 50.6656 32.104C50.7825 31.979 50.8725 31.8314 50.93 31.6703C50.9875 31.5091 51.0113 31.3379 51 31.1672ZM51 26.1672C50.972 25.8453 50.8232 25.5461 50.5834 25.3295C50.3437 25.113 50.0308 24.9952 49.7078 25H42.2922C41.9692 24.9952 41.6563 25.113 41.4166 25.3295C41.1768 25.5461 41.028 25.8453 41 26.1672C40.9886 26.3382 41.0126 26.5097 41.0703 26.671C41.128 26.8324 41.2183 26.9801 41.3355 27.1051C41.4527 27.2301 41.5944 27.3297 41.7517 27.3976C41.909 27.4655 42.0786 27.5004 42.25 27.5H49.75C49.9214 27.5004 50.091 27.4655 50.2483 27.3976C50.4056 27.3297 50.5473 27.2301 50.6645 27.1051C50.7817 26.9801 50.872 26.8324 50.9297 26.671C50.9874 26.5097 51.0114 26.3382 51 26.1672Z" fill="white"/>
</svg>
