<svg width="148" height="30" viewBox="0 0 148 30" fill="none" xmlns="http://www.w3.org/2000/svg">
<mask id="mask0_319_244" style="mask-type:alpha" maskUnits="userSpaceOnUse" x="0" y="0" width="148" height="30">
<g clip-path="url(#clip0_319_244)">
<g clip-path="url(#clip1_319_244)">
<path d="M13.4983 13.2375C14.6676 13.2375 15.6156 12.2895 15.6156 11.1202C15.6156 9.951 14.6676 9.003 13.4983 9.003C12.3291 9.003 11.3811 9.951 11.3811 11.1202C11.3811 12.2895 12.3291 13.2375 13.4983 13.2375ZM13.1458 25.5877C14.3151 25.5877 15.2631 24.6398 15.2631 23.4705C15.2631 22.3013 14.3151 21.3533 13.1458 21.3533C11.9766 21.3533 11.0286 22.3013 11.0286 23.4705C11.0286 24.6398 11.9766 25.5877 13.1458 25.5877ZM11.3811 7.5915C11.7711 7.5915 12.0868 7.27575 12.0868 6.88575C12.0868 6.4965 11.7711 6.18 11.3811 6.18C10.9918 6.18 10.6753 6.4965 10.6753 6.88575C10.6753 7.27575 10.9918 7.5915 11.3811 7.5915ZM10.4991 17.472C10.7916 17.472 11.0286 17.235 11.0286 16.9425C11.0286 16.65 10.7916 16.413 10.4991 16.413C10.2066 16.413 9.96959 16.65 9.96959 16.9425C9.96959 17.235 10.2066 17.472 10.4991 17.472ZM24.0846 18.0007C24.3763 18.0007 24.6133 17.7645 24.6133 17.472C24.6133 17.1795 24.3763 16.9425 24.0846 16.9425C23.7921 16.9425 23.5551 17.1795 23.5551 17.472C23.5551 17.7645 23.7921 18.0007 24.0846 18.0007ZM18.9681 25.9403C19.2598 25.9403 19.4968 25.7033 19.4968 25.4115C19.4968 25.119 19.2598 24.882 18.9681 24.882C18.6756 24.882 18.4386 25.119 18.4386 25.4115C18.4386 25.7033 18.6756 25.9403 18.9681 25.9403ZM17.7328 15.0015C18.1228 15.0015 18.4386 14.6858 18.4386 14.2958C18.4386 13.9065 18.1228 13.5907 17.7328 13.5907C17.3428 13.5907 17.0271 13.9065 17.0271 14.2958C17.0271 14.6858 17.3428 15.0015 17.7328 15.0015ZM15.0861 18.8835C15.7686 18.8835 16.3213 18.33 16.3213 17.6483C16.3213 16.9665 15.7686 16.413 15.0861 16.413C14.4043 16.413 13.8516 16.9665 13.8516 17.6483C13.8516 18.33 14.4043 18.8835 15.0861 18.8835ZM22.6731 6.88575C23.2573 6.88575 23.7313 6.41175 23.7313 5.8275C23.7313 5.2425 23.2573 4.76925 22.6731 4.76925C22.0881 4.76925 21.6141 5.2425 21.6141 5.8275C21.6141 6.41175 22.0881 6.88575 22.6731 6.88575ZM22.2321 14.8253C23.8393 14.8253 25.1428 13.5217 25.1428 11.9145C25.1428 10.3065 23.8393 9.003 22.2321 9.003C20.6241 9.003 19.3206 10.3065 19.3206 11.9145C19.3206 13.5217 20.6241 14.8253 22.2321 14.8253ZM17.2033 8.29725C18.0808 8.29725 18.7911 7.58625 18.7911 6.7095C18.7911 5.83275 18.0808 5.12175 17.2033 5.12175C16.3266 5.12175 15.6156 5.83275 15.6156 6.7095C15.6156 7.58625 16.3266 8.29725 17.2033 8.29725ZM21.0853 23.4705C22.5463 23.4705 23.7313 22.2855 23.7313 20.8237C23.7313 19.3627 22.5463 18.1777 21.0853 18.1777C19.6236 18.1777 18.4386 19.3627 18.4386 20.8237C18.4386 22.2855 19.6236 23.4705 21.0853 23.4705ZM5.95784 29.9985C5.31359 30.0128 4.67009 29.9325 4.04909 29.76C3.60659 29.6355 3.20684 29.391 2.89334 29.0542C2.56184 28.6717 2.32634 28.2157 2.20709 27.7245C2.03309 27.006 1.95209 26.268 1.96709 25.5293V19.707C1.96709 18.624 1.79909 17.835 1.45559 17.2987C1.13009 16.818 0.647094 16.4663 0.0898438 16.3035V13.3627C1.03034 13.047 1.97234 12.2423 1.97234 10.2915V4.46925C1.97234 2.814 2.27759 1.64625 2.87759 0.97725C3.47759 0.309 4.53434 0.00525 6.04934 0.00525H8.02934V2.90925H7.96184C7.57109 2.90475 7.18034 2.92725 6.79259 2.976C6.44159 3.015 6.11159 3.1605 5.84684 3.3945C5.59859 3.64275 5.43659 3.96375 5.38259 4.31025C5.31809 4.68975 5.28959 5.07375 5.29634 5.4585V10.5998C5.30159 11.1135 5.27159 11.6272 5.20634 12.1365C5.16434 12.4642 5.07359 12.7837 4.93634 13.0837C4.80959 13.35 4.63334 13.5892 4.41734 13.7895C4.11509 14.067 3.79484 14.3243 3.45809 14.559L2.79959 15.0248L3.47234 15.4695C3.80159 15.6795 4.10684 15.9263 4.38059 16.2052C4.60034 16.4363 4.78259 16.7002 4.92059 16.9882C5.06534 17.3002 5.16134 17.6325 5.20634 17.973C5.26859 18.45 5.29784 18.9315 5.29484 19.4123V24.5535C5.28809 24.9285 5.31734 25.3027 5.38109 25.6725C5.43209 26.0092 5.58509 26.3235 5.81834 26.5718C6.06809 26.8103 6.38459 26.9655 6.72509 27.0165C7.12409 27.0817 7.52834 27.1103 7.93184 27.1035H8.02934V29.9985H5.95784ZM29.5078 29.9985C30.1521 30.0128 30.7956 29.9325 31.4166 29.76C31.8591 29.6355 32.2588 29.391 32.5723 29.0542C32.9016 28.6725 33.1348 28.218 33.2533 27.7275C33.4273 27.0098 33.5083 26.2717 33.4933 25.533V19.7108C33.4933 18.6278 33.6606 17.8387 34.0048 17.3025C34.3303 16.8188 34.8156 16.4648 35.3758 16.302V13.3627C34.4353 13.047 33.4933 12.2423 33.4933 10.2915V4.46925C33.4933 2.814 33.1881 1.64625 32.5881 0.97725C31.9881 0.309 30.9313 0 29.4126 0H27.4363V2.90925H27.5038C27.8946 2.90475 28.2853 2.92725 28.6731 2.976C29.0241 3.015 29.3541 3.1605 29.6188 3.3945C29.8671 3.64275 30.0291 3.96375 30.0831 4.31025C30.1476 4.68975 30.1761 5.07375 30.1693 5.4585V10.5998C30.1626 11.1135 30.1911 11.6272 30.2541 12.1365C30.2961 12.4642 30.3868 12.7837 30.5241 13.0837C30.6508 13.35 30.8271 13.5892 31.0423 13.7895C31.3453 14.067 31.6656 14.3243 32.0023 14.559L32.6608 15.0248L31.9881 15.4695C31.6588 15.6795 31.3536 15.9263 31.0798 16.2052C30.8593 16.4363 30.6778 16.7002 30.5398 16.9882C30.3943 17.3025 30.2983 17.637 30.2541 17.9797C30.1933 18.4545 30.1648 18.9323 30.1693 19.4108V24.552C30.1753 24.927 30.1468 25.3013 30.0831 25.6702C30.0411 26.0123 29.8858 26.3302 29.6421 26.574C29.3983 26.8177 29.0803 26.973 28.7383 27.015C28.3393 27.0795 27.9358 27.1087 27.5316 27.1012H27.4363V29.9985H29.5078Z" fill="black"/>
<path d="M83.6696 24.5647C83.2511 25.2165 82.7396 25.7287 82.1373 26.1C81.5208 26.4765 80.7956 26.664 79.9601 26.664C79.0931 26.664 78.3153 26.4922 77.6261 26.1472C76.9481 25.803 76.3631 25.2907 75.8726 24.6127C75.3918 23.934 75.0266 23.0932 74.7761 22.0905C74.5256 21.078 74.4003 19.9035 74.4003 18.567V17.235C74.4003 15.8467 74.5256 14.646 74.7761 13.6327C75.0266 12.6097 75.3918 11.7585 75.8726 11.0797C76.3631 10.401 76.9533 9.89996 77.6418 9.57671C78.3311 9.25271 79.1088 9.09071 79.9758 9.09071C80.8218 9.09071 81.5523 9.28421 82.1688 9.67046C82.6758 9.98021 83.1198 10.3995 83.5001 10.929V2.29346H87.1496V26.3512L83.8443 26.3662L83.6696 24.5647ZM83.5001 13.8907C83.4048 13.6972 83.2946 13.512 83.1708 13.335C82.9203 12.9802 82.6121 12.7035 82.2468 12.5055C81.8921 12.2962 81.4743 12.192 80.9936 12.192C80.4611 12.192 80.0073 12.2962 79.6316 12.5055C79.2551 12.7035 78.9528 13.0117 78.7226 13.4295C78.4931 13.8367 78.3206 14.3587 78.2058 14.9955C78.1016 15.6217 78.0491 16.3687 78.0491 17.235V18.567C78.0491 19.4332 78.1016 20.1802 78.2058 20.8065C78.3101 21.4327 78.4773 21.9495 78.7076 22.3567C78.9371 22.7535 79.2401 23.0512 79.6158 23.25C79.9916 23.4375 80.4461 23.5312 80.9786 23.5312C81.6468 23.5312 82.1891 23.3647 82.6068 23.0302C82.9796 22.7392 83.2773 22.3612 83.5001 21.8962V13.8907ZM91.3083 24.7065C90.7136 24.0487 90.2591 23.2447 89.9456 22.2945C89.6328 21.3337 89.4761 20.2215 89.4761 18.9585V17.3295C89.4761 15.8992 89.6381 14.667 89.9613 13.6335C90.2958 12.5887 90.7548 11.733 91.3398 11.064C91.9248 10.3965 92.6133 9.89996 93.4068 9.57671C94.2108 9.25271 95.0831 9.09071 96.0228 9.09071C97.0878 9.09071 98.0118 9.26321 98.7948 9.60746C99.5778 9.95246 100.221 10.4692 100.722 11.1585C101.233 11.8477 101.609 12.6982 101.849 13.7115C102.1 14.724 102.225 15.8887 102.225 17.2042V19.0365H93.1256C93.1301 19.848 93.2028 20.5372 93.3446 21.1042C93.5013 21.6885 93.7308 22.1692 94.0338 22.545C94.3368 22.9102 94.7021 23.1817 95.1303 23.3595C95.5683 23.5267 96.0753 23.61 96.6491 23.61C97.4951 23.61 98.2211 23.4532 98.8263 23.1397C99.4428 22.8165 99.9753 22.3987 100.424 21.8872L102.037 24.1267C101.734 24.534 101.327 24.936 100.815 25.3327C100.304 25.719 99.6828 26.0377 98.9516 26.2882C98.2316 26.5387 97.3856 26.664 96.4143 26.664C95.3178 26.664 94.3421 26.502 93.4856 26.1787C92.6291 25.8442 91.9038 25.3537 91.3083 24.7065ZM98.6231 16.2802V15.8887C98.6021 15.1155 98.5076 14.4525 98.3411 13.8997C98.1738 13.3357 97.9023 12.9075 97.5266 12.615C97.1606 12.312 96.6543 12.1605 96.0071 12.1605C95.5376 12.1605 95.1198 12.2497 94.7546 12.4267C94.3886 12.6045 94.0856 12.8917 93.8456 13.2885C93.6161 13.6852 93.4383 14.2177 93.3131 14.886C93.2358 15.291 93.1826 15.756 93.1533 16.2802H98.6231ZM59.3711 18.567V17.2042C59.3711 15.8887 59.5331 14.724 59.8563 13.7115C60.1803 12.6982 60.6401 11.853 61.2348 11.1742C61.8408 10.485 62.5503 9.96821 63.3648 9.62321C64.1793 9.26846 65.0771 9.09071 66.0588 9.09071C67.0616 9.09071 67.9698 9.26846 68.7843 9.62321C69.6086 9.96821 70.3188 10.485 70.9143 11.1742C71.5196 11.853 71.9846 12.6982 72.3078 13.7115C72.6318 14.724 72.7938 15.8887 72.7938 17.2042V18.567C72.7938 19.8825 72.6318 21.0465 72.3078 22.0597C71.9846 23.0722 71.5196 23.9235 70.9143 24.6127C70.3188 25.2907 69.6146 25.803 68.8001 26.1472C67.9856 26.4922 67.0818 26.664 66.0903 26.664C65.1086 26.664 64.2056 26.4922 63.3806 26.1472C62.5661 25.803 61.8558 25.2907 61.2506 24.6127C60.6446 23.9235 60.1803 23.0722 59.8563 22.0597C59.5331 21.0465 59.3711 19.8825 59.3711 18.567ZM63.0206 17.2042V18.567C63.0206 19.4122 63.0933 20.154 63.2396 20.7907C63.3858 21.417 63.5943 21.939 63.8658 22.3567C64.1373 22.7745 64.4613 23.088 64.8371 23.2965C65.2128 23.5057 65.6306 23.61 66.0903 23.61C66.6018 23.61 67.0458 23.5057 67.4216 23.2965C67.8078 23.088 68.1266 22.7745 68.3771 22.3567C68.6381 21.939 68.8308 21.417 68.9568 20.7907C69.0821 20.154 69.1443 19.4122 69.1443 18.567V17.2042C69.1443 16.3687 69.0716 15.6375 68.9253 15.0112C68.7791 14.3745 68.5698 13.8472 68.2983 13.4295C68.0268 13.0012 67.6983 12.6832 67.3121 12.474C66.9363 12.2655 66.5186 12.1605 66.0588 12.1605C65.6096 12.1605 65.1978 12.2655 64.8213 12.474C64.4561 12.6832 64.1373 13.0012 63.8658 13.4295C63.5943 13.8472 63.3858 14.3745 63.2396 15.0112C63.0933 15.6375 63.0206 16.3687 63.0206 17.2042Z" fill="black"/>
<path d="M57.7988 18.8533H54.0083C53.9453 20.0023 53.7833 20.9105 53.5223 21.5788C53.2613 22.247 52.8593 22.7218 52.3163 23.0038C51.7838 23.2858 51.0691 23.4268 50.1706 23.4268C49.4191 23.4268 48.7928 23.2858 48.2911 23.0038C47.7901 22.7113 47.3881 22.2883 47.0851 21.7355C46.7828 21.1715 46.5631 20.4875 46.4273 19.6835C46.2916 18.8795 46.2241 17.9555 46.2241 16.9115V12.839C46.2241 11.753 46.3021 10.808 46.4588 10.004C46.6261 9.18954 46.8713 8.51604 47.1953 7.98354C47.5291 7.44054 47.9521 7.03329 48.4636 6.76179C48.9856 6.49029 49.6073 6.35454 50.3273 6.35454C51.1943 6.35454 51.8836 6.50604 52.3951 6.80904C52.9171 7.11204 53.3033 7.60779 53.5538 8.29704C53.8148 8.97579 53.9716 9.88404 54.0241 11.0225H57.8138C57.7201 9.34104 57.3811 7.91604 56.7961 6.74604C56.2111 5.57679 55.3816 4.68954 54.3061 4.08354C53.2298 3.47829 51.9038 3.17529 50.3273 3.17529C49.0951 3.17529 47.9888 3.39429 47.0071 3.83304C46.0358 4.26129 45.2108 4.89279 44.5321 5.72829C43.8533 6.56379 43.3313 7.58154 42.9661 8.78229C42.6113 9.98304 42.4336 11.3458 42.4336 12.8705V16.9115C42.4336 18.4355 42.6061 19.7983 42.9503 20.999C43.3058 22.1998 43.8173 23.2175 44.4856 24.053C45.1538 24.878 45.9631 25.5095 46.9133 25.9483C47.8733 26.387 48.9593 26.606 50.1706 26.606C51.7688 26.606 53.1203 26.3038 54.2273 25.6978C55.3448 25.0925 56.2006 24.215 56.7961 23.0668C57.3908 21.9073 57.7253 20.5033 57.7988 18.8533Z" fill="black"/>
<path d="M135.313 2.29346H137.068V11.751C137.239 11.4322 137.438 11.1285 137.663 10.845C138.112 10.281 138.645 9.84746 139.261 9.54521C139.876 9.24221 140.597 9.09071 141.422 9.09071C142.299 9.09071 143.077 9.24221 143.755 9.54521C144.434 9.84746 145.009 10.3177 145.479 10.9545C145.948 11.5912 146.303 12.4215 146.543 13.4452C146.784 14.4577 146.904 15.6742 146.904 17.094V18.6757C146.904 20.0437 146.784 21.2295 146.543 22.2315C146.303 23.2342 145.948 24.0637 145.479 24.7215C145.009 25.38 144.434 25.8705 143.755 26.1937C143.087 26.5177 142.32 26.6797 141.454 26.6797C140.608 26.6797 139.866 26.5282 139.229 26.2252C138.599 25.9282 138.043 25.4947 137.6 24.957C137.386 24.69 137.194 24.405 137.028 24.105L136.942 26.3505H135.313V2.29346ZM137.068 22.2067C137.174 22.4565 137.294 22.7002 137.428 22.9365C137.783 23.5522 138.263 24.054 138.869 24.4402C139.474 24.816 140.216 25.0042 141.093 25.0042C141.803 25.0042 142.408 24.8782 142.91 24.6277C143.422 24.3667 143.845 23.9752 144.178 23.4532C144.513 22.9312 144.758 22.2787 144.915 21.4957C145.072 20.7022 145.15 19.7625 145.15 18.6765V17.094C145.15 16.0185 145.072 15.0847 144.915 14.2912C144.769 13.4872 144.529 12.8242 144.194 12.3015C143.871 11.7795 143.448 11.3932 142.926 11.1427C142.414 10.8817 141.793 10.7512 141.062 10.7512C140.341 10.7512 139.72 10.887 139.198 11.1585C138.686 11.4195 138.258 11.769 137.914 12.2077C137.579 12.6472 137.31 13.1325 137.115 13.6485C137.099 13.6897 137.083 13.731 137.068 13.7722V22.2067ZM127.207 26.2725C126.592 26.544 125.897 26.6797 125.125 26.6797C124.195 26.6797 123.381 26.502 122.681 26.1472C121.992 25.7925 121.454 25.2547 121.068 24.534C120.692 23.8132 120.504 22.926 120.504 21.8715C120.504 21.0885 120.634 20.3677 120.895 19.71C121.167 19.0522 121.569 18.483 122.101 18.003C122.634 17.5125 123.302 17.1307 124.106 16.8592C124.91 16.5877 125.845 16.452 126.91 16.452H129.776V14.0872C129.776 13.2937 129.64 12.6517 129.369 12.1605C129.097 11.6595 128.701 11.2942 128.179 11.064C127.657 10.8345 127.015 10.7197 126.252 10.7197C125.532 10.7197 124.889 10.866 124.326 11.1585C123.772 11.4405 123.339 11.8372 123.025 12.3487C122.723 12.8497 122.572 13.4295 122.572 14.0872L120.833 14.0715C120.832 13.4295 120.965 12.795 121.225 12.2077C121.483 11.6055 121.861 11.0617 122.336 10.6102C122.817 10.1407 123.391 9.76946 124.06 9.49796C124.738 9.22646 125.49 9.09071 126.315 9.09071C127.327 9.09071 128.225 9.25271 129.009 9.57671C129.792 9.89996 130.402 10.4325 130.841 11.1742C131.29 11.9152 131.515 12.897 131.515 14.1187V22.7797C131.515 23.3925 131.552 24.0045 131.624 24.6127C131.707 25.239 131.818 25.7505 131.953 26.1472V26.3512H130.105C129.99 25.9852 129.907 25.521 129.854 24.957C129.825 24.63 129.803 24.312 129.79 24.0022C129.526 24.4327 129.197 24.84 128.805 25.2232C128.356 25.6515 127.823 26.001 127.207 26.2725ZM129.196 23.0932C129.439 22.7595 129.632 22.416 129.776 22.0612V17.94H127.176C126.361 17.94 125.647 18.0292 125.03 18.2062C124.414 18.384 123.898 18.6397 123.48 18.9735C123.073 19.308 122.764 19.7047 122.556 20.1645C122.347 20.6235 122.242 21.1455 122.242 21.7305C122.242 22.482 122.362 23.0985 122.602 23.5785C122.843 24.0487 123.193 24.3982 123.652 24.6277C124.122 24.8475 124.681 24.957 125.328 24.957C126.184 24.957 126.936 24.7897 127.583 24.456C128.241 24.111 128.779 23.6572 129.196 23.0932Z" fill="black"/>
<path d="M118.718 26.3333V24.6571H109.352V3.52881H107.535V26.3333H118.718Z" fill="black"/>
</g>
</g>
</mask>
<g mask="url(#mask0_319_244)">
<rect x="0.0898438" width="147" height="30" fill="#A4A7AE"/>
</g>
<defs>
<clipPath id="clip0_319_244">
<rect width="147" height="30" fill="white" transform="translate(0.0898438)"/>
</clipPath>
<clipPath id="clip1_319_244">
<rect width="147" height="30" fill="white" transform="translate(0.0898438)"/>
</clipPath>
</defs>
</svg>
