<svg width="21" height="21" viewBox="0 0 21 21" fill="none" xmlns="http://www.w3.org/2000/svg">
<mask id="mask0_116_1499" style="mask-type:alpha" maskUnits="userSpaceOnUse" x="0" y="0" width="21" height="21">
<g clip-path="url(#clip0_116_1499)">
<g clip-path="url(#clip1_116_1499)">
<path d="M9.08008 6.59009C9.08008 7.28059 9.63958 7.84009 10.3301 7.84009C11.0206 7.84009 11.5801 7.28059 11.5801 6.59009V1.59009C11.5801 0.899588 11.0206 0.340088 10.3301 0.340088C9.63958 0.340088 9.08008 0.899588 9.08008 1.59009V6.59009ZM9.08008 19.0901C9.08008 19.7806 9.63958 20.3401 10.3301 20.3401C11.0206 20.3401 11.5801 19.7806 11.5801 19.0901V14.0901C11.5801 13.3996 11.0206 12.8401 10.3301 12.8401C9.63958 12.8401 9.08008 13.3996 9.08008 14.0901V19.0901ZM12.0981 8.57259C11.8636 8.33809 11.7321 8.02009 11.7321 7.68859C11.7321 7.35709 11.8636 7.03909 12.0981 6.80459L15.6336 3.26909C16.1221 2.78459 16.9106 2.78609 17.3976 3.27259C17.8841 3.75909 17.8861 4.54759 17.4016 5.03659L13.8661 8.57259C13.6316 8.80709 13.3136 8.93859 12.9821 8.93859C12.6506 8.93859 12.3326 8.80709 12.0981 8.57259ZM3.25958 15.6436C2.93458 15.9576 2.80408 16.4221 2.91858 16.8591C3.03308 17.2961 3.37458 17.6376 3.81158 17.7521C4.24858 17.8666 4.71308 17.7361 5.02708 17.4111L8.56258 13.8761C9.04708 13.3876 9.04558 12.5991 8.55908 12.1121C8.07258 11.6256 7.28408 11.6236 6.79508 12.1081L3.25958 15.6436ZM12.0981 12.1081C12.5861 11.6201 13.3776 11.6201 13.8656 12.1081L17.4011 15.6431C17.8856 16.1316 17.8841 16.9201 17.3976 17.4071C16.9111 17.8936 16.1226 17.8956 15.6336 17.4111L12.0981 13.8761C11.8636 13.6416 11.7321 13.3236 11.7321 12.9921C11.7321 12.6606 11.8636 12.3426 12.0981 12.1081ZM5.02708 3.26909C4.53858 2.78459 3.75008 2.78609 3.26308 3.27259C2.77658 3.75909 2.77458 4.54759 3.25908 5.03659L6.79458 8.57209C7.28308 9.05659 8.07158 9.05509 8.55858 8.56859C9.04508 8.08209 9.04708 7.29359 8.56258 6.80459L5.02708 3.26909ZM12.8301 10.3401C12.8301 9.64959 13.3896 9.09009 14.0801 9.09009H19.0801C19.7706 9.09009 20.3301 9.64959 20.3301 10.3401C20.3301 11.0306 19.7706 11.5901 19.0801 11.5901H14.0801C13.3896 11.5901 12.8301 11.0306 12.8301 10.3401ZM1.58008 9.09009C0.889578 9.09009 0.330078 9.64959 0.330078 10.3401C0.330078 11.0306 0.889578 11.5901 1.58008 11.5901H6.58008C7.27058 11.5901 7.83008 11.0306 7.83008 10.3401C7.83008 9.64959 7.27058 9.09009 6.58008 9.09009H1.58008Z" fill="black"/>
</g>
</g>
</mask>
<g mask="url(#mask0_116_1499)">
<rect x="0.330078" y="0.340088" width="20" height="20" fill="#717680"/>
</g>
<defs>
<clipPath id="clip0_116_1499">
<rect width="20" height="20" fill="white" transform="translate(0.330078 0.340088)"/>
</clipPath>
<clipPath id="clip1_116_1499">
<rect width="20" height="20" fill="white" transform="translate(0.330078 0.340088)"/>
</clipPath>
</defs>
</svg>
