<svg width="11" height="10" viewBox="0 0 11 10" fill="none" xmlns="http://www.w3.org/2000/svg">
<path d="M1.06508 4.41372C1.11921 4.45446 1.18084 4.48413 1.24644 4.50104C1.31205 4.51795 1.38034 4.52177 1.44742 4.51227C1.5145 4.50277 1.57905 4.48015 1.63739 4.44569C1.69572 4.41123 1.74669 4.36562 1.78738 4.31145C1.97949 4.05522 2.22863 3.84724 2.51506 3.70399C2.80149 3.56075 3.11734 3.48617 3.4376 3.48617C3.75785 3.48617 4.0737 3.56075 4.36014 3.70399C4.64657 3.84724 4.8957 4.05522 5.08781 4.31145C5.16993 4.42079 5.29211 4.49303 5.42748 4.51229C5.56286 4.53155 5.70034 4.49625 5.80969 4.41415C5.84835 4.3848 5.88277 4.35024 5.91195 4.31145C6.10406 4.05522 6.3532 3.84724 6.63963 3.70399C6.92606 3.56075 7.24191 3.48617 7.56217 3.48617C7.88242 3.48617 8.19827 3.56075 8.48471 3.70399C8.77114 3.84724 9.02027 4.05522 9.21238 4.31145C9.25267 4.36657 9.3035 4.41314 9.36193 4.44846C9.42036 4.48377 9.48522 4.50714 9.55275 4.51719C9.62028 4.52724 9.68913 4.52378 9.75531 4.50701C9.82149 4.49024 9.88368 4.4605 9.93828 4.4195C9.99287 4.37851 10.0388 4.32708 10.0733 4.2682C10.1079 4.20932 10.1304 4.14416 10.1396 4.07651C10.1488 4.00886 10.1444 3.94006 10.1268 3.8741C10.1092 3.80814 10.0786 3.74634 10.037 3.69227C9.75011 3.30823 9.37796 2.99609 8.94984 2.78048C9.13718 2.52425 9.24991 2.22114 9.27553 1.90476C9.30114 1.58838 9.23865 1.27109 9.09497 0.988056C8.95129 0.705023 8.73204 0.467304 8.46153 0.301253C8.19101 0.135202 7.8798 0.0473046 7.56238 0.0473046C7.24497 0.0473046 6.93375 0.135202 6.66324 0.301253C6.39272 0.467304 6.17347 0.705023 6.0298 0.988056C5.88612 1.27109 5.82362 1.58838 5.84924 1.90476C5.87485 2.22114 5.98758 2.52425 6.17492 2.78048C5.93024 2.90318 5.70319 3.05826 5.49988 3.24153C5.2966 3.05811 5.06955 2.90289 4.82484 2.78005C5.01218 2.52382 5.12491 2.22071 5.15053 1.90433C5.17614 1.58795 5.11365 1.27066 4.96997 0.987627C4.82629 0.704593 4.60704 0.466875 4.33653 0.300824C4.06601 0.134772 3.7548 0.046875 3.43738 0.046875C3.11997 0.046875 2.80875 0.134772 2.53824 0.300824C2.26772 0.466875 2.04847 0.704593 1.9048 0.987627C1.76112 1.27066 1.69862 1.58795 1.72424 1.90433C1.74985 2.22071 1.86258 2.52382 2.04992 2.78005C1.62181 2.99566 1.24965 3.3078 0.962812 3.69184C0.880669 3.80114 0.845297 3.93859 0.864475 4.07396C0.883652 4.20933 0.955809 4.33154 1.06508 4.41372ZM7.56238 1.07977C7.69836 1.07977 7.83128 1.1201 7.94434 1.19564C8.0574 1.27118 8.14551 1.37856 8.19755 1.50418C8.24958 1.6298 8.2632 1.76804 8.23667 1.9014C8.21014 2.03476 8.14467 2.15726 8.04852 2.25341C7.95237 2.34956 7.82987 2.41504 7.69651 2.44156C7.56314 2.46809 7.42491 2.45448 7.29929 2.40244C7.17366 2.35041 7.06629 2.26229 6.99075 2.14923C6.9152 2.03617 6.87488 1.90325 6.87488 1.76727C6.87488 1.58494 6.94731 1.41007 7.07625 1.28114C7.20518 1.15221 7.38005 1.07977 7.56238 1.07977ZM3.43738 1.07977C3.57336 1.07977 3.70628 1.1201 3.81934 1.19564C3.9324 1.27118 4.02051 1.37856 4.07255 1.50418C4.12458 1.6298 4.1382 1.76804 4.11167 1.9014C4.08514 2.03476 4.01967 2.15726 3.92352 2.25341C3.82737 2.34956 3.70487 2.41504 3.57151 2.44156C3.43814 2.46809 3.29991 2.45448 3.17429 2.40244C3.04866 2.35041 2.94129 2.26229 2.86575 2.14923C2.7902 2.03617 2.74988 1.90325 2.74988 1.76727C2.74988 1.58494 2.82232 1.41007 2.95125 1.28114C3.08018 1.15221 3.25505 1.07977 3.43738 1.07977ZM8.94984 7.59255C9.13718 7.33632 9.24991 7.03321 9.27553 6.71683C9.30114 6.40045 9.23865 6.08316 9.09497 5.80013C8.95129 5.51709 8.73204 5.27937 8.46153 5.11332C8.19101 4.94727 7.8798 4.85937 7.56238 4.85937C7.24497 4.85937 6.93375 4.94727 6.66324 5.11332C6.39272 5.27937 6.17347 5.51709 6.0298 5.80013C5.88612 6.08316 5.82362 6.40045 5.84924 6.71683C5.87485 7.03321 5.98758 7.33632 6.17492 7.59255C5.93033 7.71539 5.70329 7.87046 5.49988 8.0536C5.29647 7.87046 5.06944 7.71539 4.82484 7.59255C5.01218 7.33632 5.12491 7.03321 5.15053 6.71683C5.17614 6.40045 5.11365 6.08316 4.96997 5.80013C4.82629 5.51709 4.60704 5.27937 4.33653 5.11332C4.06601 4.94727 3.7548 4.85937 3.43738 4.85937C3.11997 4.85937 2.80875 4.94727 2.53824 5.11332C2.26772 5.27937 2.04847 5.51709 1.9048 5.80013C1.76112 6.08316 1.69862 6.40045 1.72424 6.71683C1.74985 7.03321 1.86258 7.33632 2.04992 7.59255C1.62181 7.80816 1.24965 8.1203 0.962812 8.50434C0.880647 8.61369 0.845284 8.7512 0.864503 8.88661C0.883721 9.02203 0.955948 9.14427 1.06529 9.22643C1.17464 9.3086 1.31214 9.34396 1.44756 9.32474C1.58298 9.30553 1.70522 9.2333 1.78738 9.12395C1.97949 8.86772 2.22863 8.65974 2.51506 8.51649C2.80149 8.37325 3.11734 8.29867 3.4376 8.29867C3.75785 8.29867 4.0737 8.37325 4.36014 8.51649C4.64657 8.65974 4.8957 8.86772 5.08781 9.12395C5.16993 9.23329 5.29211 9.30553 5.42748 9.32479C5.56286 9.34405 5.70034 9.30875 5.80969 9.22665C5.84835 9.1973 5.88277 9.16274 5.91195 9.12395C6.10406 8.86772 6.3532 8.65974 6.63963 8.51649C6.92606 8.37325 7.24191 8.29867 7.56217 8.29867C7.88242 8.29867 8.19827 8.37325 8.48471 8.51649C8.77114 8.65974 9.02027 8.86772 9.21238 9.12395C9.25267 9.17907 9.3035 9.22564 9.36193 9.26096C9.42036 9.29628 9.48522 9.31964 9.55275 9.32969C9.62028 9.33974 9.68913 9.33628 9.75531 9.31951C9.82149 9.30274 9.88368 9.273 9.93828 9.232C9.99287 9.19101 10.0388 9.13958 10.0733 9.0807C10.1079 9.02182 10.1304 8.95666 10.1396 8.88901C10.1488 8.82136 10.1444 8.75256 10.1268 8.6866C10.1092 8.62064 10.0786 8.55884 10.037 8.50478C9.75027 8.12047 9.37808 7.80816 8.94984 7.59255ZM3.43738 5.89227C3.57336 5.89227 3.70628 5.9326 3.81934 6.00814C3.9324 6.08368 4.02051 6.19106 4.07255 6.31668C4.12458 6.4423 4.1382 6.58054 4.11167 6.7139C4.08514 6.84726 4.01967 6.96976 3.92352 7.06591C3.82737 7.16206 3.70487 7.22754 3.57151 7.25406C3.43814 7.28059 3.29991 7.26698 3.17429 7.21494C3.04866 7.16291 2.94129 7.07479 2.86575 6.96173C2.7902 6.84867 2.74988 6.71575 2.74988 6.57977C2.74988 6.39744 2.82232 6.22257 2.95125 6.09364C3.08018 5.96471 3.25505 5.89227 3.43738 5.89227ZM7.56238 5.89227C7.69836 5.89227 7.83128 5.9326 7.94434 6.00814C8.0574 6.08368 8.14551 6.19106 8.19755 6.31668C8.24958 6.4423 8.2632 6.58054 8.23667 6.7139C8.21014 6.84726 8.14467 6.96976 8.04852 7.06591C7.95237 7.16206 7.82987 7.22754 7.69651 7.25406C7.56314 7.28059 7.42491 7.26698 7.29929 7.21494C7.17366 7.16291 7.06629 7.07479 6.99075 6.96173C6.9152 6.84867 6.87488 6.71575 6.87488 6.57977C6.87488 6.39744 6.94731 6.22257 7.07625 6.09364C7.20518 5.96471 7.38005 5.89227 7.56238 5.89227Z" fill="#F5F5F7"/>
</svg>
