<svg width="1252" height="599" viewBox="0 0 1252 599" fill="none" xmlns="http://www.w3.org/2000/svg">
<g filter="url(#filter0_dd_5_2)">
<g clip-path="url(#clip0_5_2)">
<rect x="26" y="7.56543" width="1200" height="548" rx="12" fill="url(#paint0_radial_5_2)"/>
<g clip-path="url(#clip1_5_2)">
<g style="mix-blend-mode:hard-light" clip-path="url(#clip2_5_2)">
<g clip-path="url(#clip3_5_2)">
<g clip-path="url(#clip4_5_2)">
<g clip-path="url(#clip5_5_2)">
<mask id="mask0_5_2" style="mask-type:luminance" maskUnits="userSpaceOnUse" x="-178" y="-347" width="727" height="826">
<path d="M548.043 141.222L-39.6662 478.832L-177.985 -9.03148L409.724 -346.643L548.043 141.222Z" fill="white"/>
</mask>
<g mask="url(#mask0_5_2)">
<g opacity="0.6">
<path style="mix-blend-mode:soft-light" opacity="0.5" d="M67.0156 417.547C67.0156 417.547 72.9341 136.759 431.154 94.1453L408.585 -99.9827L-56.6743 53.9706L-11.0933 446.014L67.0156 417.547Z" fill="url(#paint1_linear_5_2)"/>
<path d="M66.5572 376.859C66.5572 376.859 31.051 105.864 385.039 -18.1378L333.675 -199.309L-111.529 56.4387L-7.79901 422.309L66.5572 376.859Z" fill="url(#paint2_linear_5_2)"/>
<path d="M2.08718 322.147C2.08718 322.147 8.00561 41.3582 366.225 -1.25613L343.656 -195.383L-121.603 -41.4298L-76.0186 350.605L2.09034 322.138L2.08718 322.147Z" fill="url(#paint3_linear_5_2)"/>
<path d="M2.08718 322.147C2.08718 322.147 8.00561 41.3582 366.225 -1.25613L343.656 -195.383L-121.603 -41.4298L-76.0186 350.605L2.09034 322.138L2.08718 322.147Z" fill="url(#paint4_linear_5_2)"/>
<path d="M449.252 -207.232C449.252 -207.232 410.946 -101.476 233.761 -50.2274C98.5057 -11.1013 36.1792 47.0215 -30.8981 182.643L-96.9501 119.052C-96.9501 119.052 -62.4998 5.94892 83.0131 -72.1221C228.525 -150.198 310.98 -90.2145 416.211 -248.137L449.252 -207.232Z" fill="url(#paint5_linear_5_2)"/>
<path d="M443.73 -162.834C443.73 -162.834 405.424 -57.0787 228.239 -5.83017C92.9834 33.296 30.6579 91.4187 -36.4194 227.039L-102.472 163.447C-102.472 163.447 -66.4635 62.0776 79.0484 -15.9987C224.56 -94.075 317.641 -24.9965 422.872 -182.92L443.73 -162.834Z" fill="url(#paint6_linear_5_2)"/>
<path d="M467.308 -128.647C467.308 -128.647 422.669 -26.0734 244.509 7.52005C108.508 33.1675 43.2473 85.3497 -31.7149 215.069L-92.7821 144.339C-92.7821 144.339 -50.6957 45.9464 97.9472 -17.8671C246.591 -81.6817 333.972 -2.68119 448.028 -150.979L467.309 -128.641L467.308 -128.647Z" fill="url(#paint7_linear_5_2)"/>
<path d="M459.03 -112.982C459.03 -112.982 410.369 -12.873 232.198 8.94161C96.1914 25.5966 29.2248 73.6699 -50.6789 199.033L-108.238 123.838C-108.238 123.838 -62.286 27.7612 87.8903 -26.4139C238.067 -80.5889 321.378 4.68301 440.852 -136.727L459.03 -112.982Z" fill="url(#paint8_linear_5_2)"/>
<path d="M450.455 -121.361C450.455 -121.361 412.456 -15.4739 235.338 36.5977C100.14 76.3498 37.959 134.743 -28.7368 270.617L-95.0142 207.366C-95.0142 207.366 -59.2973 105.875 86.046 27.1436C231.389 -51.5882 327.003 25.7968 431.801 -132.554L450.45 -121.357L450.455 -121.361Z" fill="url(#paint9_linear_5_2)"/>
<path d="M375.839 -34.2552C375.839 -34.2552 308.496 11.0117 192.748 -3.51453C104.395 -14.5999 45.7565 0.794651 -50.0171 54.7168L-56.2 7.02077C-56.2 7.02077 7.97926 -36.5294 119.123 -43.0011C230.267 -49.4717 248.154 7.23892 373.882 -49.3147L375.834 -34.2521L375.839 -34.2552Z" fill="url(#paint10_linear_5_2)"/>
<path d="M368.459 2.33098C368.459 2.33098 310.271 58.3292 197.203 65.8252C110.888 71.5465 56.8261 97.213 -27.3994 166.802L-40.074 122.096C-40.074 122.096 15.3204 68.3323 121.003 41.5088C226.686 14.6863 251.867 65.8874 364.456 -11.7863L368.459 2.33098Z" fill="url(#paint11_linear_5_2)"/>
<path d="M361.168 -9.5353C361.168 -9.5353 301.637 47.6527 189.501 44.351C103.902 41.826 48.9401 62.4751 -38.5038 124.438L-48.2941 78.2269C-48.2941 78.2269 9.70119 29.4254 115.719 12.5681C221.736 -4.29031 243.484 49.6624 359.428 -17.7153L361.163 -9.53214L361.168 -9.5353Z" fill="url(#paint12_linear_5_2)"/>
<path d="M-38.5038 124.438C48.9401 62.4751 103.902 41.826 189.501 44.351C301.637 47.6527 361.168 -9.5353 361.168 -9.5353L361.163 -9.53214L359.429 -17.7153" stroke="white" stroke-opacity="0.5" stroke-width="1.05385"/>
<path d="M358.306 -25.442C358.306 -25.442 293.959 21.9526 182.865 11.0832C98.0578 2.78733 42.6508 19.8417 -46.7396 76.2393L-54.4716 29.1272C-54.4716 29.1272 5.1497 -16.0249 111.042 -25.8341C216.935 -35.6433 236.92 24.485 354.824 -35.4336L358.309 -25.4515L358.306 -25.442Z" fill="url(#paint13_linear_5_2)"/>
<path d="M365.052 -14.8235C365.052 -14.8235 299.812 35.8349 182.543 31.59C93.0236 28.3547 34.8819 48.7034 -58.4836 110.408L-67.3539 63.7787C-67.3539 63.7787 -5.19906 15.09 106.268 -1.02651C217.737 -17.143 238.893 37.3746 362.255 -29.551L365.057 -14.8266L365.052 -14.8235Z" fill="url(#paint14_linear_5_2)"/>
<path d="M361.592 -17.6374C361.592 -17.6374 295.242 30.2999 178.676 20.8227C89.6966 13.5828 31.264 31.4244 -63.382 89.2005L-70.8874 41.9987C-70.8874 41.9987 -7.66721 -4.10075 103.703 -15.32C215.074 -26.5371 234.577 29.1365 359.217 -32.5514L361.589 -17.6479L361.592 -17.6374Z" fill="url(#paint15_linear_5_2)"/>
</g>
</g>
</g>
</g>
</g>
</g>
<g style="mix-blend-mode:hard-light" clip-path="url(#clip6_5_2)">
<g clip-path="url(#clip7_5_2)">
<g clip-path="url(#clip8_5_2)">
<g clip-path="url(#clip9_5_2)">
<mask id="mask1_5_2" style="mask-type:luminance" maskUnits="userSpaceOnUse" x="704" y="-347" width="727" height="826">
<path d="M704.233 141.222L1291.94 478.832L1430.26 -9.03042L842.552 -346.643L704.233 141.222Z" fill="white"/>
</mask>
<g mask="url(#mask1_5_2)">
<g opacity="0.6">
<path style="mix-blend-mode:soft-light" opacity="0.5" d="M1185.26 417.547C1185.26 417.547 1179.34 136.759 821.123 94.1453L843.692 -99.9827L1308.95 53.9706L1263.37 446.014L1185.26 417.547Z" fill="url(#paint16_linear_5_2)"/>
<path d="M1185.72 376.859C1185.72 376.859 1221.22 105.864 867.236 -18.1378L918.6 -199.309L1363.8 56.4387L1260.07 422.309L1185.72 376.859Z" fill="url(#paint17_linear_5_2)"/>
<path d="M1250.19 322.147C1250.19 322.147 1244.27 41.3582 886.051 -1.25613L908.62 -195.383L1373.88 -41.4298L1328.3 350.605L1250.19 322.138L1250.19 322.147Z" fill="url(#paint18_linear_5_2)"/>
<path d="M1250.19 322.147C1250.19 322.147 1244.27 41.3582 886.052 -1.25613L908.621 -195.383L1373.88 -41.4298L1328.29 350.605L1250.19 322.138L1250.19 322.147H1250.19Z" fill="url(#paint19_linear_5_2)"/>
<path d="M803.025 -207.232C803.025 -207.232 841.332 -101.476 1018.52 -50.2274C1153.77 -11.1013 1216.1 47.0215 1283.18 182.643L1349.23 119.052C1349.23 119.052 1314.78 5.94892 1169.26 -72.1221C1023.75 -150.198 941.296 -90.2145 836.066 -248.137L803.025 -207.232Z" fill="url(#paint20_linear_5_2)"/>
<path d="M808.546 -162.834C808.546 -162.834 846.853 -57.0787 1024.04 -5.83017C1159.29 33.296 1221.62 91.4187 1288.7 227.039L1354.75 163.447C1354.75 163.447 1318.74 62.0776 1173.23 -15.9987C1027.72 -94.075 934.635 -24.9965 829.405 -182.92L808.546 -162.834Z" fill="url(#paint21_linear_5_2)"/>
<path d="M784.969 -128.647C784.969 -128.647 829.609 -26.0734 1007.77 7.52005C1143.77 33.1675 1209.03 85.3497 1283.99 215.069L1345.06 144.339C1345.06 144.339 1302.97 45.9464 1154.33 -17.8671C1005.69 -81.6817 918.305 -2.68119 804.249 -150.979L784.968 -128.641L784.969 -128.647Z" fill="url(#paint22_linear_5_2)"/>
<path d="M793.247 -112.982C793.247 -112.982 841.908 -12.873 1020.08 8.94161C1156.09 25.5966 1223.05 73.6699 1302.96 199.033L1360.51 123.838C1360.51 123.838 1314.56 27.7612 1164.39 -26.4139C1014.21 -80.5889 930.899 4.68301 811.424 -136.727L793.247 -112.982Z" fill="url(#paint23_linear_5_2)"/>
<path d="M801.821 -121.361C801.821 -121.361 839.821 -15.4739 1016.94 36.5977C1152.14 76.3487 1214.32 134.742 1281.01 270.617L1347.29 207.366C1347.29 207.366 1311.57 105.875 1166.23 27.1436C1020.89 -51.5882 925.274 25.7968 820.474 -132.554L801.827 -121.357L801.821 -121.361Z" fill="url(#paint24_linear_5_2)"/>
<path d="M876.438 -34.2552C876.438 -34.2552 943.783 11.0117 1059.53 -3.51453C1147.88 -14.601 1206.52 0.79359 1302.29 54.7157L1308.48 7.02077C1308.48 7.02077 1244.3 -36.5294 1133.15 -43.0011C1022.01 -49.4717 1004.12 7.23892 878.395 -49.3147L876.443 -34.2521L876.438 -34.2552Z" fill="url(#paint25_linear_5_2)"/>
<path d="M883.818 2.33098C883.818 2.33098 942.005 58.3292 1055.07 65.8252C1141.39 71.5476 1195.45 97.214 1279.68 166.803L1292.35 122.097C1292.35 122.097 1236.96 68.3334 1131.27 41.5098C1025.59 14.6863 1000.41 65.8874 887.821 -11.7863L883.818 2.33098Z" fill="url(#paint26_linear_5_2)"/>
<path d="M891.109 -9.53527C891.109 -9.53527 950.64 47.6527 1062.77 44.351C1148.37 41.826 1203.34 62.4751 1290.78 124.438L1300.57 78.2269C1300.57 78.2269 1242.57 29.4254 1136.56 12.5681C1030.54 -4.29028 1008.79 49.6624 892.847 -17.7163L891.113 -9.53316L891.109 -9.53632V-9.53527Z" fill="url(#paint27_linear_5_2)"/>
<path d="M1290.78 124.438C1203.34 62.4751 1148.37 41.826 1062.77 44.351C950.64 47.6538 891.109 -9.5353 891.109 -9.5353L891.113 -9.53214L892.847 -17.7153" stroke="white" stroke-opacity="0.5" stroke-width="1.05385"/>
<path d="M893.971 -25.442C893.971 -25.442 958.316 21.9526 1069.41 11.0832C1154.22 2.78733 1209.63 19.8417 1299.02 76.2393L1306.75 29.1272C1306.75 29.1272 1247.13 -16.0249 1141.23 -25.8341C1035.34 -35.6433 1015.36 24.485 897.452 -35.4336L893.968 -25.4515L893.971 -25.442Z" fill="url(#paint28_linear_5_2)"/>
<path d="M887.223 -14.8235C887.223 -14.8235 952.463 35.8349 1069.73 31.59C1159.25 28.3547 1217.39 48.7034 1310.76 110.408L1319.63 63.7787C1319.63 63.7787 1257.47 15.09 1146.01 -1.02651C1034.54 -17.143 1013.38 37.3746 890.022 -29.551L887.219 -14.8266L887.223 -14.8235Z" fill="url(#paint29_linear_5_2)"/>
<path d="M890.685 -17.6374C890.685 -17.6374 957.035 30.2999 1073.6 20.8227C1162.58 13.5828 1221.01 31.4244 1315.66 89.2005L1323.16 41.9987C1323.16 41.9987 1259.94 -4.10075 1148.57 -15.32C1037.2 -26.5371 1017.7 29.1365 893.059 -32.5514L890.688 -17.6479L890.685 -17.6374Z" fill="url(#paint30_linear_5_2)"/>
</g>
</g>
</g>
</g>
</g>
</g>
</g>
<rect x="26.5269" y="8.09235" width="1198.95" height="546.946" rx="11.4731" stroke="#E1E4EB" stroke-width="1.05385"/>
</g>
</g>
<defs>
<filter id="filter0_dd_5_2" x="0.707693" y="0.188507" width="1250.58" height="598.585" filterUnits="userSpaceOnUse" color-interpolation-filters="sRGB">
<feFlood flood-opacity="0" result="BackgroundImageFix"/>
<feColorMatrix in="SourceAlpha" type="matrix" values="0 0 0 0 0 0 0 0 0 0 0 0 0 0 0 0 0 0 127 0" result="hardAlpha"/>
<feMorphology radius="6.32308" operator="dilate" in="SourceAlpha" result="effect1_dropShadow_5_2"/>
<feOffset/>
<feComposite in2="hardAlpha" operator="out"/>
<feColorMatrix type="matrix" values="0 0 0 0 1 0 0 0 0 1 0 0 0 0 1 0 0 0 1 0"/>
<feBlend mode="normal" in2="BackgroundImageFix" result="effect1_dropShadow_5_2"/>
<feColorMatrix in="SourceAlpha" type="matrix" values="0 0 0 0 0 0 0 0 0 0 0 0 0 0 0 0 0 0 127 0" result="hardAlpha"/>
<feOffset dy="17.9154"/>
<feGaussianBlur stdDeviation="12.6462"/>
<feComposite in2="hardAlpha" operator="out"/>
<feColorMatrix type="matrix" values="0 0 0 0 0.698039 0 0 0 0 0.698039 0 0 0 0 0.698039 0 0 0 0.08 0"/>
<feBlend mode="normal" in2="effect1_dropShadow_5_2" result="effect2_dropShadow_5_2"/>
<feBlend mode="normal" in="SourceGraphic" in2="effect2_dropShadow_5_2" result="shape"/>
</filter>
<radialGradient id="paint0_radial_5_2" cx="0" cy="0" r="1" gradientUnits="userSpaceOnUse" gradientTransform="translate(626 7.56543) scale(756.012 548)">
<stop stop-color="#D4E7F6"/>
<stop offset="0.824379" stop-color="#F0F7FC"/>
<stop offset="1" stop-color="#F6F7F9"/>
</radialGradient>
<linearGradient id="paint1_linear_5_2" x1="-50.4766" y1="267.729" x2="348.004" y2="154.754" gradientUnits="userSpaceOnUse">
<stop stop-color="white"/>
<stop offset="0.09" stop-color="#FEFDFF" stop-opacity="0.98"/>
<stop offset="0.22" stop-color="#F5F7FF" stop-opacity="0.91"/>
<stop offset="0.36" stop-color="#F0F3FF" stop-opacity="0.8"/>
<stop offset="0.52" stop-color="#E1E6FF" stop-opacity="0.64"/>
<stop offset="0.69" stop-color="#D2DAFF" stop-opacity="0.44"/>
<stop offset="0.87" stop-color="#BDC9FE" stop-opacity="0.2"/>
<stop offset="1" stop-color="#AEBDFE" stop-opacity="0"/>
</linearGradient>
<linearGradient id="paint2_linear_5_2" x1="215.685" y1="297.547" x2="115.076" y2="122.407" gradientUnits="userSpaceOnUse">
<stop stop-color="#C7D2FF" stop-opacity="0"/>
<stop offset="1" stop-color="#5D7BFE"/>
</linearGradient>
<linearGradient id="paint3_linear_5_2" x1="157.008" y1="276.94" x2="90.5555" y2="76.0214" gradientUnits="userSpaceOnUse">
<stop stop-color="#C7D2FF"/>
<stop offset="0.09" stop-color="#C7D2FF" stop-opacity="0.97"/>
<stop offset="0.22" stop-color="#BDC9FE" stop-opacity="0.88"/>
<stop offset="0.39" stop-color="#AEBDFE" stop-opacity="0.73"/>
<stop offset="0.59" stop-color="#95A8FE" stop-opacity="0.52"/>
<stop offset="0.8" stop-color="#7C94FE" stop-opacity="0.26"/>
<stop offset="1" stop-color="#5D7BFE" stop-opacity="0"/>
</linearGradient>
<linearGradient id="paint4_linear_5_2" x1="157.008" y1="276.94" x2="90.5555" y2="76.0214" gradientUnits="userSpaceOnUse">
<stop stop-color="#C7D2FF"/>
<stop offset="0.09" stop-color="#C7D2FF" stop-opacity="0.97"/>
<stop offset="0.22" stop-color="#BDC9FE" stop-opacity="0.88"/>
<stop offset="0.39" stop-color="#AEBDFE" stop-opacity="0.73"/>
<stop offset="0.59" stop-color="#95A8FE" stop-opacity="0.52"/>
<stop offset="0.8" stop-color="#7C94FE" stop-opacity="0.26"/>
<stop offset="1" stop-color="#5D7BFE" stop-opacity="0"/>
</linearGradient>
<linearGradient id="paint5_linear_5_2" x1="346.668" y1="-129.027" x2="180.602" y2="-81.945" gradientUnits="userSpaceOnUse">
<stop stop-color="#AEBDFE"/>
<stop offset="0.51" stop-color="#5D7BFE"/>
<stop offset="1" stop-color="#1641FD"/>
</linearGradient>
<linearGradient id="paint6_linear_5_2" x1="395.893" y1="-160.855" x2="216.877" y2="-93.4764" gradientUnits="userSpaceOnUse">
<stop stop-color="#AEBDFE"/>
<stop offset="0.51" stop-color="#5D7BFE"/>
<stop offset="1" stop-color="#1641FD"/>
</linearGradient>
<linearGradient id="paint7_linear_5_2" x1="402.933" y1="-115.807" x2="178.557" y2="-52.193" gradientUnits="userSpaceOnUse">
<stop stop-color="#AEBDFE"/>
<stop offset="0.51" stop-color="#5D7BFE"/>
<stop offset="1" stop-color="#1641FD"/>
</linearGradient>
<linearGradient id="paint8_linear_5_2" x1="394.601" y1="-104.386" x2="170.104" y2="-52.0814" gradientUnits="userSpaceOnUse">
<stop stop-color="#AEBDFE"/>
<stop offset="0.51" stop-color="#5D7BFE"/>
<stop offset="1" stop-color="#1641FD"/>
</linearGradient>
<linearGradient id="paint9_linear_5_2" x1="210.337" y1="195.934" x2="128.954" y2="24.1528" gradientUnits="userSpaceOnUse">
<stop stop-color="#AEBDFE"/>
<stop offset="0.51" stop-color="#5D7BFE"/>
<stop offset="1" stop-color="#3A5EFD"/>
</linearGradient>
<linearGradient id="paint10_linear_5_2" x1="340.89" y1="-132.116" x2="-3.39913" y2="-14.9551" gradientUnits="userSpaceOnUse">
<stop stop-color="#B8C5FE"/>
<stop offset="1" stop-color="#5D7BFE"/>
</linearGradient>
<linearGradient id="paint11_linear_5_2" x1="179.703" y1="116.924" x2="127.65" y2="26.3102" gradientUnits="userSpaceOnUse">
<stop stop-color="#AEBDFE"/>
<stop offset="0.51" stop-color="#5D7BFE"/>
<stop offset="1" stop-color="#0228CF"/>
</linearGradient>
<linearGradient id="paint12_linear_5_2" x1="338.191" y1="31.3739" x2="-16.0738" y2="24.3985" gradientUnits="userSpaceOnUse">
<stop stop-color="#AEBDFE"/>
<stop offset="0.51" stop-color="#5D7BFE"/>
<stop offset="1" stop-color="#0228CF"/>
</linearGradient>
<linearGradient id="paint13_linear_5_2" x1="176.079" y1="96.9738" x2="103.386" y2="-29.5689" gradientUnits="userSpaceOnUse">
<stop stop-color="#AEBDFE"/>
<stop offset="0.51" stop-color="#5D7BFE"/>
<stop offset="1" stop-color="#1641FD"/>
</linearGradient>
<linearGradient id="paint14_linear_5_2" x1="375.135" y1="-43.9613" x2="36.0548" y2="-14.4283" gradientUnits="userSpaceOnUse">
<stop stop-color="#C7D2FF"/>
<stop offset="0.76" stop-color="#5D7BFE"/>
<stop offset="1" stop-color="#1C46FD"/>
</linearGradient>
<linearGradient id="paint15_linear_5_2" x1="167.134" y1="96.0937" x2="122.225" y2="17.9141" gradientUnits="userSpaceOnUse">
<stop stop-color="#C7D2FF"/>
<stop offset="1" stop-color="#5D7BFE"/>
</linearGradient>
<linearGradient id="paint16_linear_5_2" x1="1302.75" y1="267.729" x2="904.273" y2="154.754" gradientUnits="userSpaceOnUse">
<stop stop-color="white"/>
<stop offset="0.09" stop-color="#FEFDFF" stop-opacity="0.98"/>
<stop offset="0.22" stop-color="#F5F7FF" stop-opacity="0.91"/>
<stop offset="0.36" stop-color="#F0F3FF" stop-opacity="0.8"/>
<stop offset="0.52" stop-color="#E1E6FF" stop-opacity="0.64"/>
<stop offset="0.69" stop-color="#D2DAFF" stop-opacity="0.44"/>
<stop offset="0.87" stop-color="#BDC9FE" stop-opacity="0.2"/>
<stop offset="1" stop-color="#AEBDFE" stop-opacity="0"/>
</linearGradient>
<linearGradient id="paint17_linear_5_2" x1="1036.59" y1="297.547" x2="1137.2" y2="122.407" gradientUnits="userSpaceOnUse">
<stop stop-color="#C7D2FF" stop-opacity="0"/>
<stop offset="1" stop-color="#5D7BFE"/>
</linearGradient>
<linearGradient id="paint18_linear_5_2" x1="1095.27" y1="276.94" x2="1161.72" y2="76.0214" gradientUnits="userSpaceOnUse">
<stop stop-color="#C7D2FF"/>
<stop offset="0.09" stop-color="#C7D2FF" stop-opacity="0.97"/>
<stop offset="0.22" stop-color="#BDC9FE" stop-opacity="0.88"/>
<stop offset="0.39" stop-color="#AEBDFE" stop-opacity="0.73"/>
<stop offset="0.59" stop-color="#95A8FE" stop-opacity="0.52"/>
<stop offset="0.8" stop-color="#7C94FE" stop-opacity="0.26"/>
<stop offset="1" stop-color="#5D7BFE" stop-opacity="0"/>
</linearGradient>
<linearGradient id="paint19_linear_5_2" x1="1095.27" y1="276.94" x2="1161.72" y2="76.0214" gradientUnits="userSpaceOnUse">
<stop stop-color="#C7D2FF"/>
<stop offset="0.09" stop-color="#C7D2FF" stop-opacity="0.97"/>
<stop offset="0.22" stop-color="#BDC9FE" stop-opacity="0.88"/>
<stop offset="0.39" stop-color="#AEBDFE" stop-opacity="0.73"/>
<stop offset="0.59" stop-color="#95A8FE" stop-opacity="0.52"/>
<stop offset="0.8" stop-color="#7C94FE" stop-opacity="0.26"/>
<stop offset="1" stop-color="#5D7BFE" stop-opacity="0"/>
</linearGradient>
<linearGradient id="paint20_linear_5_2" x1="905.609" y1="-129.027" x2="1071.67" y2="-81.945" gradientUnits="userSpaceOnUse">
<stop stop-color="#AEBDFE"/>
<stop offset="0.51" stop-color="#5D7BFE"/>
<stop offset="1" stop-color="#1641FD"/>
</linearGradient>
<linearGradient id="paint21_linear_5_2" x1="856.384" y1="-160.855" x2="1035.4" y2="-93.4764" gradientUnits="userSpaceOnUse">
<stop stop-color="#AEBDFE"/>
<stop offset="0.51" stop-color="#5D7BFE"/>
<stop offset="1" stop-color="#1641FD"/>
</linearGradient>
<linearGradient id="paint22_linear_5_2" x1="849.344" y1="-115.807" x2="1073.72" y2="-52.193" gradientUnits="userSpaceOnUse">
<stop stop-color="#AEBDFE"/>
<stop offset="0.51" stop-color="#5D7BFE"/>
<stop offset="1" stop-color="#1641FD"/>
</linearGradient>
<linearGradient id="paint23_linear_5_2" x1="857.675" y1="-104.386" x2="1082.17" y2="-52.0813" gradientUnits="userSpaceOnUse">
<stop stop-color="#AEBDFE"/>
<stop offset="0.51" stop-color="#5D7BFE"/>
<stop offset="1" stop-color="#1641FD"/>
</linearGradient>
<linearGradient id="paint24_linear_5_2" x1="1041.94" y1="195.934" x2="1123.32" y2="24.1528" gradientUnits="userSpaceOnUse">
<stop stop-color="#AEBDFE"/>
<stop offset="0.51" stop-color="#5D7BFE"/>
<stop offset="1" stop-color="#3A5EFD"/>
</linearGradient>
<linearGradient id="paint25_linear_5_2" x1="911.387" y1="-132.116" x2="1255.68" y2="-14.9551" gradientUnits="userSpaceOnUse">
<stop stop-color="#B8C5FE"/>
<stop offset="1" stop-color="#5D7BFE"/>
</linearGradient>
<linearGradient id="paint26_linear_5_2" x1="1072.57" y1="116.924" x2="1124.63" y2="26.3102" gradientUnits="userSpaceOnUse">
<stop stop-color="#AEBDFE"/>
<stop offset="0.51" stop-color="#5D7BFE"/>
<stop offset="1" stop-color="#0228CF"/>
</linearGradient>
<linearGradient id="paint27_linear_5_2" x1="914.086" y1="31.374" x2="1268.35" y2="24.3986" gradientUnits="userSpaceOnUse">
<stop stop-color="#AEBDFE"/>
<stop offset="0.51" stop-color="#5D7BFE"/>
<stop offset="1" stop-color="#0228CF"/>
</linearGradient>
<linearGradient id="paint28_linear_5_2" x1="1076.2" y1="96.9738" x2="1148.89" y2="-29.5689" gradientUnits="userSpaceOnUse">
<stop stop-color="#AEBDFE"/>
<stop offset="0.51" stop-color="#5D7BFE"/>
<stop offset="1" stop-color="#1641FD"/>
</linearGradient>
<linearGradient id="paint29_linear_5_2" x1="877.141" y1="-43.9613" x2="1216.22" y2="-14.4283" gradientUnits="userSpaceOnUse">
<stop stop-color="#C7D2FF"/>
<stop offset="0.76" stop-color="#5D7BFE"/>
<stop offset="1" stop-color="#1C46FD"/>
</linearGradient>
<linearGradient id="paint30_linear_5_2" x1="1085.14" y1="96.0937" x2="1130.05" y2="17.9141" gradientUnits="userSpaceOnUse">
<stop stop-color="#C7D2FF"/>
<stop offset="1" stop-color="#5D7BFE"/>
</linearGradient>
<clipPath id="clip0_5_2">
<rect x="26" y="7.56543" width="1200" height="548" rx="12" fill="white"/>
</clipPath>
<clipPath id="clip1_5_2">
<rect width="1200.28" height="548.316" fill="white" transform="translate(26 7.56543)"/>
</clipPath>
<clipPath id="clip2_5_2">
<rect width="364.631" height="490.038" fill="white" transform="translate(26 7.56543)"/>
</clipPath>
<clipPath id="clip3_5_2">
<rect width="364.631" height="490.038" fill="white" transform="translate(26 7.56543)"/>
</clipPath>
<clipPath id="clip4_5_2">
<rect width="364.631" height="490.038" fill="white" transform="translate(26 7.56543)"/>
</clipPath>
<clipPath id="clip5_5_2">
<rect width="364.631" height="490.038" fill="white" transform="translate(26 7.56543)"/>
</clipPath>
<clipPath id="clip6_5_2">
<rect width="364.631" height="490.038" fill="white" transform="translate(861.646 7.56543)"/>
</clipPath>
<clipPath id="clip7_5_2">
<rect width="364.631" height="490.038" fill="white" transform="translate(861.646 7.56543)"/>
</clipPath>
<clipPath id="clip8_5_2">
<rect width="364.631" height="490.038" fill="white" transform="translate(861.646 7.56543)"/>
</clipPath>
<clipPath id="clip9_5_2">
<rect width="364.631" height="490.038" fill="white" transform="translate(861.646 7.56543)"/>
</clipPath>
</defs>
</svg>
