<svg width="40" height="41" viewBox="0 0 40 41" fill="none" xmlns="http://www.w3.org/2000/svg">
<g clip-path="url(#clip0_358_516)">
<g clip-path="url(#clip1_358_516)">
<g clip-path="url(#clip2_358_516)">
<path fill-rule="evenodd" clip-rule="evenodd" d="M26.5065 28.7977C26.5065 27.6562 26.2168 26.5967 25.7104 25.6738C23.8841 22.3489 23.8841 17.9011 25.7104 14.5762C26.2358 13.6194 26.5097 12.5449 26.5065 11.4533C26.4856 9.74214 25.7911 8.10818 24.5737 6.90556C23.3562 5.70294 21.7139 5.02855 20.0026 5.02855C18.2913 5.02855 16.649 5.70294 15.4316 6.90556C14.2141 8.10818 13.5197 9.74214 13.4987 11.4533C13.4958 12.5449 13.77 13.6195 14.2958 14.5762C16.1211 17.9011 16.1211 22.3489 14.2958 25.6738C13.7702 26.6309 13.4959 27.7057 13.4987 28.7977C13.4882 29.6585 13.6486 30.5128 13.9707 31.3112C14.2928 32.1095 14.7702 32.8359 15.3752 33.4484C15.9802 34.0608 16.7008 34.5471 17.4951 34.879C18.2894 35.2108 19.1417 35.3817 20.0026 35.3817C20.8635 35.3817 21.7158 35.2108 22.5101 34.879C23.3044 34.5471 24.025 34.0608 24.63 33.4484C25.235 32.8359 25.7124 32.1095 26.0345 31.3112C26.3566 30.5128 26.5171 29.6585 26.5065 28.7977ZM29.5114 23.5869C28.3992 21.5616 28.3992 18.6884 29.5114 16.663C30.3878 15.0666 30.8459 13.2744 30.8431 11.4533C30.8431 5.46596 25.9894 0.613281 20.0031 0.613281C14.0158 0.613281 9.16212 5.46596 9.16212 11.4523C9.16212 13.3411 9.64505 15.1177 10.4938 16.663C11.606 18.6884 11.606 21.5616 10.4938 23.5869C9.61744 25.1833 9.15931 26.9756 9.16212 28.7967C9.16212 34.785 14.0158 39.6377 20.0011 39.6377C25.9885 39.6377 30.8421 34.784 30.8421 28.7977C30.8421 26.9089 30.3592 25.1333 29.5094 23.5869H29.5114Z" fill="#0F0F0F"/>
</g>
</g>
</g>
<defs>
<clipPath id="clip0_358_516">
<rect width="40" height="40" fill="white" transform="translate(0 0.189453)"/>
</clipPath>
<clipPath id="clip1_358_516">
<rect width="40" height="40" fill="white" transform="translate(0 0.189453)"/>
</clipPath>
<clipPath id="clip2_358_516">
<rect width="23.4146" height="40" fill="white" transform="translate(8.29297 0.189453)"/>
</clipPath>
</defs>
</svg>
