<svg width="40" height="41" viewBox="0 0 40 41" fill="none" xmlns="http://www.w3.org/2000/svg">
<g clip-path="url(#clip0_358_454)">
<g clip-path="url(#clip1_358_454)">
<g clip-path="url(#clip2_358_454)">
<path fill-rule="evenodd" clip-rule="evenodd" d="M20.0005 20.1255C20.0005 20.1255 22.4395 13.5938 22.4395 8.97523C22.4395 4.3567 21.3468 0.613281 20.0005 0.613281C18.6541 0.613281 17.5615 4.3567 17.5615 8.97523C17.5615 13.5938 20.0005 20.1255 20.0005 20.1255ZM20.0005 20.1255C20.0005 20.1255 22.8941 26.4679 26.1595 29.7343C29.4258 32.9996 32.8454 34.8747 33.7985 33.9226C34.7497 32.9694 32.8746 29.5499 29.6093 26.2845C26.3439 23.0191 20.0005 20.1255 20.0005 20.1255ZM20.0005 20.1255C20.0005 20.1255 26.5322 17.6865 31.1507 17.6865C35.7683 17.6865 39.5127 18.7782 39.5127 20.1255C39.5127 21.4718 35.7683 22.5645 31.1507 22.5645C26.5322 22.5645 20.0005 20.1255 20.0005 20.1255ZM20.0005 20.1255C20.0005 20.1255 13.6571 23.0191 10.3917 26.2845C7.12633 29.5499 5.25023 32.9694 6.2034 33.9226C7.1556 34.8747 10.5751 32.9996 13.8415 29.7343C17.1068 26.4679 20.0005 20.1255 20.0005 20.1255ZM20.0005 20.1255C20.0063 20.1391 22.4395 26.6621 22.4395 31.2747C22.4395 35.8933 21.3468 39.6377 20.0005 39.6377C18.6541 39.6377 17.5615 35.8933 17.5615 31.2747C17.5615 26.6562 20.0005 20.1255 20.0005 20.1255ZM20.0005 20.1255C20.0005 20.1255 13.4688 17.6865 8.85023 17.6865C4.23267 17.6865 0.488281 18.7782 0.488281 20.1255C0.488281 21.4718 4.23267 22.5645 8.85023 22.5645C13.4688 22.5645 20.0005 20.1255 20.0005 20.1255ZM20.0005 20.1255C20.0005 20.1255 26.3439 17.2318 29.6093 13.9655C32.8746 10.7001 34.7507 7.2806 33.7976 6.32743C32.8454 5.37523 29.4258 7.25035 26.1595 10.5167C22.8941 13.7821 20.0005 20.1255 20.0005 20.1255ZM13.8415 10.5157C17.1068 13.7821 20.0005 20.1255 20.0005 20.1255C20.0005 20.1255 13.6571 17.2318 10.3917 13.9655C7.12633 10.7001 5.25023 7.2806 6.2034 6.32743C7.1556 5.37523 10.5751 7.25035 13.8415 10.5167V10.5157Z" fill="#FF6D41"/>
</g>
</g>
</g>
<defs>
<clipPath id="clip0_358_454">
<rect width="40" height="40" fill="white" transform="translate(0 0.189453)"/>
</clipPath>
<clipPath id="clip1_358_454">
<rect width="40" height="40" fill="white" transform="translate(0 0.189453)"/>
</clipPath>
<clipPath id="clip2_358_454">
<rect width="39.0244" height="40" fill="white" transform="translate(0.488281 0.189453)"/>
</clipPath>
</defs>
</svg>
