<svg width="40" height="41" viewBox="0 0 40 41" fill="none" xmlns="http://www.w3.org/2000/svg">
<g clip-path="url(#clip0_358_464)">
<g clip-path="url(#clip1_358_464)">
<g clip-path="url(#clip2_358_464)">
<mask id="mask0_358_464" style="mask-type:luminance" maskUnits="userSpaceOnUse" x="0" y="0" width="40" height="40">
<path d="M0.488281 0.613281H39.5127V39.6377H0.488281V0.613281Z" fill="white"/>
</mask>
<g mask="url(#mask0_358_464)">
<path fill-rule="evenodd" clip-rule="evenodd" d="M20.6141 0.613281C20.8211 0.613281 21.0197 0.695511 21.166 0.841881C21.3124 0.988251 21.3946 1.18677 21.3946 1.39377V8.94011C21.3946 9.79767 22.5771 10.0279 22.898 9.23279L25.7254 2.23572C25.8027 2.04373 25.9532 1.89034 26.1437 1.80929C26.3341 1.72824 26.549 1.72617 26.741 1.80353L27.8785 2.26304C27.9736 2.30144 28.0602 2.3582 28.1334 2.43008C28.2065 2.50196 28.2648 2.58756 28.3048 2.68197C28.3449 2.77638 28.3659 2.87775 28.3668 2.9803C28.3676 3.08285 28.3482 3.18456 28.3097 3.27962L25.2961 10.7391C24.9771 11.5274 25.9702 12.184 26.5712 11.583L32.26 5.89426C32.3325 5.82169 32.4186 5.76412 32.5133 5.72484C32.6081 5.68557 32.7096 5.66535 32.8122 5.66535C32.9148 5.66535 33.0163 5.68557 33.1111 5.72484C33.2058 5.76412 33.2919 5.82169 33.3644 5.89426L34.2317 6.76157C34.378 6.90793 34.4601 7.10637 34.4601 7.31328C34.4601 7.52019 34.378 7.71863 34.2317 7.86499L29.1224 12.9743C28.5127 13.584 29.1966 14.586 29.9868 14.2406L36.6073 11.3489C36.7969 11.2661 37.0115 11.2619 37.2041 11.3373C37.3968 11.4126 37.5516 11.5614 37.6346 11.7508L38.1263 12.8747C38.1675 12.9687 38.1897 13.0699 38.1917 13.1724C38.1937 13.275 38.1754 13.3769 38.138 13.4724C38.1006 13.5679 38.0447 13.6551 37.9736 13.729C37.9024 13.8029 37.8174 13.862 37.7234 13.903L30.0941 17.2357C29.3195 17.5743 29.5615 18.7313 30.4073 18.7313H38.7322C38.8347 18.7313 38.9362 18.7515 39.0309 18.7907C39.1256 18.83 39.2116 18.8875 39.2841 18.9599C39.3565 19.0324 39.414 19.1184 39.4533 19.2131C39.4925 19.3078 39.5127 19.4093 39.5127 19.5118V20.7382C39.5127 20.9452 39.4304 21.1437 39.2841 21.29C39.1377 21.4364 38.9392 21.5186 38.7322 21.5186H30.4073C29.5615 21.5186 29.3205 22.6757 30.0951 23.0143L37.7234 26.3479C37.913 26.4308 38.062 26.5855 38.1376 26.7782C38.2131 26.9708 38.2091 27.1856 38.1263 27.3752L37.6346 28.4991C37.5518 28.6888 37.397 28.8377 37.2044 28.9133C37.0117 28.9888 36.797 28.9848 36.6073 28.9021L29.9868 26.0094C29.1966 25.664 28.5136 26.6669 29.1224 27.2767L34.2317 32.385C34.378 32.5313 34.4601 32.7298 34.4601 32.9367C34.4601 33.1436 34.378 33.3421 34.2317 33.4884L33.3634 34.3567C33.2171 34.5027 33.0189 34.5846 32.8122 34.5846C32.6055 34.5846 32.4073 34.5027 32.261 34.3567L26.5712 28.6669C25.9702 28.066 24.9771 28.7235 25.2961 29.5118L28.3097 36.9704C28.3482 37.0654 28.3676 37.1671 28.3668 37.2697C28.3659 37.3722 28.3449 37.4736 28.3048 37.568C28.2648 37.6624 28.2065 37.748 28.1334 37.8199C28.0602 37.8918 27.9736 37.9485 27.8785 37.9869L26.741 38.4455C26.5492 38.5229 26.3346 38.5212 26.1441 38.4405C25.9537 38.3598 25.8031 38.2069 25.7254 38.0152L22.898 31.0182C22.5771 30.223 21.3946 30.4523 21.3946 31.3108V38.8572C21.3946 39.0642 21.3124 39.2627 21.166 39.4091C21.0197 39.5554 20.8211 39.6377 20.6141 39.6377H19.3858C19.2833 39.6377 19.1819 39.6175 19.0872 39.5783C18.9925 39.539 18.9064 39.4815 18.834 39.4091C18.7615 39.3366 18.704 39.2506 18.6648 39.1559C18.6255 39.0612 18.6054 38.9597 18.6054 38.8572V31.3108C18.6054 30.4523 17.4229 30.223 17.1019 31.0182L14.2746 38.0152C14.1971 38.207 14.0465 38.3602 13.8561 38.4411C13.6656 38.5219 13.4509 38.5239 13.259 38.4465L12.1215 37.9869C12.0264 37.9485 11.9398 37.8918 11.8666 37.8199C11.7935 37.748 11.7352 37.6624 11.6952 37.568C11.6551 37.4736 11.6341 37.3722 11.6332 37.2697C11.6324 37.1671 11.6518 37.0654 11.6902 36.9704L14.7049 29.5118C15.0229 28.7235 14.0297 28.066 13.4288 28.6669L7.74096 34.3557C7.66848 34.4283 7.5824 34.4859 7.48765 34.5251C7.3929 34.5644 7.29134 34.5846 7.18877 34.5846C7.0862 34.5846 6.98464 34.5644 6.88989 34.5251C6.79514 34.4859 6.70906 34.4283 6.63657 34.3557L5.76926 33.4884C5.623 33.3421 5.54084 33.1436 5.54084 32.9367C5.54084 32.7298 5.623 32.5313 5.76926 32.385L10.8785 27.2767C11.4883 26.6669 10.8044 25.664 10.0141 26.0094L3.39365 28.9021C3.20398 28.9848 2.98921 28.9888 2.79657 28.9133C2.60392 28.8377 2.44917 28.6888 2.36633 28.4991L1.87462 27.3752C1.79188 27.1856 1.78784 26.9708 1.86339 26.7782C1.93895 26.5855 2.08792 26.4308 2.27755 26.3479L9.90682 23.0143C10.6805 22.6757 10.4395 21.5186 9.59365 21.5186H1.26877C1.06177 21.5186 0.863251 21.4364 0.716881 21.29C0.570511 21.1437 0.488281 20.9452 0.488281 20.7382V19.5118C0.488281 19.3048 0.570511 19.1063 0.716881 18.9599C0.863251 18.8136 1.06177 18.7313 1.26877 18.7313H9.59365C10.4395 18.7313 10.6805 17.5743 9.90584 17.2357L2.27755 13.903C2.18354 13.862 2.09853 13.8029 2.02739 13.729C1.95625 13.6551 1.90037 13.5679 1.86294 13.4724C1.82552 13.3769 1.80729 13.275 1.8093 13.1724C1.8113 13.0699 1.8335 12.9687 1.87462 12.8747L2.36633 11.7508C2.44935 11.5614 2.60418 11.4126 2.79681 11.3373C2.98943 11.2619 3.2041 11.2661 3.39365 11.3489L10.0141 14.2406C10.8044 14.586 11.4873 13.584 10.8785 12.9743L5.76926 7.86499C5.623 7.71863 5.54084 7.52019 5.54084 7.31328C5.54084 7.10637 5.623 6.90793 5.76926 6.76157L6.63755 5.89426C6.78386 5.7483 6.9821 5.66633 7.18877 5.66633C7.39544 5.66633 7.59367 5.7483 7.73999 5.89426L13.4297 11.583C14.0307 12.184 15.0239 11.5274 14.7049 10.7391L11.6912 3.27962C11.6527 3.18456 11.6334 3.08285 11.6342 2.9803C11.635 2.87775 11.6561 2.77638 11.6961 2.68197C11.7362 2.58756 11.7945 2.50196 11.8676 2.43008C11.9407 2.3582 12.0273 2.30144 12.1224 2.26304L13.26 1.8045C13.4519 1.72709 13.6666 1.72902 13.8571 1.80988C14.0475 1.89074 14.198 2.04391 14.2756 2.23572L17.1029 9.23182C17.4249 10.0279 18.6063 9.79767 18.6063 8.93914V1.39474C18.6063 1.18775 18.6886 0.989226 18.8349 0.842856C18.9813 0.696487 19.1798 0.614257 19.3868 0.614257H20.6141V0.613281ZM20.0005 28.4874C21.0986 28.4874 22.1861 28.2711 23.2006 27.8509C24.2152 27.4306 25.1371 26.8146 25.9136 26.0381C26.6901 25.2616 27.3061 24.3397 27.7264 23.3252C28.1466 22.3106 28.3629 21.2232 28.3629 20.125C28.3629 19.0268 28.1466 17.9394 27.7264 16.9248C27.3061 15.9102 26.6901 14.9884 25.9136 14.2119C25.1371 13.4353 24.2152 12.8194 23.2006 12.3991C22.1861 11.9789 21.0986 11.7626 20.0005 11.7626C17.7826 11.7626 15.6556 12.6436 14.0873 14.2119C12.5191 15.7801 11.638 17.9071 11.638 20.125C11.638 22.3428 12.5191 24.4699 14.0873 26.0381C15.6556 27.6064 17.7826 28.4874 20.0005 28.4874Z" fill="#139D49"/>
</g>
</g>
</g>
</g>
<defs>
<clipPath id="clip0_358_464">
<rect width="40" height="40" fill="white" transform="translate(0 0.189453)"/>
</clipPath>
<clipPath id="clip1_358_464">
<rect width="40" height="40" fill="white" transform="translate(0 0.189453)"/>
</clipPath>
<clipPath id="clip2_358_464">
<rect width="39.0244" height="40" fill="white" transform="translate(0.488281 0.189453)"/>
</clipPath>
</defs>
</svg>
