<svg width="40" height="41" viewBox="0 0 40 41" fill="none" xmlns="http://www.w3.org/2000/svg">
<g clip-path="url(#clip0_358_507)">
<g clip-path="url(#clip1_358_507)">
<g clip-path="url(#clip2_358_507)">
<mask id="mask0_358_507" style="mask-type:luminance" maskUnits="userSpaceOnUse" x="0" y="0" width="40" height="40">
<path d="M0.488281 0.613281H39.5127V39.6377H0.488281V0.613281Z" fill="white"/>
</mask>
<g mask="url(#mask0_358_507)">
<path fill-rule="evenodd" clip-rule="evenodd" d="M10.2444 20.1255C15.6327 20.1255 20.0005 15.7567 20.0005 10.3694C20.0005 15.7567 24.3683 20.1255 29.7566 20.1255C24.3683 20.1255 20.0005 24.4933 20.0005 29.8816C20.0005 24.4933 15.6327 20.1255 10.2444 20.1255ZM10.2444 20.1255C4.85609 20.1255 0.488281 24.4933 0.488281 29.8816C0.488281 35.2689 4.85609 39.6377 10.2444 39.6377C15.6327 39.6377 20.0005 35.2689 20.0005 29.8816C20.0005 35.2689 24.3683 39.6377 29.7566 39.6377C35.1449 39.6377 39.5127 35.2689 39.5127 29.8816C39.5127 24.4933 35.1449 20.1255 29.7566 20.1255C35.1449 20.1255 39.5127 15.7567 39.5127 10.3694C39.5127 4.98109 35.1449 0.613281 29.7566 0.613281C24.3683 0.613281 20.0005 4.98109 20.0005 10.3694C20.0005 4.98109 15.6327 0.613281 10.2444 0.613281C4.85609 0.613281 0.488281 4.98109 0.488281 10.3694C0.488281 15.7567 4.85609 20.1255 10.2444 20.1255Z" fill="#B43F77" fill-opacity="0.92"/>
</g>
</g>
</g>
</g>
<defs>
<clipPath id="clip0_358_507">
<rect width="40" height="40" fill="white" transform="translate(0 0.189453)"/>
</clipPath>
<clipPath id="clip1_358_507">
<rect width="40" height="40" fill="white" transform="translate(0 0.189453)"/>
</clipPath>
<clipPath id="clip2_358_507">
<rect width="39.0244" height="40" fill="white" transform="translate(0.488281 0.189453)"/>
</clipPath>
</defs>
</svg>
