<svg width="40" height="41" viewBox="0 0 40 41" fill="none" xmlns="http://www.w3.org/2000/svg">
<g clip-path="url(#clip0_358_459)">
<g clip-path="url(#clip1_358_459)">
<g clip-path="url(#clip2_358_459)">
<path d="M22.5911 20.1255C22.5911 20.8337 22.3098 21.5129 21.809 22.0136C21.3082 22.5144 20.629 22.7957 19.9209 22.7957C19.2127 22.7957 18.5335 22.5144 18.0327 22.0136C17.5319 21.5129 17.2506 20.8337 17.2506 20.1255C17.2506 19.4173 17.5319 18.7381 18.0327 18.2373C18.5335 17.7366 19.2127 17.4552 19.9209 17.4552C20.629 17.4552 21.3082 17.7366 21.809 18.2373C22.3098 18.7381 22.5911 19.4173 22.5911 20.1255ZM29.8828 24.3362C29.8828 25.0444 29.6015 25.7236 29.1007 26.2244C28.5999 26.7251 27.9208 27.0064 27.2126 27.0064C26.5044 27.0064 25.8252 26.7251 25.3244 26.2244C24.8236 25.7236 24.5423 25.0444 24.5423 24.3362C24.5423 23.628 24.8236 22.9488 25.3244 22.4481C25.8252 21.9473 26.5044 21.666 27.2126 21.666C27.9208 21.666 28.5999 21.9473 29.1007 22.4481C29.6015 22.9488 29.8828 23.628 29.8828 24.3362ZM37.1735 28.546C37.1803 28.9009 37.1163 29.2535 36.9852 29.5834C36.854 29.9132 36.6585 30.2136 36.4099 30.467C36.1613 30.7204 35.8647 30.9217 35.5374 31.0591C35.2101 31.1965 34.8587 31.2672 34.5038 31.2672C34.1488 31.2672 33.7974 31.1965 33.4701 31.0591C33.1429 30.9217 32.8463 30.7204 32.5977 30.467C32.3491 30.2136 32.1535 29.9132 32.0224 29.5834C31.8913 29.2535 31.8272 28.9009 31.834 28.546C31.8474 27.8467 32.1345 27.1807 32.6338 26.6909C33.133 26.2011 33.8044 25.9268 34.5038 25.9268C35.2031 25.9268 35.8746 26.2011 36.3738 26.6909C36.873 27.1807 37.1602 27.8467 37.1735 28.546ZM15.4018 15.9147C15.4086 16.2696 15.3446 16.6223 15.2135 16.9522C15.0823 17.282 14.8868 17.5824 14.6382 17.8358C14.3896 18.0892 14.093 18.2905 13.7657 18.4279C13.4384 18.5653 13.087 18.636 12.7321 18.636C12.3771 18.636 12.0257 18.5653 11.6984 18.4279C11.3712 18.2905 11.0745 18.0892 10.826 17.8358C10.5774 17.5824 10.3818 17.282 10.2507 16.9522C10.1196 16.6223 10.0555 16.2696 10.0623 15.9147C10.0757 15.2155 10.3628 14.5494 10.8621 14.0597C11.3613 13.5699 12.0327 13.2955 12.7321 13.2955C13.4314 13.2955 14.1029 13.5699 14.6021 14.0597C15.1013 14.5494 15.3885 15.2155 15.4018 15.9147ZM8.21353 11.704C8.21353 12.4122 7.93221 13.0914 7.43144 13.5922C6.93067 14.0929 6.25148 14.3743 5.54329 14.3743C4.8351 14.3743 4.15591 14.0929 3.65514 13.5922C3.15438 13.0914 2.87305 12.4122 2.87305 11.704C2.87305 10.9958 3.15438 10.3166 3.65514 9.81586C4.15591 9.3151 4.8351 9.03377 5.54329 9.03377C6.25148 9.03377 6.93067 9.3151 7.43144 9.81586C7.93221 10.3166 8.21353 10.9958 8.21353 11.704ZM15.4018 24.3362C15.4086 24.6911 15.3446 25.0438 15.2135 25.3736C15.0823 25.7035 14.8868 26.0039 14.6382 26.2573C14.3896 26.5106 14.093 26.7119 13.7657 26.8493C13.4384 26.9867 13.087 27.0575 12.7321 27.0575C12.3771 27.0575 12.0257 26.9867 11.6984 26.8493C11.3712 26.7119 11.0745 26.5106 10.826 26.2573C10.5774 26.0039 10.3818 25.7035 10.2507 25.3736C10.1196 25.0438 10.0555 24.6911 10.0623 24.3362C10.0757 23.637 10.3628 22.9709 10.8621 22.4811C11.3613 21.9914 12.0327 21.717 12.7321 21.717C13.4314 21.717 14.1029 21.9914 14.6021 22.4811C15.1013 22.9709 15.3885 23.637 15.4018 24.3362ZM8.21353 28.546C8.21353 29.2542 7.93221 29.9333 7.43144 30.4341C6.93067 30.9349 6.25148 31.2162 5.54329 31.2162C4.8351 31.2162 4.15591 30.9349 3.65514 30.4341C3.15438 29.9333 2.87305 29.2542 2.87305 28.546C2.87305 27.8378 3.15438 27.1586 3.65514 26.6578C4.15591 26.157 4.8351 25.8757 5.54329 25.8757C6.25148 25.8757 6.93067 26.157 7.43144 26.6578C7.93221 27.1586 8.21353 27.8378 8.21353 28.546ZM29.8828 15.9147C29.8828 16.6229 29.6015 17.3021 29.1007 17.8029C28.5999 18.3037 27.9208 18.585 27.2126 18.585C26.5044 18.585 25.8252 18.3037 25.3244 17.8029C24.8236 17.3021 24.5423 16.6229 24.5423 15.9147C24.5423 15.2066 24.8236 14.5274 25.3244 14.0266C25.8252 13.5258 26.5044 13.2445 27.2126 13.2445C27.9208 13.2445 28.5999 13.5258 29.1007 14.0266C29.6015 14.5274 29.8828 15.2066 29.8828 15.9147ZM37.1735 11.704C37.1735 12.0547 37.1045 12.4019 36.9703 12.7259C36.8361 13.0498 36.6394 13.3442 36.3914 13.5922C36.1435 13.8401 35.8491 14.0368 35.5252 14.171C35.2012 14.3052 34.854 14.3743 34.5033 14.3743C34.1526 14.3743 33.8054 14.3052 33.4814 14.171C33.1575 14.0368 32.8631 13.8401 32.6151 13.5922C32.3672 13.3442 32.1705 13.0498 32.0363 12.7259C31.9021 12.4019 31.833 12.0547 31.833 11.704C31.833 10.9958 32.1144 10.3166 32.6151 9.81586C33.1159 9.3151 33.7951 9.03377 34.5033 9.03377C35.2115 9.03377 35.8907 9.3151 36.3914 9.81586C36.8922 10.3166 37.1735 10.9958 37.1735 11.704ZM22.5911 28.546C22.5911 29.2542 22.3098 29.9333 21.809 30.4341C21.3082 30.9349 20.629 31.2162 19.9209 31.2162C19.2127 31.2162 18.5335 30.9349 18.0327 30.4341C17.5319 29.9333 17.2506 29.2542 17.2506 28.546C17.2506 27.8378 17.5319 27.1586 18.0327 26.6578C18.5335 26.157 19.2127 25.8757 19.9209 25.8757C20.629 25.8757 21.3082 26.157 21.809 26.6578C22.3098 27.1586 22.5911 27.8378 22.5911 28.546ZM22.5911 36.9674C22.5911 37.6756 22.3098 38.3548 21.809 38.8556C21.3082 39.3563 20.629 39.6377 19.9209 39.6377C19.2127 39.6377 18.5335 39.3563 18.0327 38.8556C17.5319 38.3548 17.2506 37.6756 17.2506 36.9674C17.2506 36.2592 17.5319 35.58 18.0327 35.0793C18.5335 34.5785 19.2127 34.2972 19.9209 34.2972C20.629 34.2972 21.3082 34.5785 21.809 35.0793C22.3098 35.58 22.5911 36.2592 22.5911 36.9674ZM22.5911 11.704C22.5911 12.4122 22.3098 13.0914 21.809 13.5922C21.3082 14.0929 20.629 14.3743 19.9209 14.3743C19.2127 14.3743 18.5335 14.0929 18.0327 13.5922C17.5319 13.0914 17.2506 12.4122 17.2506 11.704C17.2506 10.9958 17.5319 10.3166 18.0327 9.81586C18.5335 9.3151 19.2127 9.03377 19.9209 9.03377C20.629 9.03377 21.3082 9.3151 21.809 9.81586C22.3098 10.3166 22.5911 10.9958 22.5911 11.704ZM22.5911 3.28255C22.5911 3.99074 22.3098 4.66993 21.809 5.1707C21.3082 5.67146 20.629 5.95279 19.9209 5.95279C19.2127 5.95279 18.5335 5.67146 18.0327 5.1707C17.5319 4.66993 17.2506 3.99074 17.2506 3.28255C17.2506 2.57436 17.5319 1.89517 18.0327 1.3944C18.5335 0.893633 19.2127 0.612305 19.9209 0.612305C20.629 0.612305 21.3082 0.893633 21.809 1.3944C22.3098 1.89517 22.5911 2.57436 22.5911 3.28255Z" fill="#E01E5A"/>
</g>
</g>
</g>
<defs>
<clipPath id="clip0_358_459">
<rect width="40" height="40" fill="white" transform="translate(0 0.189453)"/>
</clipPath>
<clipPath id="clip1_358_459">
<rect width="40" height="40" fill="white" transform="translate(0 0.189453)"/>
</clipPath>
<clipPath id="clip2_358_459">
<rect width="39.0244" height="40" fill="white" transform="translate(0.488281 0.189453)"/>
</clipPath>
</defs>
</svg>
