<svg width="40" height="41" viewBox="0 0 40 41" fill="none" xmlns="http://www.w3.org/2000/svg">
<g clip-path="url(#clip0_358_444)">
<g clip-path="url(#clip1_358_444)">
<g clip-path="url(#clip2_358_444)">
<path fill-rule="evenodd" clip-rule="evenodd" d="M24.859 1.57231L21.1322 17.3928L29.6834 3.57133C29.7453 3.47121 29.8291 3.3864 29.9284 3.32324C30.0277 3.26007 30.1401 3.22019 30.257 3.20659C30.3739 3.19298 30.4924 3.206 30.6036 3.24466C30.7148 3.28333 30.8158 3.34664 30.899 3.42987L36.6961 9.22596C36.7793 9.30921 36.8426 9.41021 36.8813 9.52139C36.92 9.63257 36.933 9.75106 36.9194 9.86798C36.9058 9.98491 36.8659 10.0972 36.8027 10.1966C36.7396 10.2959 36.6547 10.3797 36.5546 10.4416L22.7322 18.9938L38.5536 15.2669C38.6682 15.24 38.7874 15.2394 38.9023 15.265C39.0171 15.2906 39.1247 15.3419 39.2169 15.415C39.3092 15.4881 39.3837 15.5811 39.4349 15.6871C39.4861 15.7931 39.5127 15.9092 39.5127 16.0269V24.224C39.5126 24.3416 39.4859 24.4577 39.4346 24.5635C39.3833 24.6694 39.3088 24.7623 39.2166 24.8352C39.1243 24.9082 39.0168 24.9594 38.902 24.985C38.7872 25.0106 38.6681 25.0099 38.5536 24.983L22.7322 21.2562L36.5546 29.8084C36.6547 29.8703 36.7396 29.9541 36.8027 30.0534C36.8659 30.1527 36.9058 30.2651 36.9194 30.382C36.933 30.4989 36.92 30.6174 36.8813 30.7286C36.8426 30.8398 36.7793 30.9408 36.6961 31.024L30.899 36.8201C30.8158 36.9034 30.7149 36.9668 30.6038 37.0055C30.4926 37.0442 30.3742 37.0574 30.2572 37.0438C30.1403 37.0303 30.028 36.9905 29.9286 36.9275C29.8292 36.8644 29.7454 36.7797 29.6834 36.6796L21.1322 22.8572L24.859 38.6777C24.8861 38.7923 24.8869 38.9116 24.8613 39.0266C24.8358 39.1416 24.7845 39.2493 24.7114 39.3416C24.6383 39.434 24.5452 39.5086 24.4391 39.5599C24.3331 39.6111 24.2168 39.6377 24.099 39.6377H15.9029C15.7851 39.6377 15.6688 39.6111 15.5628 39.5599C15.4567 39.5086 15.3637 39.434 15.2905 39.3416C15.2174 39.2493 15.1662 39.1416 15.1406 39.0266C15.115 38.9116 15.1158 38.7923 15.1429 38.6777L18.8697 22.8572L10.3185 36.6796C10.2565 36.7797 10.1727 36.8644 10.0733 36.9275C9.97397 36.9905 9.86162 37.0303 9.7447 37.0438C9.62778 37.0574 9.50931 37.0442 9.39818 37.0055C9.28704 36.9668 9.1861 36.9034 9.10292 36.8201L3.30584 31.024C3.22262 30.9408 3.15931 30.8398 3.12064 30.7286C3.08197 30.6174 3.06896 30.4989 3.08256 30.382C3.09617 30.2651 3.13605 30.1527 3.19921 30.0534C3.26238 29.9541 3.34719 29.8703 3.44731 29.8084L17.2688 21.2572L1.44731 24.984C1.33266 25.011 1.21339 25.0116 1.09846 24.9859C0.983521 24.9602 0.875892 24.9088 0.783633 24.8356C0.691375 24.7624 0.61688 24.6693 0.565731 24.5632C0.514581 24.4571 0.488104 24.3408 0.488282 24.223V16.0269C0.488104 15.9092 0.514581 15.7929 0.565731 15.6868C0.61688 15.5807 0.691375 15.4876 0.783633 15.4144C0.875892 15.3412 0.983521 15.2898 1.09846 15.2641C1.21339 15.2384 1.33266 15.239 1.44731 15.266L17.2688 18.9928L3.44633 10.4416C3.34622 10.3797 3.2614 10.2959 3.19824 10.1966C3.13507 10.0972 3.09519 9.98491 3.08159 9.86798C3.06798 9.75106 3.081 9.63257 3.11966 9.52139C3.15833 9.41021 3.22164 9.30921 3.30487 9.22596L9.10292 3.42987C9.18616 3.34683 9.2871 3.28367 9.39818 3.24511C9.50926 3.20656 9.62761 3.19359 9.7444 3.2072C9.8612 3.2208 9.97341 3.26061 10.0727 3.32367C10.1719 3.38672 10.2556 3.47138 10.3176 3.57133L18.8697 17.3928L15.1429 1.57231C15.116 1.45773 15.1153 1.33856 15.141 1.22369C15.1666 1.10883 15.2179 1.00125 15.291 0.909015C15.3641 0.816776 15.4571 0.742262 15.5631 0.691049C15.6691 0.639836 15.7852 0.61325 15.9029 0.613281H24.098C24.2157 0.61325 24.3319 0.639836 24.4379 0.691049C24.5438 0.742262 24.6368 0.816776 24.7099 0.909015C24.783 1.00125 24.8343 1.10883 24.86 1.22369C24.8856 1.33856 24.8859 1.45773 24.859 1.57231ZM20.0005 22.3547C20.2972 22.361 20.5922 22.3079 20.8682 22.1986C21.1441 22.0893 21.3955 21.9261 21.6076 21.7184C21.8196 21.5107 21.9881 21.2628 22.1031 20.9892C22.2181 20.7156 22.2774 20.4218 22.2774 20.125C22.2774 19.8282 22.2181 19.5344 22.1031 19.2607C21.9881 18.9871 21.8196 18.7392 21.6076 18.5316C21.3955 18.3239 21.1441 18.1606 20.8682 18.0514C20.5922 17.9421 20.2972 17.889 20.0005 17.8952C19.4172 17.9074 18.8619 18.1477 18.4537 18.5645C18.0455 18.9814 17.8169 19.5416 17.8169 20.125C17.8169 20.7084 18.0455 21.2686 18.4537 21.6854C18.8619 22.1023 19.4172 22.3425 20.0005 22.3547Z" fill="#95BF46"/>
</g>
</g>
</g>
<defs>
<clipPath id="clip0_358_444">
<rect width="40" height="40" fill="white" transform="translate(0 0.189453)"/>
</clipPath>
<clipPath id="clip1_358_444">
<rect width="40" height="40" fill="white" transform="translate(0 0.189453)"/>
</clipPath>
<clipPath id="clip2_358_444">
<rect width="39.0244" height="40" fill="white" transform="translate(0.488281 0.189453)"/>
</clipPath>
</defs>
</svg>
