<svg width="40" height="41" viewBox="0 0 40 41" fill="none" xmlns="http://www.w3.org/2000/svg">
<g clip-path="url(#clip0_358_482)">
<g clip-path="url(#clip1_358_482)">
<g clip-path="url(#clip2_358_482)">
<mask id="mask0_358_482" style="mask-type:luminance" maskUnits="userSpaceOnUse" x="0" y="0" width="40" height="40">
<path d="M0.488281 0.613281H39.5127V39.6377H0.488281V0.613281Z" fill="white"/>
</mask>
<g mask="url(#mask0_358_482)">
<path fill-rule="evenodd" clip-rule="evenodd" d="M22.4493 17.6767C24.2366 16.9118 26.8483 16.4299 29.7566 16.4299C35.1449 16.4299 39.5127 18.0845 39.5127 20.1255C39.5127 22.1665 35.1449 23.8201 29.7566 23.8201C26.8483 23.8201 24.2366 23.3382 22.4493 22.5733C23.2141 24.3606 23.6961 26.9733 23.6961 29.8806C23.6961 35.2689 22.0415 39.6367 20.0005 39.6367C17.9595 39.6367 16.3049 35.2689 16.3049 29.8806C16.3049 26.9733 16.7868 24.3606 17.5517 22.5733C15.7644 23.3382 13.1536 23.8201 10.2444 23.8201C4.85609 23.8201 0.488281 22.1665 0.488281 20.1255C0.488281 18.0845 4.85609 16.4299 10.2444 16.4299C13.1536 16.4299 15.7644 16.9118 17.5517 17.6767C16.7868 15.8894 16.3049 13.2777 16.3049 10.3694C16.3049 4.98109 17.9595 0.613281 20.0005 0.613281C22.0415 0.613281 23.6961 4.98109 23.6961 10.3694C23.6961 13.2777 23.2141 15.8894 22.4493 17.6767Z" fill="#248E7D"/>
</g>
</g>
</g>
</g>
<defs>
<clipPath id="clip0_358_482">
<rect width="40" height="40" fill="white" transform="translate(0 0.189453)"/>
</clipPath>
<clipPath id="clip1_358_482">
<rect width="40" height="40" fill="white" transform="translate(0 0.189453)"/>
</clipPath>
<clipPath id="clip2_358_482">
<rect width="39.0244" height="40" fill="white" transform="translate(0.488281 0.189453)"/>
</clipPath>
</defs>
</svg>
