<svg width="40" height="41" viewBox="0 0 40 41" fill="none" xmlns="http://www.w3.org/2000/svg">
<g clip-path="url(#clip0_358_491)">
<g clip-path="url(#clip1_358_491)">
<g clip-path="url(#clip2_358_491)">
<mask id="mask0_358_491" style="mask-type:luminance" maskUnits="userSpaceOnUse" x="0" y="0" width="40" height="40">
<path d="M0.488281 0.613281H39.5127V39.6377H0.488281V0.613281Z" fill="white"/>
</mask>
<g mask="url(#mask0_358_491)">
<path d="M1.99688 27.6504C3.06029 18.9597 7.48956 16.1724 11.4554 13.7031C15.5052 11.1792 19.0086 8.96943 18.5871 0.666016C16.7395 0.798163 14.9204 1.19439 13.1852 1.8426C13.3618 8.43187 10.2398 10.386 7.21054 12.2738C4.01151 14.266 0.989074 16.1489 0.800781 23.5792C1.05346 24.9938 1.45444 26.3587 1.99688 27.6504Z" fill="#7FD2FE"/>
<path d="M6.29176 10.7879C9.11517 9.02792 11.3981 7.58791 11.4498 2.58694C6.31127 5.10694 2.43712 9.81913 1.05078 15.4972C2.4742 13.1684 4.45176 11.9343 6.29176 10.7889V10.7879ZM6.80785 34.4845C7.49468 25.2221 11.5591 21.9899 15.5005 18.8601C19.7805 15.4611 23.8264 12.2406 23.5981 0.940111C22.5207 0.739854 21.4284 0.630526 20.3327 0.613281C20.7844 9.91377 16.522 12.5996 12.3815 15.1791C8.18639 17.7918 3.85761 20.504 3.52395 30.5528C4.44227 32.0011 5.54629 33.3229 6.80785 34.4845ZM27.7035 24.3011C31.6147 21.1625 35.3035 18.1752 35.1054 7.76157C34.0514 6.47851 32.8392 5.33412 31.4976 4.35572C31.442 15.7323 27.0196 19.2884 22.7337 22.7284C18.6986 25.9655 14.8908 29.0289 14.6118 38.8816C16.2205 39.344 17.9122 39.6065 19.6605 39.6386C20.1201 30.4133 23.9688 27.3001 27.7035 24.3011ZM34.2576 28.3713C31.4576 30.0777 29.0283 31.5743 28.7454 37.5743C34.1152 34.8757 38.0742 29.7743 39.201 23.6855C37.9425 26.1225 36.0352 27.2884 34.2576 28.3713Z" fill="#7FD2FE"/>
<path d="M33.3497 26.8813C36.3488 25.052 39.1839 23.3262 38.8385 15.3028L38.9283 15.2989C38.4715 13.5122 37.7619 11.8 36.821 10.214C36.4073 19.5233 32.5497 22.6491 28.7975 25.6618C25.2268 28.5252 21.8571 31.253 21.4122 39.5886C23.3156 39.4539 25.1887 39.0393 26.9712 38.3584C27.0775 30.7038 30.4083 28.6735 33.3497 26.8813ZM21.6424 21.3662C25.9302 17.9262 29.9819 14.6677 29.7449 3.214C28.3632 2.41522 26.8883 1.78969 25.3536 1.35156C25.4785 13.1652 20.9585 16.7525 16.5849 20.2257C12.6005 23.3886 8.84145 26.3935 8.48242 35.8618C9.84204 36.8609 11.3257 37.6791 12.8961 38.2959C13.3273 28.0657 17.5488 24.6511 21.6424 21.3662Z" fill="#7FD2FE"/>
</g>
</g>
</g>
</g>
<defs>
<clipPath id="clip0_358_491">
<rect width="40" height="40" fill="white" transform="translate(0 0.189453)"/>
</clipPath>
<clipPath id="clip1_358_491">
<rect width="40" height="40" fill="white" transform="translate(0 0.189453)"/>
</clipPath>
<clipPath id="clip2_358_491">
<rect width="39.0244" height="40" fill="white" transform="translate(0.488281 0.189453)"/>
</clipPath>
</defs>
</svg>
