<svg width="40" height="41" viewBox="0 0 40 41" fill="none" xmlns="http://www.w3.org/2000/svg">
<g clip-path="url(#clip0_358_449)">
<g clip-path="url(#clip1_358_449)">
<path d="M32.8671 26.7697C32.6135 27.0234 32.3123 27.2246 31.9809 27.3619C31.6494 27.4992 31.2942 27.5699 30.9354 27.5699C30.5767 27.5699 30.2214 27.4992 29.89 27.3619C29.5585 27.2246 29.2574 27.0234 29.0037 26.7697L24.2945 22.0604C24.0408 21.8068 23.8395 21.5056 23.7022 21.1742C23.5649 20.8427 23.4943 20.4875 23.4943 20.1287C23.4943 19.77 23.5649 19.4147 23.7022 19.0833C23.8395 18.7518 24.0408 18.4507 24.2945 18.197L29.0037 13.4878C29.2574 13.2341 29.5585 13.0328 29.89 12.8955C30.2214 12.7582 30.5767 12.6876 30.9354 12.6876C31.2942 12.6876 31.6494 12.7582 31.9809 12.8955C32.3123 13.0328 32.6135 13.2341 32.8671 13.4878L37.5774 18.197C37.8311 18.4507 38.0323 18.7518 38.1696 19.0833C38.3069 19.4147 38.3776 19.77 38.3776 20.1287C38.3776 20.4875 38.3069 20.8427 38.1696 21.1742C38.0323 21.5056 37.8311 21.8068 37.5774 22.0604L32.8671 26.7697ZM10.9891 26.7697C10.7354 27.0234 10.4343 27.2246 10.1028 27.3619C9.77138 27.4992 9.41614 27.5699 9.05738 27.5699C8.69863 27.5699 8.34338 27.4992 8.01194 27.3619C7.68049 27.2246 7.37934 27.0234 7.12568 26.7697L2.41543 22.0604C2.16174 21.8068 1.9605 21.5056 1.8232 21.1742C1.6859 20.8427 1.61523 20.4875 1.61523 20.1287C1.61523 19.77 1.6859 19.4147 1.8232 19.0833C1.9605 18.7518 2.16174 18.4507 2.41543 18.197L7.12568 13.4878C7.37934 13.2341 7.68049 13.0328 8.01194 12.8955C8.34338 12.7582 8.69863 12.6876 9.05738 12.6876C9.41614 12.6876 9.77138 12.7582 10.1028 12.8955C10.4343 13.0328 10.7354 13.2341 10.9891 13.4878L15.6984 18.197C15.952 18.4507 16.1533 18.7518 16.2906 19.0833C16.4279 19.4147 16.4986 19.77 16.4986 20.1287C16.4986 20.4875 16.4279 20.8427 16.2906 21.1742C16.1533 21.5056 15.952 21.8068 15.6984 22.0604L10.9891 26.7697ZM21.9276 37.7092C21.674 37.9629 21.3728 38.1642 21.0414 38.3015C20.7099 38.4388 20.3547 38.5094 19.9959 38.5094C19.6372 38.5094 19.2819 38.4388 18.9505 38.3015C18.619 38.1642 18.3179 37.9629 18.0642 37.7092L13.3559 32.999C13.1022 32.7453 12.901 32.4442 12.7637 32.1127C12.6264 31.7813 12.5557 31.426 12.5557 31.0673C12.5557 30.7085 12.6264 30.3533 12.7637 30.0218C12.901 29.6904 13.1022 29.3892 13.3559 29.1356L18.0662 24.4263C18.3198 24.1726 18.621 23.9714 18.9524 23.8341C19.2839 23.6968 19.6391 23.6261 19.9979 23.6261C20.3566 23.6261 20.7119 23.6968 21.0433 23.8341C21.3748 23.9714 21.6759 24.1726 21.9296 24.4263L26.6388 29.1365C26.8925 29.3902 27.0938 29.6914 27.2311 30.0228C27.3684 30.3542 27.439 30.7095 27.439 31.0682C27.439 31.427 27.3684 31.7822 27.2311 32.1137C27.0938 32.4451 26.8925 32.7463 26.6388 33L21.9276 37.7092ZM21.9276 15.8312C21.674 16.0849 21.3728 16.2861 21.0414 16.4234C20.7099 16.5607 20.3547 16.6314 19.9959 16.6314C19.6372 16.6314 19.2819 16.5607 18.9505 16.4234C18.619 16.2861 18.3179 16.0849 18.0642 15.8312L13.3549 11.1209C13.1013 10.8673 12.9 10.5661 12.7627 10.2347C12.6254 9.90322 12.5547 9.54798 12.5547 9.18922C12.5547 8.83046 12.6254 8.47522 12.7627 8.14378C12.9 7.81233 13.1013 7.51118 13.3549 7.25751L18.0652 2.54824C18.3189 2.29455 18.62 2.09331 18.9515 1.95601C19.2829 1.81871 19.6381 1.74805 19.9969 1.74805C20.3556 1.74805 20.7109 1.81871 21.0423 1.95601C21.3738 2.09331 21.6749 2.29455 21.9286 2.54824L26.6379 7.25751C26.8916 7.51118 27.0928 7.81233 27.2301 8.14378C27.3674 8.47522 27.4381 8.83046 27.4381 9.18922C27.4381 9.54798 27.3674 9.90322 27.2301 10.2347C27.0928 10.5661 26.8916 10.8673 26.6379 11.1209L21.9276 15.8302V15.8312Z" fill="#F8BD00"/>
</g>
</g>
<defs>
<clipPath id="clip0_358_449">
<rect width="40" height="40" fill="white" transform="translate(0 0.189453)"/>
</clipPath>
<clipPath id="clip1_358_449">
<rect width="40" height="40" fill="white" transform="translate(0 0.189453)"/>
</clipPath>
</defs>
</svg>
