<svg width="40" height="41" viewBox="0 0 40 41" fill="none" xmlns="http://www.w3.org/2000/svg">
<g clip-path="url(#clip0_358_439)">
<g clip-path="url(#clip1_358_439)">
<g clip-path="url(#clip2_358_439)">
<path d="M19.0224 8.83767C21.2351 8.83767 23.0293 6.9967 23.0293 4.72548C23.0293 2.45426 21.2351 0.613281 19.0224 0.613281C16.8098 0.613281 15.0156 2.45426 15.0156 4.72548C15.0156 6.9967 16.8098 8.83767 19.0224 8.83767ZM19.0224 24.2416C21.2351 24.2416 23.0293 22.4006 23.0293 20.1294C23.0293 17.8582 21.2351 16.0172 19.0224 16.0172C16.8098 16.0172 15.0156 17.8582 15.0156 20.1294C15.0156 22.4006 16.8098 24.2416 19.0224 24.2416ZM4.00683 24.2416C6.22049 24.2416 8.01366 22.4006 8.01366 20.1294C8.01366 17.8582 6.22049 16.0172 4.00683 16.0172C1.79512 16.0172 0 17.8582 0 20.1294C0 22.4006 1.79415 24.2416 4.00683 24.2416ZM35.0741 24.2416C37.2868 24.2416 39.081 22.4006 39.081 20.1294C39.081 17.8582 37.2868 16.0172 35.0741 16.0172C32.8615 16.0172 31.0673 17.8582 31.0673 20.1294C31.0673 22.4006 32.8615 24.2416 35.0741 24.2416ZM29.5473 11.0513C30.9298 11.0513 32.0517 9.90011 32.0517 8.4806C32.0517 7.06109 30.9298 5.90987 29.5473 5.90987C28.1639 5.90987 27.0429 7.06109 27.0429 8.4806C27.0429 9.90011 28.1639 11.0513 29.5473 11.0513ZM29.5473 33.505C30.9298 33.505 32.0517 32.3538 32.0517 30.9343C32.0517 29.5147 30.9298 28.3645 29.5473 28.3645C28.1639 28.3645 27.0429 29.5157 27.0429 30.9343C27.0429 32.3547 28.1639 33.505 29.5473 33.505ZM8.51024 33.505C9.89366 33.505 11.0146 32.3538 11.0146 30.9343C11.0146 29.5147 9.89366 28.3645 8.51024 28.3645C7.1278 28.3645 6.00585 29.5157 6.00585 30.9343C6.00585 32.3547 7.1278 33.505 8.51024 33.505ZM8.51024 11.0513C9.89366 11.0513 11.0146 9.90011 11.0146 8.4806C11.0146 7.06109 9.89366 5.90987 8.51024 5.90987C7.1278 5.90987 6.00585 7.06109 6.00585 8.4806C6.00585 9.90011 7.1278 11.0513 8.51024 11.0513ZM19.0224 39.6386C21.2351 39.6386 23.0293 37.7967 23.0293 35.5255C23.0293 33.2543 21.2351 31.4133 19.0224 31.4133C16.8098 31.4133 15.0156 33.2543 15.0156 35.5255C15.0156 37.7967 16.8098 39.6386 19.0224 39.6386Z" fill="#1A2722"/>
</g>
</g>
</g>
<defs>
<clipPath id="clip0_358_439">
<rect width="40" height="40" fill="white" transform="translate(0 0.189453)"/>
</clipPath>
<clipPath id="clip1_358_439">
<rect width="40" height="40" fill="white" transform="translate(0 0.189453)"/>
</clipPath>
<clipPath id="clip2_358_439">
<rect width="40" height="40" fill="white" transform="translate(0 0.189453)"/>
</clipPath>
</defs>
</svg>
