<svg width="40" height="41" viewBox="0 0 40 41" fill="none" xmlns="http://www.w3.org/2000/svg">
<g clip-path="url(#clip0_358_521)">
<g clip-path="url(#clip1_358_521)">
<g clip-path="url(#clip2_358_521)">
<path d="M19.9966 39.6377C21.2688 39.6377 22.3107 38.7011 22.4873 37.3772C24.2346 25.5821 25.8415 23.9391 37.1781 22.6504C38.4854 22.4913 39.4912 21.3967 39.4912 20.1255C39.4912 18.8357 38.5029 17.7762 37.1966 17.5821C25.9302 16.0113 24.5351 14.6338 22.4873 2.85523C22.2571 1.54792 21.2502 0.613281 19.9966 0.613281C18.7088 0.613281 17.6844 1.54889 17.4717 2.87279C15.7595 14.6513 14.1527 16.2933 2.83366 17.5821C1.49122 17.7586 0.501953 18.8182 0.501953 20.1255C0.501953 21.3967 1.4561 22.4562 2.79854 22.6504C14.0815 24.2572 15.459 25.6162 17.4717 37.3947C17.7371 38.7186 18.7615 39.6377 19.9966 39.6377Z" fill="#A6B4FB"/>
</g>
</g>
</g>
<defs>
<clipPath id="clip0_358_521">
<rect width="40" height="40" fill="white" transform="translate(0 0.189453)"/>
</clipPath>
<clipPath id="clip1_358_521">
<rect width="40" height="40" fill="white" transform="translate(0 0.189453)"/>
</clipPath>
<clipPath id="clip2_358_521">
<rect width="39.0244" height="40" fill="white" transform="translate(0.488281 0.189453)"/>
</clipPath>
</defs>
</svg>
