<svg width="40" height="41" viewBox="0 0 40 41" fill="none" xmlns="http://www.w3.org/2000/svg">
<g clip-path="url(#clip0_358_473)">
<g clip-path="url(#clip1_358_473)">
<g clip-path="url(#clip2_358_473)">
<mask id="mask0_358_473" style="mask-type:luminance" maskUnits="userSpaceOnUse" x="0" y="0" width="40" height="40">
<path d="M0.488281 0.613281H39.5127V39.6377H0.488281V0.613281Z" fill="white"/>
</mask>
<g mask="url(#mask0_358_473)">
<path fill-rule="evenodd" clip-rule="evenodd" d="M5.61241 20.1254C-6.7193 34.8824 5.24168 46.8454 20.0007 34.5117C34.7558 46.8444 46.7217 34.8707 34.389 20.1244C46.7207 5.36633 34.7558 -6.5966 20.0007 5.73706C5.24265 -6.59562 -6.72027 5.36633 5.61241 20.1254ZM20.0007 27.3449C20.9488 27.3449 21.8876 27.1581 22.7635 26.7953C23.6394 26.4325 24.4353 25.9007 25.1057 25.2303C25.7761 24.5599 26.3078 23.7641 26.6707 22.8881C27.0335 22.0122 27.2202 21.0734 27.2202 20.1254C27.2202 19.1773 27.0335 18.2385 26.6707 17.3626C26.3078 16.4867 25.7761 15.6908 25.1057 15.0204C24.4353 14.35 23.6394 13.8182 22.7635 13.4554C21.8876 13.0926 20.9488 12.9058 20.0007 12.9058C18.086 12.9058 16.2497 13.6665 14.8957 15.0204C13.5418 16.3743 12.7812 18.2106 12.7812 20.1254C12.7812 22.0401 13.5418 23.8764 14.8957 25.2303C16.2497 26.5842 18.086 27.3449 20.0007 27.3449Z" fill="#FFBF00"/>
</g>
</g>
</g>
</g>
<defs>
<clipPath id="clip0_358_473">
<rect width="40" height="40" fill="white" transform="translate(0 0.189453)"/>
</clipPath>
<clipPath id="clip1_358_473">
<rect width="40" height="40" fill="white" transform="translate(0 0.189453)"/>
</clipPath>
<clipPath id="clip2_358_473">
<rect width="39.0244" height="40" fill="white" transform="translate(0.488281 0.189453)"/>
</clipPath>
</defs>
</svg>
