<svg width="14" height="13" viewBox="0 0 14 13" fill="none" xmlns="http://www.w3.org/2000/svg">
<path d="M6.97354 3.44619C5.23447 3.44619 3.83174 4.84893 3.83174 6.58799C3.83174 8.32705 5.23447 9.72978 6.97354 9.72978C8.7126 9.72978 10.1153 8.32705 10.1153 6.58799C10.1153 4.84893 8.7126 3.44619 6.97354 3.44619ZM6.97354 8.63057C5.84971 8.63057 4.93096 7.71455 4.93096 6.58799C4.93096 5.46143 5.84697 4.54541 6.97354 4.54541C8.1001 4.54541 9.01611 5.46143 9.01611 6.58799C9.01611 7.71455 8.09736 8.63057 6.97354 8.63057ZM10.9767 3.31768C10.9767 3.7251 10.6485 4.05049 10.2438 4.05049C9.83643 4.05049 9.51103 3.72236 9.51103 3.31768C9.51103 2.91299 9.83916 2.58486 10.2438 2.58486C10.6485 2.58486 10.9767 2.91299 10.9767 3.31768ZM13.0575 4.06143C13.011 3.07979 12.7868 2.21025 12.0677 1.49385C11.3513 0.777441 10.4817 0.553223 9.5001 0.504004C8.48838 0.446582 5.45596 0.446582 4.44424 0.504004C3.46533 0.550488 2.5958 0.774707 1.87666 1.49111C1.15752 2.20752 0.936035 3.07705 0.886816 4.05869C0.829395 5.07041 0.829395 8.10283 0.886816 9.11455C0.933301 10.0962 1.15752 10.9657 1.87666 11.6821C2.5958 12.3985 3.4626 12.6228 4.44424 12.672C5.45596 12.7294 8.48838 12.7294 9.5001 12.672C10.4817 12.6255 11.3513 12.4013 12.0677 11.6821C12.7841 10.9657 13.0083 10.0962 13.0575 9.11455C13.1149 8.10283 13.1149 5.07314 13.0575 4.06143ZM11.7505 10.2001C11.5372 10.736 11.1243 11.1489 10.5856 11.3649C9.77901 11.6849 7.86494 11.611 6.97354 11.611C6.08213 11.611 4.16533 11.6821 3.36143 11.3649C2.82549 11.1517 2.4126 10.7388 2.19658 10.2001C1.87666 9.39346 1.95049 7.47939 1.95049 6.58799C1.95049 5.69658 1.87939 3.77979 2.19658 2.97588C2.40986 2.43994 2.82275 2.02705 3.36143 1.81104C4.16807 1.49111 6.08213 1.56494 6.97354 1.56494C7.86494 1.56494 9.78174 1.49385 10.5856 1.81104C11.1216 2.02432 11.5345 2.43721 11.7505 2.97588C12.0704 3.78252 11.9966 5.69658 11.9966 6.58799C11.9966 7.47939 12.0704 9.39619 11.7505 10.2001Z" fill="white"/>
</svg>
