<svg width="13" height="13" viewBox="0 0 13 13" fill="none" xmlns="http://www.w3.org/2000/svg">
<path d="M2.77719 12.8396H0.2375V4.66105H2.77719V12.8396ZM1.50598 3.54543C0.693867 3.54543 0.0351562 2.87277 0.0351562 2.06066C0.0351563 1.67058 0.190117 1.29647 0.46595 1.02064C0.741782 0.744805 1.11589 0.589844 1.50598 0.589844C1.89606 0.589844 2.27017 0.744805 2.546 1.02064C2.82184 1.29647 2.9768 1.67058 2.9768 2.06066C2.9768 2.87277 2.31781 3.54543 1.50598 3.54543ZM12.2824 12.8396H9.7482V8.85832C9.7482 7.90949 9.72906 6.6927 8.42777 6.6927C7.10734 6.6927 6.905 7.72355 6.905 8.78996V12.8396H4.36805V4.66105H6.80383V5.77668H6.83938C7.17844 5.1341 8.00668 4.45598 9.24234 4.45598C11.8127 4.45598 12.2852 6.14855 12.2852 8.34699V12.8396H12.2824Z" fill="white"/>
</svg>
