<svg width="16" height="12" viewBox="0 0 16 12" fill="none" xmlns="http://www.w3.org/2000/svg">
<path d="M0.177734 2.25048C0.177734 1.90548 0.457734 1.62548 0.802734 1.62548H3.70673C3.98373 0.698476 4.83573 0.0634766 5.80273 0.0634766C6.76973 0.0634766 7.62173 0.698476 7.89873 1.62548H14.5527C14.8977 1.62548 15.1777 1.90548 15.1777 2.25048C15.1777 2.59548 14.8977 2.87548 14.5527 2.87548H7.89873C7.62173 3.80248 6.76973 4.43748 5.80273 4.43748C4.83573 4.43748 3.98373 3.80248 3.70673 2.87548H0.802734C0.457734 2.87548 0.177734 2.59548 0.177734 2.25048ZM14.5527 9.12548H12.8987C12.6217 8.19848 11.7697 7.56348 10.8027 7.56348C9.83573 7.56348 8.98374 8.19848 8.70673 9.12548H0.802734C0.457734 9.12548 0.177734 9.40548 0.177734 9.75048C0.177734 10.0955 0.457734 10.3755 0.802734 10.3755H8.70673C8.98374 11.3025 9.83573 11.9375 10.8027 11.9375C11.7697 11.9375 12.6217 11.3025 12.8987 10.3755H14.5527C14.8977 10.3755 15.1777 10.0955 15.1777 9.75048C15.1777 9.40548 14.8977 9.12548 14.5527 9.12548Z" fill="white"/>
</svg>
