<svg width="16" height="17" viewBox="0 0 16 17" fill="none" xmlns="http://www.w3.org/2000/svg">
<path d="M15.1711 2.18424C14.9491 2.08224 14.6871 2.12124 14.5031 2.28124C12.3151 4.17324 10.4621 3.25624 8.31411 2.19324C6.08911 1.09124 3.56711 -0.156756 0.753109 2.28124C0.617109 2.39924 0.538109 2.57024 0.537109 2.75024V15.8752C0.537109 16.2202 0.817109 16.5002 1.16211 16.5002C1.50711 16.5002 1.78711 16.2202 1.78711 15.8752V12.4202C3.88011 10.7662 5.68311 11.6582 7.76011 12.6862C9.04111 13.3202 10.4211 14.0022 11.9001 14.0022C12.9891 14.0022 14.1301 13.6312 15.3241 12.5962C15.4601 12.4782 15.5381 12.3072 15.5391 12.1272V2.75024C15.5381 2.50524 15.3941 2.28424 15.1711 2.18424ZM1.78711 10.9092V7.27224C3.10311 6.39124 4.33711 6.36624 5.53711 6.69824V10.4282C4.35511 10.1302 3.10511 10.1492 1.78711 10.9092ZM14.2871 11.8322C12.9691 12.8732 11.7661 12.9042 10.5371 12.5282V8.80424C8.84811 8.33524 7.22611 7.16324 5.53711 6.69824V2.34924C6.26011 2.57024 6.99111 2.93124 7.76011 3.31224C8.63911 3.74724 9.56511 4.20524 10.5371 4.44924V8.80424C11.7361 9.13624 12.9701 9.11224 14.2871 8.23024V11.8322Z" fill="white"/>
</svg>
