<svg width="14" height="14" viewBox="0 0 14 14" fill="none" xmlns="http://www.w3.org/2000/svg">
<path d="M6.29102 1.375V5.125C6.29102 5.815 5.73102 6.375 5.04102 6.375H1.29102C0.601016 6.375 0.0410156 5.815 0.0410156 5.125V1.375C0.0410156 0.685 0.601016 0.125 1.29102 0.125H5.04102C5.73102 0.125 6.29102 0.685 6.29102 1.375ZM12.541 0.125H8.79102C8.10102 0.125 7.54102 0.685 7.54102 1.375V5.125C7.54102 5.815 8.10102 6.375 8.79102 6.375H12.541C13.231 6.375 13.791 5.815 13.791 5.125V1.375C13.791 0.685 13.231 0.125 12.541 0.125ZM5.04102 7.625H1.29102C0.601016 7.625 0.0410156 8.185 0.0410156 8.875V12.625C0.0410156 13.315 0.601016 13.875 1.29102 13.875H5.04102C5.73102 13.875 6.29102 13.315 6.29102 12.625V8.875C6.29102 8.185 5.73102 7.625 5.04102 7.625ZM12.541 7.625H8.79102C8.10102 7.625 7.54102 8.185 7.54102 8.875V12.625C7.54102 13.315 8.10102 13.875 8.79102 13.875H12.541C13.231 13.875 13.791 13.315 13.791 12.625V8.875C13.791 8.185 13.231 7.625 12.541 7.625Z" fill="white"/>
</svg>
