<svg width="15" height="14" viewBox="0 0 15 14" fill="none" xmlns="http://www.w3.org/2000/svg">
<path d="M14.6133 1.375V6.063C14.6133 6.235 14.4733 6.375 14.3013 6.375H1.17628C1.00328 6.375 0.863281 6.235 0.863281 6.063V1.375C0.863281 0.685 1.42328 0.125 2.11328 0.125H13.3633C14.0533 0.125 14.6133 0.685 14.6133 1.375ZM14.3013 7.625H1.17628C1.00328 7.625 0.863281 7.765 0.863281 7.938V12.625C0.863281 13.315 1.42328 13.875 2.11328 13.875H13.3633C14.0533 13.875 14.6133 13.315 14.6133 12.625V7.938C14.6133 7.765 14.4733 7.625 14.3013 7.625Z" fill="white"/>
</svg>
