<svg width="38" height="30" viewBox="0 0 38 30" fill="none" xmlns="http://www.w3.org/2000/svg">
<path d="M18.3262 7.67773C18.7423 7.30859 18.9063 6.72852 18.6895 6.21289C18.5548 5.90234 18.4083 5.59766 18.2442 5.30469L18.0626 4.98828C17.8868 4.69531 17.6934 4.4082 17.4883 4.13281C17.1544 3.6875 16.5684 3.54102 16.0411 3.7168L14.3887 4.26172C13.7618 3.74609 13.0411 3.32422 12.2676 3.03711L11.9102 1.33789C11.7989 0.792969 11.377 0.359375 10.8262 0.294922C10.4395 0.242188 10.0469 0.21875 9.6485 0.21875H9.60748C9.20905 0.21875 8.81647 0.242187 8.42975 0.289062C7.87897 0.353516 7.45709 0.792969 7.34577 1.33203L6.98834 3.03711C6.20905 3.33008 5.4942 3.74609 4.86725 4.26172L3.20905 3.72266C2.6817 3.54688 2.09577 3.69336 1.76178 4.13867C1.5567 4.41406 1.36334 4.70117 1.1817 4.99414L1.00592 5.30469C0.841859 5.59766 0.695375 5.90234 0.560609 6.21875C0.343813 6.72852 0.507875 7.30859 0.923891 7.68359L2.22467 8.84375C2.16022 9.23633 2.12506 9.64648 2.12506 10.0625C2.12506 10.4785 2.16022 10.8887 2.22467 11.2871L0.923891 12.4473C0.507875 12.8164 0.343813 13.3965 0.560609 13.9121C0.695375 14.2227 0.841859 14.5273 1.00592 14.8262L1.1817 15.1309C1.35748 15.4297 1.55084 15.7109 1.76178 15.9863C2.09577 16.4316 2.6817 16.5781 3.20905 16.4023L4.86139 15.8574C5.48834 16.373 6.20905 16.7949 6.98249 17.082L7.33991 18.7871C7.45123 19.332 7.87311 19.7656 8.42389 19.8301C8.81647 19.877 9.21491 19.9004 9.6192 19.9004C10.0235 19.9004 10.4219 19.877 10.8145 19.8301C11.3653 19.7656 11.7872 19.3262 11.8985 18.7871L12.2559 17.082C13.0352 16.7891 13.7501 16.373 14.377 15.8574L16.0294 16.4023C16.5567 16.5781 17.1426 16.4316 17.4766 15.9863C17.6817 15.7109 17.8751 15.4297 18.0508 15.1309L18.2325 14.8145C18.3965 14.5215 18.543 14.2168 18.6778 13.9062C18.8946 13.3965 18.7305 12.8164 18.3145 12.4414L17.0137 11.2812C17.0782 10.8828 17.1133 10.4727 17.1133 10.0566C17.1133 9.64062 17.0782 9.23047 17.0137 8.83203L18.3145 7.67188L18.3262 7.67773ZM6.81256 10.0625C6.81256 9.31658 7.10888 8.60121 7.63633 8.07376C8.16377 7.54632 8.87914 7.25 9.62506 7.25C10.371 7.25 11.0864 7.54632 11.6138 8.07376C12.1412 8.60121 12.4376 9.31658 12.4376 10.0625C12.4376 10.8084 12.1412 11.5238 11.6138 12.0512C11.0864 12.5787 10.371 12.875 9.62506 12.875C8.87914 12.875 8.16377 12.5787 7.63633 12.0512C7.10888 11.5238 6.81256 10.8084 6.81256 10.0625ZM29.8223 29.0762C30.1915 29.4922 30.7716 29.6562 31.2872 29.4395C31.5977 29.3047 31.9024 29.1582 32.1954 28.9941L32.5118 28.8125C32.8048 28.6367 33.0919 28.4434 33.3673 28.2383C33.8126 27.9043 33.959 27.3184 33.7833 26.791L33.2383 25.1387C33.754 24.5117 34.1758 23.791 34.463 23.0176L36.168 22.6602C36.713 22.5488 37.1465 22.127 37.211 21.5762C37.2579 21.1836 37.2813 20.7852 37.2813 20.3809C37.2813 19.9766 37.2579 19.5781 37.211 19.1855C37.1465 18.6348 36.7071 18.2129 36.168 18.1016L34.463 17.7383C34.17 16.959 33.754 16.2441 33.2383 15.6172L33.7833 13.9648C33.959 13.4375 33.8126 12.8516 33.3673 12.5176C33.0919 12.3125 32.8048 12.1191 32.5118 11.9375L32.2012 11.7617C31.9083 11.5977 31.6036 11.4512 31.2872 11.3164C30.7774 11.0996 30.1973 11.2637 29.8223 11.6797L28.6622 12.9805C28.2637 12.916 27.8536 12.8809 27.4376 12.8809C27.0215 12.8809 26.6114 12.916 26.213 12.9805L25.0528 11.6797C24.6837 11.2637 24.1036 11.0996 23.588 11.3164C23.2774 11.4512 22.9727 11.5977 22.6739 11.7617L22.3692 11.9375C22.0704 12.1133 21.7891 12.3066 21.5137 12.5176C21.0684 12.8516 20.9219 13.4375 21.0977 13.9648L21.6426 15.6172C21.127 16.2441 20.7051 16.9648 20.418 17.7383L18.713 18.0898C18.168 18.2012 17.7344 18.623 17.67 19.1738C17.6231 19.5664 17.5997 19.9648 17.5997 20.3691C17.5997 20.7734 17.6231 21.1719 17.67 21.5645C17.7344 22.1152 18.1739 22.5371 18.713 22.6484L20.418 23.0059C20.711 23.7852 21.127 24.5 21.6426 25.127L21.0977 26.7793C20.9219 27.3066 21.0684 27.8926 21.5137 28.2266C21.7891 28.4316 22.0704 28.625 22.3692 28.8008L22.6856 28.9824C22.9786 29.1465 23.2833 29.293 23.5938 29.4277C24.1036 29.6445 24.6837 29.4805 25.0587 29.0645L26.2188 27.7637C26.6173 27.8281 27.0274 27.8633 27.4434 27.8633C27.8594 27.8633 28.2696 27.8281 28.668 27.7637L29.8282 29.0645L29.8223 29.0762ZM27.4376 17.5625C27.8069 17.5625 28.1726 17.6352 28.5139 17.7766C28.8551 17.9179 29.1651 18.1251 29.4263 18.3863C29.6875 18.6474 29.8946 18.9575 30.036 19.2987C30.1773 19.6399 30.2501 20.0057 30.2501 20.375C30.2501 20.7443 30.1773 21.1101 30.036 21.4513C29.8946 21.7925 29.6875 22.1026 29.4263 22.3637C29.1651 22.6249 28.8551 22.8321 28.5139 22.9734C28.1726 23.1148 27.8069 23.1875 27.4376 23.1875C27.0682 23.1875 26.7025 23.1148 26.3613 22.9734C26.02 22.8321 25.71 22.6249 25.4488 22.3637C25.1877 22.1026 24.9805 21.7925 24.8392 21.4513C24.6978 21.1101 24.6251 20.7443 24.6251 20.375C24.6251 20.0057 24.6978 19.6399 24.8392 19.2987C24.9805 18.9575 25.1877 18.6474 25.4488 18.3863C25.71 18.1251 26.02 17.9179 26.3613 17.7766C26.7025 17.6352 27.0682 17.5625 27.4376 17.5625Z" fill="#A6CE39"/>
</svg>
