<svg width="30" height="31" viewBox="0 0 30 31" fill="none" xmlns="http://www.w3.org/2000/svg">
<path d="M9.17559 23.3028L7.36505 21.4922C6.867 20.9942 6.69122 20.2735 6.91388 19.6055C7.08966 19.084 7.32403 18.4043 7.60528 17.625H1.40606C0.902156 17.625 0.433406 17.3555 0.181453 16.916C-0.0704998 16.4766 -0.0646404 15.9375 0.193172 15.5039L3.26934 10.3184C4.03106 9.03519 5.40802 8.25003 6.8963 8.25003H11.7186C11.8592 8.01566 11.9998 7.79886 12.1404 7.58792C16.9393 0.509799 24.0877 0.275424 28.3533 1.06058C29.033 1.18363 29.5604 1.71683 29.6893 2.39652C30.4744 6.668 30.2342 13.8106 23.1619 18.6094C22.9568 18.75 22.7342 18.8907 22.4998 19.0313V23.8535C22.4998 25.3418 21.7147 26.7246 20.4315 27.4805L15.2459 30.5567C14.8123 30.8145 14.2733 30.8203 13.8338 30.5684C13.3943 30.3164 13.1248 29.8535 13.1248 29.3438V23.0625C12.2986 23.3496 11.5779 23.584 11.033 23.7598C10.3768 23.9707 9.66192 23.7891 9.16973 23.3028H9.17559ZM22.4998 10.5938C23.1214 10.5938 23.7176 10.3469 24.1571 9.90732C24.5966 9.46778 24.8436 8.87163 24.8436 8.25003C24.8436 7.62843 24.5966 7.03229 24.1571 6.59275C23.7176 6.15321 23.1214 5.90628 22.4998 5.90628C21.8782 5.90628 21.2821 6.15321 20.8425 6.59275C20.403 7.03229 20.1561 7.62843 20.1561 8.25003C20.1561 8.87163 20.403 9.46778 20.8425 9.90732C21.2821 10.3469 21.8782 10.5938 22.4998 10.5938Z" fill="#A6CE39"/>
</svg>
