<svg width="29" height="26" viewBox="0 0 29 26" fill="none" xmlns="http://www.w3.org/2000/svg">
<path d="M26.4728 4.69728H21.1554V3.6338C21.1554 2.78764 20.8192 1.97614 20.2209 1.37782C19.6226 0.779494 18.8111 0.443359 17.9649 0.443359H11.584C10.7379 0.443359 9.92637 0.779494 9.32804 1.37782C8.72972 1.97614 8.39359 2.78764 8.39359 3.6338V4.69728H3.07618C2.51208 4.69728 1.97107 4.92137 1.57219 5.32026C1.17331 5.71914 0.949219 6.26014 0.949219 6.82425V23.8399C0.949219 24.404 1.17331 24.945 1.57219 25.3439C1.97107 25.7428 2.51208 25.9669 3.07618 25.9669H26.4728C27.0369 25.9669 27.5779 25.7428 27.9768 25.3439C28.3756 24.945 28.5997 24.404 28.5997 23.8399V6.82425C28.5997 6.26014 28.3756 5.71914 27.9768 5.32026C27.5779 4.92137 27.0369 4.69728 26.4728 4.69728ZM10.5205 3.6338C10.5205 3.35175 10.6326 3.08125 10.832 2.88181C11.0315 2.68237 11.302 2.57032 11.584 2.57032H17.9649C18.247 2.57032 18.5175 2.68237 18.7169 2.88181C18.9164 3.08125 19.0284 3.35175 19.0284 3.6338V4.69728H10.5205V3.6338ZM26.4728 6.82425V12.3557C22.8832 14.3095 18.8613 15.3328 14.7745 15.3321C10.6878 15.3328 6.66599 14.31 3.07618 12.357V6.82425H26.4728ZM26.4728 23.8399H3.07618V14.7525C6.7185 16.5341 10.7198 17.4598 14.7745 17.4591C18.8292 17.4591 22.8305 16.533 26.4728 14.7512V23.8399ZM11.584 12.1417C11.584 11.8596 11.6961 11.5891 11.8955 11.3897C12.095 11.1902 12.3655 11.0782 12.6475 11.0782H16.9014C17.1835 11.0782 17.454 11.1902 17.6534 11.3897C17.8529 11.5891 17.9649 11.8596 17.9649 12.1417C17.9649 12.4237 17.8529 12.6942 17.6534 12.8936C17.454 13.0931 17.1835 13.2051 16.9014 13.2051H12.6475C12.3655 13.2051 12.095 13.0931 11.8955 12.8936C11.6961 12.6942 11.584 12.4237 11.584 12.1417Z" fill="#0F0F0F"/>
</svg>
