<svg width="27" height="27" viewBox="0 0 27 27" fill="none" xmlns="http://www.w3.org/2000/svg">
<path d="M26.2088 1.57978C26.1936 1.3196 26.0834 1.07407 25.8991 0.889782C25.7149 0.705498 25.4693 0.595298 25.2092 0.580104C15.0888 -0.0141155 6.98242 3.03276 3.52611 8.74897C2.32805 10.7043 1.73768 12.9714 1.82986 15.2628C1.90563 17.3791 2.52245 19.5167 3.66304 21.6237L1.06947 24.216C0.86992 24.4155 0.757812 24.6862 0.757812 24.9684C0.757813 25.2506 0.86992 25.5212 1.06947 25.7208C1.26902 25.9203 1.53968 26.0325 1.82188 26.0325C2.10409 26.0325 2.37474 25.9203 2.5743 25.7208L5.16653 23.1272C7.27222 24.2665 9.41115 24.8833 11.5261 24.9591C11.6741 24.9644 11.8217 24.9671 11.9688 24.9671C14.1114 24.9728 16.2134 24.3827 18.04 23.2628C23.7562 19.8065 26.8044 11.7015 26.2088 1.57978ZM16.9433 21.4443C13.919 23.2761 10.339 23.3054 6.7458 21.5466L18.5278 9.76592C18.6266 9.66711 18.705 9.54981 18.7585 9.42071C18.812 9.29161 18.8395 9.15324 18.8395 9.01351C18.8395 8.87377 18.812 8.7354 18.7585 8.6063C18.705 8.47721 18.6266 8.3599 18.5278 8.2611C18.429 8.16229 18.3117 8.08391 18.1826 8.03043C18.0535 7.97696 17.9152 7.94944 17.7754 7.94944C17.6357 7.94944 17.4973 7.97696 17.3682 8.03043C17.2391 8.08391 17.1218 8.16229 17.023 8.2611L5.2423 20.0485C3.48889 16.4592 3.51415 12.87 5.34466 9.851C8.2812 5.00286 15.2616 2.34814 24.1297 2.66453C24.4474 11.526 21.7914 18.5077 16.9433 21.4443Z" fill="#0F0F0F"/>
</svg>
