<svg width="32" height="25" viewBox="0 0 32 25" fill="none" xmlns="http://www.w3.org/2000/svg">
<path d="M28.0353 5.01857H25.9083V3.95509C25.9083 3.10893 25.5722 2.29743 24.9738 1.69911C24.3755 1.10078 23.564 0.764648 22.7179 0.764648H3.57521C2.72905 0.764648 1.91755 1.10078 1.31922 1.69911C0.720901 2.29743 0.384766 3.10893 0.384766 3.95509V16.7169C0.384766 17.563 0.720901 18.3745 1.31922 18.9728C1.91755 19.5712 2.72905 19.9073 3.57521 19.9073H18.4639V20.9708C18.4639 21.8169 18.8001 22.6284 19.3984 23.2268C19.9967 23.8251 20.8082 24.1612 21.6544 24.1612H28.0353C28.8814 24.1612 29.6929 23.8251 30.2913 23.2268C30.8896 22.6284 31.2257 21.8169 31.2257 20.9708V8.20901C31.2257 7.36286 30.8896 6.55135 30.2913 5.95303C29.6929 5.35471 28.8814 5.01857 28.0353 5.01857ZM3.57521 17.7803C3.29316 17.7803 3.02266 17.6683 2.82321 17.4689C2.62377 17.2694 2.51173 16.9989 2.51173 16.7169V3.95509C2.51173 3.67304 2.62377 3.40254 2.82321 3.2031C3.02266 3.00366 3.29316 2.89161 3.57521 2.89161H22.7179C22.9999 2.89161 23.2704 3.00366 23.4699 3.2031C23.6693 3.40254 23.7813 3.67304 23.7813 3.95509V5.01857H21.6544C20.8082 5.01857 19.9967 5.35471 19.3984 5.95303C18.8001 6.55135 18.4639 7.36286 18.4639 8.20901V17.7803H3.57521ZM29.0987 20.9708C29.0987 21.2528 28.9867 21.5233 28.7873 21.7228C28.5878 21.9222 28.3173 22.0343 28.0353 22.0343H21.6544C21.3723 22.0343 21.1018 21.9222 20.9024 21.7228C20.7029 21.5233 20.5909 21.2528 20.5909 20.9708V8.20901C20.5909 7.92696 20.7029 7.65646 20.9024 7.45702C21.1018 7.25758 21.3723 7.14553 21.6544 7.14553H28.0353C28.3173 7.14553 28.5878 7.25758 28.7873 7.45702C28.9867 7.65646 29.0987 7.92696 29.0987 8.20901V20.9708ZM16.337 23.0977C16.337 23.3798 16.2249 23.6503 16.0255 23.8497C15.8261 24.0492 15.5556 24.1612 15.2735 24.1612H9.95609C9.67404 24.1612 9.40354 24.0492 9.2041 23.8497C9.00466 23.6503 8.89261 23.3798 8.89261 23.0977C8.89261 22.8157 9.00466 22.5452 9.2041 22.3458C9.40354 22.1463 9.67404 22.0343 9.95609 22.0343H15.2735C15.5556 22.0343 15.8261 22.1463 16.0255 22.3458C16.2249 22.5452 16.337 22.8157 16.337 23.0977ZM26.9718 10.336C26.9718 10.618 26.8597 10.8885 26.6603 11.088C26.4609 11.2874 26.1904 11.3995 25.9083 11.3995H23.7813C23.4993 11.3995 23.2288 11.2874 23.0293 11.088C22.8299 10.8885 22.7179 10.618 22.7179 10.336C22.7179 10.0539 22.8299 9.78342 23.0293 9.58398C23.2288 9.38454 23.4993 9.2725 23.7813 9.2725H25.9083C26.1904 9.2725 26.4609 9.38454 26.6603 9.58398C26.8597 9.78342 26.9718 10.0539 26.9718 10.336Z" fill="#0F0F0F"/>
</svg>
