<svg width="27" height="29" viewBox="0 0 27 29" fill="none" xmlns="http://www.w3.org/2000/svg">
<path d="M26.1617 8.39313L18.7173 0.948764C18.6185 0.850036 18.5012 0.771749 18.3721 0.718375C18.243 0.665001 18.1046 0.637586 17.9649 0.637696H5.20314C4.63904 0.637696 4.09804 0.861786 3.69915 1.26067C3.30027 1.65955 3.07618 2.20055 3.07618 2.76466V14.4629C3.07618 14.745 3.18823 15.0155 3.38767 15.2149C3.58711 15.4144 3.85761 15.5264 4.13966 15.5264C4.42171 15.5264 4.69221 15.4144 4.89166 15.2149C5.0911 15.0155 5.20314 14.745 5.20314 14.4629V2.76466H16.9014V9.14554C16.9014 9.4276 17.0135 9.6981 17.2129 9.89754C17.4124 10.097 17.6829 10.209 17.9649 10.209H24.3458V26.1612H21.1554C20.8733 26.1612 20.6028 26.2733 20.4034 26.4727C20.2039 26.6722 20.0919 26.9427 20.0919 27.2247C20.0919 27.5068 20.2039 27.7773 20.4034 27.9767C20.6028 28.1762 20.8733 28.2882 21.1554 28.2882H24.3458C24.9099 28.2882 25.4509 28.0641 25.8498 27.6652C26.2487 27.2663 26.4728 26.7253 26.4728 26.1612V9.14554C26.4729 9.00584 26.4455 8.86749 26.3921 8.73839C26.3387 8.60929 26.2604 8.49197 26.1617 8.39313ZM19.0284 4.26815L22.8423 8.08206H19.0284V4.26815ZM12.1158 14.4629C10.751 14.4629 9.41685 14.8669 8.28133 15.6239C7.14581 16.3809 6.25978 17.4571 5.73488 18.7169C4.46565 18.7169 3.24839 19.2211 2.35091 20.1186C1.45342 21.016 0.949219 22.2333 0.949219 23.5025C0.949219 24.7718 1.45342 25.989 2.35091 26.8865C3.24839 27.784 4.46565 28.2882 5.73488 28.2882H12.1158C13.9491 28.2882 15.7074 27.5599 17.0037 26.2635C18.3001 24.9672 19.0284 23.2089 19.0284 21.3756C19.0284 19.5422 18.3001 17.784 17.0037 16.4876C15.7074 15.1912 13.9491 14.4629 12.1158 14.4629ZM12.1158 26.1612H5.73488C5.07304 26.1623 4.4346 25.9165 3.94437 25.4719C3.45414 25.0272 3.14737 24.4157 3.08405 23.7569C3.02073 23.0981 3.20541 22.4394 3.60197 21.9095C3.99853 21.3796 4.57847 21.0167 5.2284 20.8917C5.22205 21.1737 5.32801 21.4468 5.52297 21.6507C5.71792 21.8546 5.9859 21.9728 6.26795 21.9791C6.55001 21.9854 6.82303 21.8795 7.02696 21.6845C7.23088 21.4896 7.34902 21.2216 7.35536 20.9395C7.38027 20.6663 7.4274 20.3956 7.49627 20.13C7.51126 20.0865 7.52325 20.0421 7.53217 19.997C7.78767 19.1476 8.27423 18.3859 8.93751 17.797C9.6008 17.2081 10.4147 16.815 11.2884 16.6618C12.1621 16.5086 13.0611 16.6013 13.8852 16.9294C14.7093 17.2575 15.426 17.8082 15.9553 18.52C16.4846 19.2318 16.8056 20.0767 16.8826 20.9603C16.9596 21.844 16.7894 22.7317 16.3912 23.5242C15.9929 24.3168 15.3822 24.9831 14.6273 25.4488C13.8723 25.9144 13.0028 26.1611 12.1158 26.1612Z" fill="#0F0F0F"/>
</svg>
