<svg width="33" height="27" viewBox="0 0 33 27" fill="none" xmlns="http://www.w3.org/2000/svg">
<path d="M31.4093 24.0978H30.3458V8.14554C30.3458 7.86349 30.2338 7.59299 30.0343 7.39354C29.8349 7.1941 29.5644 7.08206 29.2823 7.08206H20.7745C20.4924 7.08206 20.2219 7.1941 20.0225 7.39354C19.8231 7.59299 19.711 7.86349 19.711 8.14554V13.4629H13.3301V1.76465C13.3301 1.4826 13.2181 1.2121 13.0186 1.01266C12.8192 0.813217 12.5487 0.701172 12.2666 0.701172H3.7588C3.47675 0.701172 3.20625 0.813217 3.00681 1.01266C2.80737 1.2121 2.69532 1.4826 2.69532 1.76465V24.0978H1.63184C1.34979 24.0978 1.07929 24.2098 0.879846 24.4092C0.680404 24.6087 0.568359 24.8792 0.568359 25.1612C0.568359 25.4433 0.680404 25.7138 0.879846 25.9132C1.07929 26.1127 1.34979 26.2247 1.63184 26.2247H31.4093C31.6914 26.2247 31.9619 26.1127 32.1613 25.9132C32.3607 25.7138 32.4728 25.4433 32.4728 25.1612C32.4728 24.8792 32.3607 24.6087 32.1613 24.4092C31.9619 24.2098 31.6914 24.0978 31.4093 24.0978ZM21.838 9.20902H28.2189V24.0978H21.838V9.20902ZM19.711 15.5899V24.0978H13.3301V15.5899H19.711ZM4.82228 2.82813H11.2032V24.0978H4.82228V2.82813ZM9.07621 6.01858V8.14554C9.07621 8.42759 8.96416 8.69809 8.76472 8.89753C8.56528 9.09697 8.29478 9.20902 8.01273 9.20902C7.73067 9.20902 7.46017 9.09697 7.26073 8.89753C7.06129 8.69809 6.94924 8.42759 6.94924 8.14554V6.01858C6.94924 5.73652 7.06129 5.46602 7.26073 5.26658C7.46017 5.06714 7.73067 4.9551 8.01273 4.9551C8.29478 4.9551 8.56528 5.06714 8.76472 5.26658C8.96416 5.46602 9.07621 5.73652 9.07621 6.01858ZM9.07621 12.3995V14.5264C9.07621 14.8085 8.96416 15.079 8.76472 15.2784C8.56528 15.4779 8.29478 15.5899 8.01273 15.5899C7.73067 15.5899 7.46017 15.4779 7.26073 15.2784C7.06129 15.079 6.94924 14.8085 6.94924 14.5264V12.3995C6.94924 12.1174 7.06129 11.8469 7.26073 11.6475C7.46017 11.448 7.73067 11.336 8.01273 11.336C8.29478 11.336 8.56528 11.448 8.76472 11.6475C8.96416 11.8469 9.07621 12.1174 9.07621 12.3995ZM9.07621 18.7803V20.9073C9.07621 21.1894 8.96416 21.4599 8.76472 21.6593C8.56528 21.8587 8.29478 21.9708 8.01273 21.9708C7.73067 21.9708 7.46017 21.8587 7.26073 21.6593C7.06129 21.4599 6.94924 21.1894 6.94924 20.9073V18.7803C6.94924 18.4983 7.06129 18.2278 7.26073 18.0284C7.46017 17.8289 7.73067 17.7169 8.01273 17.7169C8.29478 17.7169 8.56528 17.8289 8.76472 18.0284C8.96416 18.2278 9.07621 18.4983 9.07621 18.7803ZM15.4571 20.9073V18.7803C15.4571 18.4983 15.5691 18.2278 15.7686 18.0284C15.968 17.8289 16.2385 17.7169 16.5206 17.7169C16.8026 17.7169 17.0731 17.8289 17.2726 18.0284C17.472 18.2278 17.5841 18.4983 17.5841 18.7803V20.9073C17.5841 21.1894 17.472 21.4599 17.2726 21.6593C17.0731 21.8587 16.8026 21.9708 16.5206 21.9708C16.2385 21.9708 15.968 21.8587 15.7686 21.6593C15.5691 21.4599 15.4571 21.1894 15.4571 20.9073ZM23.9649 20.9073V18.7803C23.9649 18.4983 24.077 18.2278 24.2764 18.0284C24.4759 17.8289 24.7464 17.7169 25.0284 17.7169C25.3105 17.7169 25.581 17.8289 25.7804 18.0284C25.9799 18.2278 26.0919 18.4983 26.0919 18.7803V20.9073C26.0919 21.1894 25.9799 21.4599 25.7804 21.6593C25.581 21.8587 25.3105 21.9708 25.0284 21.9708C24.7464 21.9708 24.4759 21.8587 24.2764 21.6593C24.077 21.4599 23.9649 21.1894 23.9649 20.9073ZM23.9649 14.5264V12.3995C23.9649 12.1174 24.077 11.8469 24.2764 11.6475C24.4759 11.448 24.7464 11.336 25.0284 11.336C25.3105 11.336 25.581 11.448 25.7804 11.6475C25.9799 11.8469 26.0919 12.1174 26.0919 12.3995V14.5264C26.0919 14.8085 25.9799 15.079 25.7804 15.2784C25.581 15.4779 25.3105 15.5899 25.0284 15.5899C24.7464 15.5899 24.4759 15.4779 24.2764 15.2784C24.077 15.079 23.9649 14.8085 23.9649 14.5264Z" fill="#0F0F0F"/>
</svg>
