<svg width="29" height="27" viewBox="0 0 29 27" fill="none" xmlns="http://www.w3.org/2000/svg">
<path d="M0.448102 13.2682C0.450917 10.7306 1.46023 8.29774 3.25459 6.50338C5.04895 4.70902 7.48182 3.69971 10.0194 3.69689H24.4681L23.0923 2.32234C22.8927 2.12279 22.7806 1.85214 22.7806 1.56993C22.7806 1.28772 22.8927 1.01707 23.0923 0.817519C23.2918 0.617967 23.5625 0.505859 23.8447 0.505859C24.1269 0.505859 24.3975 0.617967 24.5971 0.817519L27.7875 4.00796C27.8864 4.10673 27.9649 4.22402 28.0184 4.35312C28.0719 4.48223 28.0994 4.62062 28.0994 4.76037C28.0994 4.90013 28.0719 5.03852 28.0184 5.16762C27.9649 5.29673 27.8864 5.41402 27.7875 5.51279L24.5971 8.70323C24.3975 8.90278 24.1269 9.01489 23.8447 9.01489C23.5625 9.01489 23.2918 8.90278 23.0923 8.70323C22.8927 8.50368 22.7806 8.23303 22.7806 7.95082C22.7806 7.66861 22.8927 7.39796 23.0923 7.1984L24.4681 5.82386H10.0194C8.04571 5.82597 6.15343 6.61096 4.7578 8.00659C3.36217 9.40222 2.57718 11.2945 2.57506 13.2682C2.57506 13.5503 2.46302 13.8208 2.26358 14.0202C2.06414 14.2197 1.79364 14.3317 1.51158 14.3317C1.22953 14.3317 0.95903 14.2197 0.759588 14.0202C0.560147 13.8208 0.448102 13.5503 0.448102 13.2682ZM27.0351 12.2047C26.7531 12.2047 26.4826 12.3168 26.2831 12.5162C26.0837 12.7157 25.9716 12.9862 25.9716 13.2682C25.9695 15.2419 25.1845 17.1342 23.7889 18.5299C22.3933 19.9255 20.501 20.7105 18.5273 20.7126H4.07856L5.45444 19.338C5.55325 19.2392 5.63163 19.1219 5.6851 18.9928C5.73857 18.8637 5.7661 18.7254 5.7661 18.5856C5.7661 18.4459 5.73857 18.3075 5.6851 18.1784C5.63163 18.0493 5.55325 17.932 5.45444 17.8332C5.35563 17.7344 5.23833 17.656 5.10923 17.6026C4.98013 17.5491 4.84176 17.5216 4.70203 17.5216C4.56229 17.5216 4.42392 17.5491 4.29482 17.6026C4.16572 17.656 4.04842 17.7344 3.94961 17.8332L0.75917 21.0237C0.660292 21.1224 0.58185 21.2397 0.528331 21.3688C0.474812 21.4979 0.447266 21.6363 0.447266 21.7761C0.447266 21.9158 0.474812 22.0542 0.528331 22.1833C0.58185 22.3124 0.660292 22.4297 0.75917 22.5285L3.94961 25.7189C4.04842 25.8177 4.16572 25.8961 4.29482 25.9496C4.42392 26.0031 4.56229 26.0306 4.70203 26.0306C4.84176 26.0306 4.98013 26.0031 5.10923 25.9496C5.23833 25.8961 5.35563 25.8177 5.45444 25.7189C5.55325 25.6201 5.63163 25.5028 5.6851 25.3737C5.73857 25.2446 5.7661 25.1063 5.7661 24.9665C5.7661 24.8268 5.73857 24.6884 5.6851 24.5593C5.63163 24.4302 5.55325 24.3129 5.45444 24.2141L4.07856 22.8396H18.5273C21.0649 22.8367 23.4978 21.8274 25.2921 20.0331C27.0865 18.2387 28.0958 15.8058 28.0986 13.2682C28.0986 12.9862 27.9866 12.7157 27.7871 12.5162C27.5877 12.3168 27.3172 12.2047 27.0351 12.2047Z" fill="#0F0F0F"/>
</svg>
