<svg width="21" height="21" viewBox="0 0 21 21" fill="none" xmlns="http://www.w3.org/2000/svg">
<g clip-path="url(#clip0_319_1894)">
<path d="M3.06055 17.9346V16.2681C3.06055 14.4271 4.55305 12.9346 6.39405 12.9346H9.72705C11.568 12.9346 13.0605 14.4271 13.0605 16.2681V17.9346M13.894 3.04307C15.369 3.42057 16.4005 4.74957 16.4005 6.27207C16.4005 7.79457 15.369 9.12357 13.894 9.50107M18.0605 17.9346V16.2681C18.052 14.7551 17.0255 13.4376 15.5605 13.0596M4.72705 6.26807C4.72705 8.10907 6.21955 9.60107 8.06055 9.60107C9.90155 9.60107 11.394 8.10907 11.394 6.26807C11.394 4.42707 9.90155 2.93457 8.06055 2.93457C6.21955 2.93457 4.72705 4.42707 4.72705 6.26807Z" stroke="white" stroke-width="1.5" stroke-linecap="round" stroke-linejoin="round"/>
</g>
<defs>
<clipPath id="clip0_319_1894">
<rect width="20" height="20" fill="white" transform="translate(0.560547 0.43457)"/>
</clipPath>
</defs>
</svg>
