<svg width="21" height="21" viewBox="0 0 21 21" fill="none" xmlns="http://www.w3.org/2000/svg">
<g clip-path="url(#clip0_319_1901)">
<path d="M3 2.93457L18 17.9346M8 4.60107H15.5C16.8805 4.60107 18 5.72057 18 7.10107V13.7681C18 14.0136 17.9645 14.2576 17.8935 14.4931M16.225 16.1611C15.99 16.2321 15.7455 16.2681 15.5 16.2681H5.5C4.1195 16.2681 3 15.1486 3 13.7681V7.10107C2.9995 6.00157 3.718 5.03057 4.77 4.70957M3 9.60107H9.6665M13 9.60107H18M6.3335 12.9346H6.3415M9.6665 12.9346H11.3335" stroke="white" stroke-width="1.5" stroke-linecap="round" stroke-linejoin="round"/>
</g>
<defs>
<clipPath id="clip0_319_1901">
<rect width="20" height="20" fill="white" transform="translate(0.5 0.43457)"/>
</clipPath>
</defs>
</svg>
