<svg width="21" height="21" viewBox="0 0 21 21" fill="none" xmlns="http://www.w3.org/2000/svg">
<g clip-path="url(#clip0_319_1908)">
<path d="M5.13086 17.9346V16.2681C5.13086 14.4271 6.62336 12.9346 8.46436 12.9346H8.88086M6.79736 6.26807C6.79736 8.10907 8.28986 9.60107 10.1309 9.60107C11.9719 9.60107 13.4644 8.10907 13.4644 6.26807C13.4644 4.42707 11.9719 2.93457 10.1309 2.93457C8.28986 2.93457 6.79736 4.42707 6.79736 6.26807ZM15.1309 18.7681L17.9224 16.0311C18.2684 15.6956 18.4639 15.2346 18.4649 14.7526C18.4654 14.2706 18.2714 13.8086 17.9269 13.4721C17.2024 12.7641 16.0459 12.7616 15.3194 13.4671L15.1324 13.6506L14.9469 13.4671C14.2229 12.7596 13.0669 12.7571 12.3399 13.4621C11.9939 13.7976 11.7984 14.2586 11.7974 14.7406C11.7964 15.2226 11.9904 15.6846 12.3349 16.0211L15.1309 18.7681Z" stroke="white" stroke-width="1.5" stroke-linecap="round" stroke-linejoin="round"/>
</g>
<defs>
<clipPath id="clip0_319_1908">
<rect width="20" height="20" fill="white" transform="translate(0.130859 0.43457)"/>
</clipPath>
</defs>
</svg>
