<svg width="117" height="20" viewBox="0 0 117 20" fill="none" xmlns="http://www.w3.org/2000/svg">
<mask id="mask0_116_2006" style="mask-type:alpha" maskUnits="userSpaceOnUse" x="0" y="0" width="21" height="20">
<g clip-path="url(#clip0_116_2006)">
<g clip-path="url(#clip1_116_2006)">
<path d="M7.20443 6.115L1.88743 6.886L1.79343 6.905C1.50343 6.982 1.27693 7.2095 1.20093 7.5C1.12493 7.7905 1.21143 8.0995 1.42693 8.3085L5.27843 12.0575L4.36993 17.3535L4.35943 17.445C4.34143 17.7455 4.48693 18.032 4.73943 18.1945C4.99243 18.3575 5.31343 18.372 5.57943 18.232L10.3344 15.732L15.0784 18.232L15.1619 18.27C15.4419 18.3805 15.7594 18.331 15.9929 18.141C16.2264 17.951 16.3394 17.65 16.2884 17.3535L15.3794 12.0575L19.2324 8.3075L19.2974 8.237C19.4864 8.004 19.5359 7.6875 19.4269 7.4085C19.3179 7.129 19.0669 6.93 18.7699 6.887L13.4534 6.115L11.0769 1.2985C10.9364 1.014 10.6469 0.833496 10.3294 0.833496C10.0119 0.833496 9.72193 1.014 9.58193 1.2985L7.20443 6.115Z" fill="black"/>
</g>
</g>
</mask>
<g mask="url(#mask0_116_2006)">
<rect x="0.339844" width="20" height="20" fill="#FFC300"/>
</g>
<mask id="mask1_116_2006" style="mask-type:alpha" maskUnits="userSpaceOnUse" x="24" y="0" width="21" height="20">
<g clip-path="url(#clip2_116_2006)">
<g clip-path="url(#clip3_116_2006)">
<path d="M31.2044 6.115L25.8874 6.886L25.7934 6.905C25.5034 6.982 25.2769 7.2095 25.2009 7.5C25.1249 7.7905 25.2114 8.0995 25.4269 8.3085L29.2784 12.0575L28.3699 17.3535L28.3594 17.445C28.3414 17.7455 28.4869 18.032 28.7394 18.1945C28.9924 18.3575 29.3134 18.372 29.5794 18.232L34.3344 15.732L39.0784 18.232L39.1619 18.27C39.4419 18.3805 39.7594 18.331 39.9929 18.141C40.2264 17.951 40.3394 17.65 40.2884 17.3535L39.3794 12.0575L43.2324 8.3075L43.2974 8.237C43.4864 8.004 43.5359 7.6875 43.4269 7.4085C43.3179 7.129 43.0669 6.93 42.7699 6.887L37.4534 6.115L35.0769 1.2985C34.9364 1.014 34.6469 0.833496 34.3294 0.833496C34.0119 0.833496 33.7219 1.014 33.5819 1.2985L31.2044 6.115Z" fill="black"/>
</g>
</g>
</mask>
<g mask="url(#mask1_116_2006)">
<rect x="24.3398" width="20" height="20" fill="#FFC300"/>
</g>
<mask id="mask2_116_2006" style="mask-type:alpha" maskUnits="userSpaceOnUse" x="48" y="0" width="21" height="20">
<g clip-path="url(#clip4_116_2006)">
<g clip-path="url(#clip5_116_2006)">
<path d="M55.2044 6.115L49.8874 6.886L49.7934 6.905C49.5034 6.982 49.2769 7.2095 49.2009 7.5C49.1249 7.7905 49.2114 8.0995 49.4269 8.3085L53.2784 12.0575L52.3699 17.3535L52.3594 17.445C52.3414 17.7455 52.4869 18.032 52.7394 18.1945C52.9924 18.3575 53.3134 18.372 53.5794 18.232L58.3344 15.732L63.0784 18.232L63.1619 18.27C63.4419 18.3805 63.7594 18.331 63.9929 18.141C64.2264 17.951 64.3394 17.65 64.2884 17.3535L63.3794 12.0575L67.2324 8.3075L67.2974 8.237C67.4864 8.004 67.5359 7.6875 67.4269 7.4085C67.3179 7.129 67.0669 6.93 66.7699 6.887L61.4534 6.115L59.0769 1.2985C58.9364 1.014 58.6469 0.833496 58.3294 0.833496C58.0119 0.833496 57.7219 1.014 57.5819 1.2985L55.2044 6.115Z" fill="black"/>
</g>
</g>
</mask>
<g mask="url(#mask2_116_2006)">
<rect x="48.3398" width="20" height="20" fill="#FFC300"/>
</g>
<mask id="mask3_116_2006" style="mask-type:alpha" maskUnits="userSpaceOnUse" x="72" y="0" width="21" height="20">
<g clip-path="url(#clip6_116_2006)">
<g clip-path="url(#clip7_116_2006)">
<path d="M79.2044 6.115L73.8874 6.886L73.7934 6.905C73.5034 6.982 73.2769 7.2095 73.2009 7.5C73.1249 7.7905 73.2114 8.0995 73.4269 8.3085L77.2784 12.0575L76.3699 17.3535L76.3594 17.445C76.3414 17.7455 76.4869 18.032 76.7394 18.1945C76.9924 18.3575 77.3134 18.372 77.5794 18.232L82.3344 15.732L87.0784 18.232L87.1619 18.27C87.4419 18.3805 87.7594 18.331 87.9929 18.141C88.2264 17.951 88.3394 17.65 88.2884 17.3535L87.3794 12.0575L91.2324 8.3075L91.2974 8.237C91.4864 8.004 91.5359 7.6875 91.4269 7.4085C91.3179 7.129 91.0669 6.93 90.7699 6.887L85.4534 6.115L83.0769 1.2985C82.9364 1.014 82.6469 0.833496 82.3294 0.833496C82.0119 0.833496 81.7219 1.014 81.5819 1.2985L79.2044 6.115Z" fill="black"/>
</g>
</g>
</mask>
<g mask="url(#mask3_116_2006)">
<rect x="72.3398" width="20" height="20" fill="#FFC300"/>
</g>
<mask id="mask4_116_2006" style="mask-type:alpha" maskUnits="userSpaceOnUse" x="96" y="0" width="21" height="20">
<g clip-path="url(#clip8_116_2006)">
<g clip-path="url(#clip9_116_2006)">
<path d="M106.335 0.833813C106.611 0.834813 106.868 0.973313 107.021 1.20281L107.077 1.29931L109.453 6.11681L114.77 6.88781C115.388 6.97781 115.67 7.67131 115.356 8.15931L115.298 8.23881L115.233 8.31031L111.379 12.0593L112.288 17.3553C112.336 17.6358 112.237 17.9218 112.026 18.1133C111.816 18.3048 111.522 18.3758 111.247 18.3013L111.163 18.2718L111.078 18.2338L106.334 15.7338L101.579 18.2338C101.492 18.2793 101.403 18.3088 101.313 18.3218L101.224 18.3303C100.989 18.3388 100.761 18.2478 100.596 18.0798C100.432 17.9118 100.346 17.6818 100.359 17.4468L100.37 17.3553L101.278 12.0593L97.4259 8.30931C97.2234 8.11231 97.1349 7.82631 97.1899 7.54881C97.2454 7.27181 97.4369 7.04131 97.6994 6.93681L97.7934 6.90681L97.8884 6.88781L103.204 6.11681L105.582 1.30031C105.717 1.00831 106.013 0.824813 106.335 0.833813ZM106.335 3.56181V13.9588C106.402 13.9588 106.469 13.9668 106.534 13.9828L106.63 14.0128L106.723 14.0543L110.359 15.9703L109.663 11.9093C109.628 11.7088 109.669 11.5023 109.776 11.3293L109.834 11.2468L109.903 11.1718L112.858 8.29431L108.782 7.70431C108.58 7.67531 108.396 7.57331 108.265 7.41781L108.204 7.33681L108.154 7.24881L106.335 3.56181Z" fill="black"/>
</g>
</g>
</mask>
<g mask="url(#mask4_116_2006)">
<rect x="96.3398" width="20" height="20" fill="#FFC300"/>
</g>
<defs>
<clipPath id="clip0_116_2006">
<rect width="20" height="20" fill="white" transform="translate(0.339844)"/>
</clipPath>
<clipPath id="clip1_116_2006">
<rect width="20" height="20" fill="white" transform="translate(0.339844)"/>
</clipPath>
<clipPath id="clip2_116_2006">
<rect width="20" height="20" fill="white" transform="translate(24.3398)"/>
</clipPath>
<clipPath id="clip3_116_2006">
<rect width="20" height="20" fill="white" transform="translate(24.3398)"/>
</clipPath>
<clipPath id="clip4_116_2006">
<rect width="20" height="20" fill="white" transform="translate(48.3398)"/>
</clipPath>
<clipPath id="clip5_116_2006">
<rect width="20" height="20" fill="white" transform="translate(48.3398)"/>
</clipPath>
<clipPath id="clip6_116_2006">
<rect width="20" height="20" fill="white" transform="translate(72.3398)"/>
</clipPath>
<clipPath id="clip7_116_2006">
<rect width="20" height="20" fill="white" transform="translate(72.3398)"/>
</clipPath>
<clipPath id="clip8_116_2006">
<rect width="20" height="20" fill="white" transform="translate(96.3398)"/>
</clipPath>
<clipPath id="clip9_116_2006">
<rect width="20" height="20" fill="white" transform="translate(96.3398)"/>
</clipPath>
</defs>
</svg>
