<svg width="30" height="31" viewBox="0 0 30 31" fill="none" xmlns="http://www.w3.org/2000/svg">
<path d="M14.9037 27.863C8.04556 27.863 2.48633 22.3037 2.48633 15.4456C2.48633 8.58756 8.04556 3.02832 14.9037 3.02832C21.7618 3.02832 27.3209 8.58756 27.3209 15.4456C27.3209 22.3037 21.7618 27.863 14.9037 27.863ZM14.9037 25.3795C17.5382 25.3795 20.065 24.3329 21.9279 22.4699C23.7909 20.607 24.8375 18.0803 24.8375 15.4456C24.8375 12.811 23.7909 10.2843 21.9279 8.42135C20.065 6.55839 17.5382 5.51179 14.9037 5.51179C12.269 5.51179 9.74232 6.55839 7.87936 8.42135C6.0164 10.2843 4.9698 12.811 4.9698 15.4456C4.9698 18.0803 6.0164 20.607 7.87936 22.4699C9.74232 24.3329 12.269 25.3795 14.9037 25.3795ZM9.93672 16.6874H19.8705C19.8705 18.0047 19.3473 19.2681 18.4158 20.1995C17.4843 21.131 16.221 21.6543 14.9037 21.6543C13.5863 21.6543 12.323 21.131 11.3914 20.1995C10.46 19.2681 9.93672 18.0047 9.93672 16.6874ZM9.93672 14.2039C9.44273 14.2039 8.96897 14.0077 8.61967 13.6584C8.27036 13.309 8.07412 12.8353 8.07412 12.3413C8.07412 11.8473 8.27036 11.3735 8.61967 11.0243C8.96897 10.675 9.44273 10.4787 9.93672 10.4787C10.4307 10.4787 10.9045 10.675 11.2538 11.0243C11.603 11.3735 11.7993 11.8473 11.7993 12.3413C11.7993 12.8353 11.603 13.309 11.2538 13.6584C10.9045 14.0077 10.4307 14.2039 9.93672 14.2039ZM19.8705 14.2039C19.3766 14.2039 18.9028 14.0077 18.5535 13.6584C18.2042 13.309 18.0079 12.8353 18.0079 12.3413C18.0079 11.8473 18.2042 11.3735 18.5535 11.0243C18.9028 10.675 19.3766 10.4787 19.8705 10.4787C20.3646 10.4787 20.8383 10.675 21.1877 11.0243C21.537 11.3735 21.7331 11.8473 21.7331 12.3413C21.7331 12.8353 21.537 13.309 21.1877 13.6584C20.8383 14.0077 20.3646 14.2039 19.8705 14.2039Z" fill="white"/>
</svg>
