<svg width="18" height="17" viewBox="0 0 18 17" fill="none" xmlns="http://www.w3.org/2000/svg">
<path d="M10.9199 10.156L12.7169 11.053C12.5419 11.931 11.7699 12.562 10.8749 12.56C7.76988 12.557 5.25288 10.04 5.24988 6.93505C5.24988 6.04105 5.88088 5.27105 6.75688 5.09605L7.65388 6.89305L6.89088 8.02905C6.77488 8.20305 6.75288 8.42305 6.83388 8.61505C7.28088 9.67805 8.12588 10.524 9.18888 10.971C9.38288 11.055 9.60488 11.035 9.78088 10.919L10.9199 10.156ZM17.1249 8.81005C17.1259 11.663 15.6289 14.308 13.1829 15.777C10.7369 17.246 7.69988 17.325 5.18088 15.983L2.52088 16.87C2.07188 17.02 1.57688 16.903 1.24188 16.568C0.906876 16.233 0.789876 15.738 0.939876 15.289L1.82688 12.629C0.238876 9.64405 0.665876 5.98805 2.89788 3.44905C5.12988 0.910047 8.70088 0.0180469 11.8649 1.21005C15.0289 2.40205 17.1239 5.42905 17.1249 8.81005ZM13.9999 10.685C13.9999 10.448 13.8659 10.232 13.6549 10.126L11.1549 8.87605C10.9539 8.77605 10.7159 8.79105 10.5299 8.91505L9.38188 9.68005C8.85488 9.39105 8.42188 8.95705 8.13188 8.43005L8.89788 7.28305C9.02188 7.09605 9.03688 6.85805 8.93688 6.65805L7.68688 4.15805C7.58088 3.94405 7.36288 3.80905 7.12488 3.81005C5.39888 3.81005 3.99988 5.20905 3.99988 6.93505C4.00388 10.73 7.07988 13.806 10.8749 13.81C12.6009 13.81 13.9999 12.411 13.9999 10.685Z" fill="#222222"/>
</svg>
