<svg width="17" height="17" viewBox="0 0 17 17" fill="none" xmlns="http://www.w3.org/2000/svg">
<path d="M16.116 12.4883C15.827 14.6783 13.959 16.3143 11.75 16.3103C5.54701 16.3103 0.500007 11.2633 0.500007 5.06028C0.496007 2.85128 2.13201 0.983284 4.32201 0.694284C4.87201 0.627284 5.40001 0.930284 5.62001 1.43828L7.27001 5.12228V5.13128C7.43701 5.51628 7.40001 5.95928 7.17101 6.31028C7.15701 6.33128 7.14201 6.35128 7.12701 6.37028L5.50001 8.29828C6.08501 9.48728 7.32901 10.7203 8.53401 11.3073L10.435 9.68928C10.454 9.67328 10.473 9.65928 10.494 9.64528C10.845 9.41128 11.291 9.37028 11.679 9.53628L11.689 9.54028L15.37 11.1903C15.879 11.4093 16.182 11.9383 16.116 12.4883Z" fill="#222222"/>
</svg>
