<svg width="19" height="19" viewBox="0 0 19 19" fill="none" xmlns="http://www.w3.org/2000/svg">
<path d="M18.079 2.27399V2.28599L13.532 17.281C13.391 17.78 12.955 18.138 12.438 18.18C12.403 18.183 12.367 18.185 12.331 18.185C11.848 18.187 11.408 17.908 11.204 17.47L8.41396 11.58C8.35796 11.461 8.38296 11.319 8.47596 11.226L12.949 6.75099C13.183 6.50599 13.178 6.11899 12.938 5.87899C12.699 5.63899 12.312 5.63399 12.066 5.86799L7.58496 10.341C7.49196 10.435 7.34996 10.459 7.23096 10.403L1.37096 7.62699C0.900957 7.41199 0.605957 6.93399 0.625957 6.41599C0.651957 5.88299 1.01596 5.42599 1.52996 5.28199L16.525 0.734989H16.537C16.972 0.612989 17.438 0.734989 17.758 1.05399C18.078 1.37299 18.2 1.83899 18.079 2.27399Z" fill="#222222"/>
</svg>
