<svg width="31" height="31" viewBox="0 0 31 31" fill="none" xmlns="http://www.w3.org/2000/svg">
<g clip-path="url(#clip0_300_1534)">
<path d="M20.6728 5.51172C21.3583 5.51172 21.9146 6.06801 21.9146 6.75344V11.9687L28.3877 7.4364C28.6684 7.24021 29.0558 7.3085 29.2532 7.59038C29.3253 7.69468 29.365 7.81885 29.365 7.94551V22.9456C29.365 23.2883 29.0869 23.5665 28.7441 23.5665C28.6162 23.5665 28.492 23.5267 28.3877 23.4548L21.9146 18.9224V24.1377C21.9146 24.8231 21.3583 25.3794 20.6728 25.3794H3.2886C2.60316 25.3794 2.04688 24.8231 2.04688 24.1377V6.75344C2.04688 6.06801 2.60316 5.51172 3.2886 5.51172H20.6728ZM19.4312 7.99518H4.53033V22.896H19.4312V7.99518ZM10.739 10.4786H13.2224V14.2038H16.9476V16.6873H13.2213L13.2224 20.4125H10.739L10.7378 16.6873H7.0138V14.2038H10.739V10.4786ZM26.8815 11.523L21.9146 14.9998V15.8914L26.8815 19.3682V11.5217V11.523Z" fill="white"/>
</g>
<defs>
<clipPath id="clip0_300_1534">
<rect width="29.8016" height="29.8016" fill="white" transform="translate(0.806641 0.544922)"/>
</clipPath>
</defs>
</svg>
